%TF.GenerationSoftware,KiCad,Pcbnew,7.0.0*%
%TF.CreationDate,2023-03-24T12:18:01+00:00*%
%TF.ProjectId,ErgoMaxReversible,4572676f-4d61-4785-9265-766572736962,rev?*%
%TF.SameCoordinates,Original*%
%TF.FileFunction,Drillmap*%
%TF.FilePolarity,Positive*%
%FSLAX45Y45*%
G04 Gerber Fmt 4.5, Leading zero omitted, Abs format (unit mm)*
G04 Created by KiCad (PCBNEW 7.0.0) date 2023-03-24 12:18:01*
%MOMM*%
%LPD*%
G01*
G04 APERTURE LIST*
%ADD10C,0.381000*%
%ADD11C,0.200000*%
%ADD12C,0.150000*%
%ADD13C,0.295000*%
%ADD14C,0.304800*%
%ADD15C,0.398018*%
%ADD16C,0.398780*%
%ADD17C,0.600000*%
G04 APERTURE END LIST*
D10*
X11033900Y-3902500D02*
X11034000Y-15905000D01*
X25364948Y-3902456D02*
X25365000Y-13729000D01*
X11351400Y-3585000D02*
X11033900Y-3902500D01*
X11034000Y-15905000D02*
X11986500Y-16857500D01*
X26727350Y-20501892D02*
X27149244Y-20348476D01*
X25365000Y-13729000D02*
X25854860Y-13733300D01*
X25364948Y-3902456D02*
X25048000Y-3585000D01*
X25048000Y-3585000D02*
X11351400Y-3585000D01*
X18910500Y-16857500D02*
X26727350Y-20501892D01*
X11986500Y-16857500D02*
X18910500Y-16857500D01*
X27149244Y-20348476D02*
X29317642Y-15698244D01*
X29163972Y-15276350D02*
X25854860Y-13733300D01*
X29317642Y-15698244D02*
X29163972Y-15276350D01*
D11*
D12*
X23057920Y-3699420D02*
X23207920Y-3849420D01*
X23207920Y-3699420D02*
X23057920Y-3849420D01*
X23057920Y-4399420D02*
X23207920Y-4549420D01*
X23207920Y-4399420D02*
X23057920Y-4549420D01*
X23517920Y-3699420D02*
X23667920Y-3849420D01*
X23667920Y-3699420D02*
X23517920Y-3849420D01*
X23517920Y-4399420D02*
X23667920Y-4549420D01*
X23667920Y-4399420D02*
X23517920Y-4549420D01*
D13*
X12245668Y-8015064D02*
G75*
G03*
X12245668Y-8015064I-147500J0D01*
G01*
X12246008Y-9919374D02*
G75*
G03*
X12246008Y-9919374I-147500J0D01*
G01*
X12246500Y-13728000D02*
G75*
G03*
X12246500Y-13728000I-147500J0D01*
G01*
X12247040Y-11823384D02*
G75*
G03*
X12247040Y-11823384I-147500J0D01*
G01*
X12372668Y-7761064D02*
G75*
G03*
X12372668Y-7761064I-147500J0D01*
G01*
X12373008Y-9665374D02*
G75*
G03*
X12373008Y-9665374I-147500J0D01*
G01*
X12373500Y-13474000D02*
G75*
G03*
X12373500Y-13474000I-147500J0D01*
G01*
X12374040Y-11569384D02*
G75*
G03*
X12374040Y-11569384I-147500J0D01*
G01*
X12722500Y-15633000D02*
G75*
G03*
X12722500Y-15633000I-147500J0D01*
G01*
X12849500Y-15379000D02*
G75*
G03*
X12849500Y-15379000I-147500J0D01*
G01*
X12880668Y-7761064D02*
G75*
G03*
X12880668Y-7761064I-147500J0D01*
G01*
X12881008Y-9665374D02*
G75*
G03*
X12881008Y-9665374I-147500J0D01*
G01*
X12881500Y-13474000D02*
G75*
G03*
X12881500Y-13474000I-147500J0D01*
G01*
X12882040Y-11569384D02*
G75*
G03*
X12882040Y-11569384I-147500J0D01*
G01*
X13007668Y-8015064D02*
G75*
G03*
X13007668Y-8015064I-147500J0D01*
G01*
X13008008Y-9919374D02*
G75*
G03*
X13008008Y-9919374I-147500J0D01*
G01*
X13008500Y-13728000D02*
G75*
G03*
X13008500Y-13728000I-147500J0D01*
G01*
X13009040Y-11823384D02*
G75*
G03*
X13009040Y-11823384I-147500J0D01*
G01*
X13357500Y-15379000D02*
G75*
G03*
X13357500Y-15379000I-147500J0D01*
G01*
X13484500Y-15633000D02*
G75*
G03*
X13484500Y-15633000I-147500J0D01*
G01*
X14626086Y-9920334D02*
G75*
G03*
X14626086Y-9920334I-147500J0D01*
G01*
X14626210Y-8015064D02*
G75*
G03*
X14626210Y-8015064I-147500J0D01*
G01*
X14626500Y-6111364D02*
G75*
G03*
X14626500Y-6111364I-147500J0D01*
G01*
X14626660Y-11824204D02*
G75*
G03*
X14626660Y-11824204I-147500J0D01*
G01*
X14627500Y-13728000D02*
G75*
G03*
X14627500Y-13728000I-147500J0D01*
G01*
X14627500Y-15633000D02*
G75*
G03*
X14627500Y-15633000I-147500J0D01*
G01*
X14753086Y-9666334D02*
G75*
G03*
X14753086Y-9666334I-147500J0D01*
G01*
X14753210Y-7761064D02*
G75*
G03*
X14753210Y-7761064I-147500J0D01*
G01*
X14753500Y-5857364D02*
G75*
G03*
X14753500Y-5857364I-147500J0D01*
G01*
X14753660Y-11570204D02*
G75*
G03*
X14753660Y-11570204I-147500J0D01*
G01*
X14754500Y-13474000D02*
G75*
G03*
X14754500Y-13474000I-147500J0D01*
G01*
X14754500Y-15379000D02*
G75*
G03*
X14754500Y-15379000I-147500J0D01*
G01*
X15261086Y-9666334D02*
G75*
G03*
X15261086Y-9666334I-147500J0D01*
G01*
X15261210Y-7761064D02*
G75*
G03*
X15261210Y-7761064I-147500J0D01*
G01*
X15261500Y-5857364D02*
G75*
G03*
X15261500Y-5857364I-147500J0D01*
G01*
X15261660Y-11570204D02*
G75*
G03*
X15261660Y-11570204I-147500J0D01*
G01*
X15262500Y-13474000D02*
G75*
G03*
X15262500Y-13474000I-147500J0D01*
G01*
X15262500Y-15379000D02*
G75*
G03*
X15262500Y-15379000I-147500J0D01*
G01*
X15388086Y-9920334D02*
G75*
G03*
X15388086Y-9920334I-147500J0D01*
G01*
X15388210Y-8015064D02*
G75*
G03*
X15388210Y-8015064I-147500J0D01*
G01*
X15388500Y-6111364D02*
G75*
G03*
X15388500Y-6111364I-147500J0D01*
G01*
X15388660Y-11824204D02*
G75*
G03*
X15388660Y-11824204I-147500J0D01*
G01*
X15389500Y-13728000D02*
G75*
G03*
X15389500Y-13728000I-147500J0D01*
G01*
X15389500Y-15633000D02*
G75*
G03*
X15389500Y-15633000I-147500J0D01*
G01*
X16530960Y-9600262D02*
G75*
G03*
X16530960Y-9600262I-147500J0D01*
G01*
X16531210Y-7696064D02*
G75*
G03*
X16531210Y-7696064I-147500J0D01*
G01*
X16531500Y-5790704D02*
G75*
G03*
X16531500Y-5790704I-147500J0D01*
G01*
X16532500Y-11505024D02*
G75*
G03*
X16532500Y-11505024I-147500J0D01*
G01*
X16532500Y-13410000D02*
G75*
G03*
X16532500Y-13410000I-147500J0D01*
G01*
X16532500Y-15313000D02*
G75*
G03*
X16532500Y-15313000I-147500J0D01*
G01*
X16657960Y-9346262D02*
G75*
G03*
X16657960Y-9346262I-147500J0D01*
G01*
X16658210Y-7442064D02*
G75*
G03*
X16658210Y-7442064I-147500J0D01*
G01*
X16658500Y-5536704D02*
G75*
G03*
X16658500Y-5536704I-147500J0D01*
G01*
X16659500Y-11251024D02*
G75*
G03*
X16659500Y-11251024I-147500J0D01*
G01*
X16659500Y-13156000D02*
G75*
G03*
X16659500Y-13156000I-147500J0D01*
G01*
X16659500Y-15059000D02*
G75*
G03*
X16659500Y-15059000I-147500J0D01*
G01*
X17165960Y-9346262D02*
G75*
G03*
X17165960Y-9346262I-147500J0D01*
G01*
X17166210Y-7442064D02*
G75*
G03*
X17166210Y-7442064I-147500J0D01*
G01*
X17166500Y-5536704D02*
G75*
G03*
X17166500Y-5536704I-147500J0D01*
G01*
X17167500Y-11251024D02*
G75*
G03*
X17167500Y-11251024I-147500J0D01*
G01*
X17167500Y-13156000D02*
G75*
G03*
X17167500Y-13156000I-147500J0D01*
G01*
X17167500Y-15059000D02*
G75*
G03*
X17167500Y-15059000I-147500J0D01*
G01*
X17292960Y-9600262D02*
G75*
G03*
X17292960Y-9600262I-147500J0D01*
G01*
X17293210Y-7696064D02*
G75*
G03*
X17293210Y-7696064I-147500J0D01*
G01*
X17293500Y-5790704D02*
G75*
G03*
X17293500Y-5790704I-147500J0D01*
G01*
X17294500Y-11505024D02*
G75*
G03*
X17294500Y-11505024I-147500J0D01*
G01*
X17294500Y-13410000D02*
G75*
G03*
X17294500Y-13410000I-147500J0D01*
G01*
X17294500Y-15313000D02*
G75*
G03*
X17294500Y-15313000I-147500J0D01*
G01*
X18435404Y-9439954D02*
G75*
G03*
X18435404Y-9439954I-147500J0D01*
G01*
X18435500Y-5630964D02*
G75*
G03*
X18435500Y-5630964I-147500J0D01*
G01*
X18435770Y-7535508D02*
G75*
G03*
X18435770Y-7535508I-147500J0D01*
G01*
X18437500Y-11344724D02*
G75*
G03*
X18437500Y-11344724I-147500J0D01*
G01*
X18437500Y-13249000D02*
G75*
G03*
X18437500Y-13249000I-147500J0D01*
G01*
X18437500Y-15153000D02*
G75*
G03*
X18437500Y-15153000I-147500J0D01*
G01*
X18562404Y-9185954D02*
G75*
G03*
X18562404Y-9185954I-147500J0D01*
G01*
X18562500Y-5376964D02*
G75*
G03*
X18562500Y-5376964I-147500J0D01*
G01*
X18562770Y-7281508D02*
G75*
G03*
X18562770Y-7281508I-147500J0D01*
G01*
X18564500Y-11090724D02*
G75*
G03*
X18564500Y-11090724I-147500J0D01*
G01*
X18564500Y-12995000D02*
G75*
G03*
X18564500Y-12995000I-147500J0D01*
G01*
X18564500Y-14899000D02*
G75*
G03*
X18564500Y-14899000I-147500J0D01*
G01*
X19070404Y-9185954D02*
G75*
G03*
X19070404Y-9185954I-147500J0D01*
G01*
X19070500Y-5376964D02*
G75*
G03*
X19070500Y-5376964I-147500J0D01*
G01*
X19070770Y-7281508D02*
G75*
G03*
X19070770Y-7281508I-147500J0D01*
G01*
X19072500Y-11090724D02*
G75*
G03*
X19072500Y-11090724I-147500J0D01*
G01*
X19072500Y-12995000D02*
G75*
G03*
X19072500Y-12995000I-147500J0D01*
G01*
X19072500Y-14899000D02*
G75*
G03*
X19072500Y-14899000I-147500J0D01*
G01*
X19197404Y-9439954D02*
G75*
G03*
X19197404Y-9439954I-147500J0D01*
G01*
X19197500Y-5630964D02*
G75*
G03*
X19197500Y-5630964I-147500J0D01*
G01*
X19197770Y-7535508D02*
G75*
G03*
X19197770Y-7535508I-147500J0D01*
G01*
X19199500Y-11344724D02*
G75*
G03*
X19199500Y-11344724I-147500J0D01*
G01*
X19199500Y-13249000D02*
G75*
G03*
X19199500Y-13249000I-147500J0D01*
G01*
X19199500Y-15153000D02*
G75*
G03*
X19199500Y-15153000I-147500J0D01*
G01*
X20339500Y-5789364D02*
G75*
G03*
X20339500Y-5789364I-147500J0D01*
G01*
X20339944Y-9598526D02*
G75*
G03*
X20339944Y-9598526I-147500J0D01*
G01*
X20339960Y-7694742D02*
G75*
G03*
X20339960Y-7694742I-147500J0D01*
G01*
X20342500Y-11503000D02*
G75*
G03*
X20342500Y-11503000I-147500J0D01*
G01*
X20342500Y-13407000D02*
G75*
G03*
X20342500Y-13407000I-147500J0D01*
G01*
X20342500Y-15311000D02*
G75*
G03*
X20342500Y-15311000I-147500J0D01*
G01*
X20466500Y-5535364D02*
G75*
G03*
X20466500Y-5535364I-147500J0D01*
G01*
X20466944Y-9344526D02*
G75*
G03*
X20466944Y-9344526I-147500J0D01*
G01*
X20466960Y-7440742D02*
G75*
G03*
X20466960Y-7440742I-147500J0D01*
G01*
X20469500Y-11249000D02*
G75*
G03*
X20469500Y-11249000I-147500J0D01*
G01*
X20469500Y-13153000D02*
G75*
G03*
X20469500Y-13153000I-147500J0D01*
G01*
X20469500Y-15057000D02*
G75*
G03*
X20469500Y-15057000I-147500J0D01*
G01*
X20974500Y-5535364D02*
G75*
G03*
X20974500Y-5535364I-147500J0D01*
G01*
X20974944Y-9344526D02*
G75*
G03*
X20974944Y-9344526I-147500J0D01*
G01*
X20974960Y-7440742D02*
G75*
G03*
X20974960Y-7440742I-147500J0D01*
G01*
X20977500Y-11249000D02*
G75*
G03*
X20977500Y-11249000I-147500J0D01*
G01*
X20977500Y-13153000D02*
G75*
G03*
X20977500Y-13153000I-147500J0D01*
G01*
X20977500Y-15057000D02*
G75*
G03*
X20977500Y-15057000I-147500J0D01*
G01*
X21101500Y-5789364D02*
G75*
G03*
X21101500Y-5789364I-147500J0D01*
G01*
X21101944Y-9598526D02*
G75*
G03*
X21101944Y-9598526I-147500J0D01*
G01*
X21101960Y-7694742D02*
G75*
G03*
X21101960Y-7694742I-147500J0D01*
G01*
X21104500Y-11503000D02*
G75*
G03*
X21104500Y-11503000I-147500J0D01*
G01*
X21104500Y-13407000D02*
G75*
G03*
X21104500Y-13407000I-147500J0D01*
G01*
X21104500Y-15311000D02*
G75*
G03*
X21104500Y-15311000I-147500J0D01*
G01*
X22243260Y-9729604D02*
G75*
G03*
X22243260Y-9729604I-147500J0D01*
G01*
X22243275Y-5919364D02*
G75*
G03*
X22243275Y-5919364I-147500J0D01*
G01*
X22247500Y-7824352D02*
G75*
G03*
X22247500Y-7824352I-147500J0D01*
G01*
X22247500Y-11634084D02*
G75*
G03*
X22247500Y-11634084I-147500J0D01*
G01*
X22247500Y-13537000D02*
G75*
G03*
X22247500Y-13537000I-147500J0D01*
G01*
X22370260Y-9475604D02*
G75*
G03*
X22370260Y-9475604I-147500J0D01*
G01*
X22370275Y-5665364D02*
G75*
G03*
X22370275Y-5665364I-147500J0D01*
G01*
X22374500Y-7570352D02*
G75*
G03*
X22374500Y-7570352I-147500J0D01*
G01*
X22374500Y-11380084D02*
G75*
G03*
X22374500Y-11380084I-147500J0D01*
G01*
X22374500Y-13283000D02*
G75*
G03*
X22374500Y-13283000I-147500J0D01*
G01*
X22878260Y-9475604D02*
G75*
G03*
X22878260Y-9475604I-147500J0D01*
G01*
X22878275Y-5665364D02*
G75*
G03*
X22878275Y-5665364I-147500J0D01*
G01*
X22882500Y-7570352D02*
G75*
G03*
X22882500Y-7570352I-147500J0D01*
G01*
X22882500Y-11380084D02*
G75*
G03*
X22882500Y-11380084I-147500J0D01*
G01*
X22882500Y-13283000D02*
G75*
G03*
X22882500Y-13283000I-147500J0D01*
G01*
X23005260Y-9729604D02*
G75*
G03*
X23005260Y-9729604I-147500J0D01*
G01*
X23005275Y-5919364D02*
G75*
G03*
X23005275Y-5919364I-147500J0D01*
G01*
X23009500Y-7824352D02*
G75*
G03*
X23009500Y-7824352I-147500J0D01*
G01*
X23009500Y-11634084D02*
G75*
G03*
X23009500Y-11634084I-147500J0D01*
G01*
X23009500Y-13537000D02*
G75*
G03*
X23009500Y-13537000I-147500J0D01*
G01*
X23074994Y-16886353D02*
G75*
G03*
X23074994Y-16886353I-147500J0D01*
G01*
X23251524Y-17108799D02*
G75*
G03*
X23251524Y-17108799I-147500J0D01*
G01*
X23289684Y-16425948D02*
G75*
G03*
X23289684Y-16425948I-147500J0D01*
G01*
X23573559Y-16418192D02*
G75*
G03*
X23573559Y-16418192I-147500J0D01*
G01*
X24152500Y-5919564D02*
G75*
G03*
X24152500Y-5919564I-147500J0D01*
G01*
X24152500Y-7823594D02*
G75*
G03*
X24152500Y-7823594I-147500J0D01*
G01*
X24152500Y-10205564D02*
G75*
G03*
X24152500Y-10205564I-147500J0D01*
G01*
X24152500Y-13061000D02*
G75*
G03*
X24152500Y-13061000I-147500J0D01*
G01*
X24279500Y-5665564D02*
G75*
G03*
X24279500Y-5665564I-147500J0D01*
G01*
X24279500Y-7569594D02*
G75*
G03*
X24279500Y-7569594I-147500J0D01*
G01*
X24279500Y-9951564D02*
G75*
G03*
X24279500Y-9951564I-147500J0D01*
G01*
X24279500Y-12807000D02*
G75*
G03*
X24279500Y-12807000I-147500J0D01*
G01*
X24787500Y-5665564D02*
G75*
G03*
X24787500Y-5665564I-147500J0D01*
G01*
X24787500Y-7569594D02*
G75*
G03*
X24787500Y-7569594I-147500J0D01*
G01*
X24787500Y-9951564D02*
G75*
G03*
X24787500Y-9951564I-147500J0D01*
G01*
X24787500Y-12807000D02*
G75*
G03*
X24787500Y-12807000I-147500J0D01*
G01*
X24802059Y-17688171D02*
G75*
G03*
X24802059Y-17688171I-147500J0D01*
G01*
X24914500Y-5919564D02*
G75*
G03*
X24914500Y-5919564I-147500J0D01*
G01*
X24914500Y-7823594D02*
G75*
G03*
X24914500Y-7823594I-147500J0D01*
G01*
X24914500Y-10205564D02*
G75*
G03*
X24914500Y-10205564I-147500J0D01*
G01*
X24914500Y-13061000D02*
G75*
G03*
X24914500Y-13061000I-147500J0D01*
G01*
X24978588Y-17910617D02*
G75*
G03*
X24978588Y-17910617I-147500J0D01*
G01*
X25016749Y-17227767D02*
G75*
G03*
X25016749Y-17227767I-147500J0D01*
G01*
X25300623Y-17220011D02*
G75*
G03*
X25300623Y-17220011I-147500J0D01*
G01*
X26007240Y-15105152D02*
G75*
G03*
X26007240Y-15105152I-147500J0D01*
G01*
X26124846Y-19360631D02*
G75*
G03*
X26124846Y-19360631I-147500J0D01*
G01*
X26183770Y-15327598D02*
G75*
G03*
X26183770Y-15327598I-147500J0D01*
G01*
X26221930Y-14644747D02*
G75*
G03*
X26221930Y-14644747I-147500J0D01*
G01*
X26301375Y-19583077D02*
G75*
G03*
X26301375Y-19583077I-147500J0D01*
G01*
X26339536Y-18900227D02*
G75*
G03*
X26339536Y-18900227I-147500J0D01*
G01*
X26505805Y-14636991D02*
G75*
G03*
X26505805Y-14636991I-147500J0D01*
G01*
X26623410Y-18892471D02*
G75*
G03*
X26623410Y-18892471I-147500J0D01*
G01*
X26928131Y-17636668D02*
G75*
G03*
X26928131Y-17636668I-147500J0D01*
G01*
X27104661Y-17859114D02*
G75*
G03*
X27104661Y-17859114I-147500J0D01*
G01*
X27142821Y-17176263D02*
G75*
G03*
X27142821Y-17176263I-147500J0D01*
G01*
X27426696Y-17168507D02*
G75*
G03*
X27426696Y-17168507I-147500J0D01*
G01*
X28370153Y-16347288D02*
G75*
G03*
X28370153Y-16347288I-147500J0D01*
G01*
X28654027Y-16339532D02*
G75*
G03*
X28654027Y-16339532I-147500J0D01*
G01*
X28692188Y-15656681D02*
G75*
G03*
X28692188Y-15656681I-147500J0D01*
G01*
X28868718Y-15879127D02*
G75*
G03*
X28868718Y-15879127I-147500J0D01*
G01*
D14*
X23623778Y-18095590D02*
X23623778Y-18400390D01*
X23471378Y-18247990D02*
X23776178Y-18247990D01*
X24084730Y-18307010D02*
X24084730Y-18611810D01*
X23932330Y-18459410D02*
X24237130Y-18459410D01*
X24632821Y-15931689D02*
X24632821Y-16236489D01*
X24480421Y-16084089D02*
X24785221Y-16084089D01*
X25093774Y-16143110D02*
X25093774Y-16447910D01*
X24941374Y-16295510D02*
X25246174Y-16295510D01*
D15*
X12619890Y-8409786D02*
X12619890Y-8128342D01*
X12338446Y-8128342D01*
X12338446Y-8409786D01*
X12619890Y-8409786D01*
X12620230Y-10314096D02*
X12620230Y-10032652D01*
X12338786Y-10032652D01*
X12338786Y-10314096D01*
X12620230Y-10314096D01*
X12620722Y-14122722D02*
X12620722Y-13841278D01*
X12339278Y-13841278D01*
X12339278Y-14122722D01*
X12620722Y-14122722D01*
X12621262Y-12218106D02*
X12621262Y-11936662D01*
X12339818Y-11936662D01*
X12339818Y-12218106D01*
X12621262Y-12218106D01*
X13096722Y-16027722D02*
X13096722Y-15746278D01*
X12815278Y-15746278D01*
X12815278Y-16027722D01*
X13096722Y-16027722D01*
X15000308Y-10315056D02*
X15000308Y-10033612D01*
X14718864Y-10033612D01*
X14718864Y-10315056D01*
X15000308Y-10315056D01*
X15000432Y-8409786D02*
X15000432Y-8128342D01*
X14718988Y-8128342D01*
X14718988Y-8409786D01*
X15000432Y-8409786D01*
X15000722Y-6506086D02*
X15000722Y-6224642D01*
X14719278Y-6224642D01*
X14719278Y-6506086D01*
X15000722Y-6506086D01*
X15000882Y-12218926D02*
X15000882Y-11937482D01*
X14719438Y-11937482D01*
X14719438Y-12218926D01*
X15000882Y-12218926D01*
X15001722Y-14122722D02*
X15001722Y-13841278D01*
X14720278Y-13841278D01*
X14720278Y-14122722D01*
X15001722Y-14122722D01*
X15001722Y-16027722D02*
X15001722Y-15746278D01*
X14720278Y-15746278D01*
X14720278Y-16027722D01*
X15001722Y-16027722D01*
X16905182Y-9994984D02*
X16905182Y-9713540D01*
X16623738Y-9713540D01*
X16623738Y-9994984D01*
X16905182Y-9994984D01*
X16905432Y-8090786D02*
X16905432Y-7809342D01*
X16623988Y-7809342D01*
X16623988Y-8090786D01*
X16905432Y-8090786D01*
X16905722Y-6185426D02*
X16905722Y-5903982D01*
X16624278Y-5903982D01*
X16624278Y-6185426D01*
X16905722Y-6185426D01*
X16906722Y-11899746D02*
X16906722Y-11618302D01*
X16625278Y-11618302D01*
X16625278Y-11899746D01*
X16906722Y-11899746D01*
X16906722Y-13804722D02*
X16906722Y-13523278D01*
X16625278Y-13523278D01*
X16625278Y-13804722D01*
X16906722Y-13804722D01*
X16906722Y-15707722D02*
X16906722Y-15426278D01*
X16625278Y-15426278D01*
X16625278Y-15707722D01*
X16906722Y-15707722D01*
X18809626Y-9834676D02*
X18809626Y-9553232D01*
X18528182Y-9553232D01*
X18528182Y-9834676D01*
X18809626Y-9834676D01*
X18809722Y-6025686D02*
X18809722Y-5744242D01*
X18528278Y-5744242D01*
X18528278Y-6025686D01*
X18809722Y-6025686D01*
X18809992Y-7930230D02*
X18809992Y-7648786D01*
X18528548Y-7648786D01*
X18528548Y-7930230D01*
X18809992Y-7930230D01*
X18811722Y-11739446D02*
X18811722Y-11458002D01*
X18530278Y-11458002D01*
X18530278Y-11739446D01*
X18811722Y-11739446D01*
X18811722Y-13643722D02*
X18811722Y-13362278D01*
X18530278Y-13362278D01*
X18530278Y-13643722D01*
X18811722Y-13643722D01*
X18811722Y-15547722D02*
X18811722Y-15266278D01*
X18530278Y-15266278D01*
X18530278Y-15547722D01*
X18811722Y-15547722D01*
X20713722Y-6184086D02*
X20713722Y-5902642D01*
X20432278Y-5902642D01*
X20432278Y-6184086D01*
X20713722Y-6184086D01*
X20714166Y-9993248D02*
X20714166Y-9711804D01*
X20432722Y-9711804D01*
X20432722Y-9993248D01*
X20714166Y-9993248D01*
X20714182Y-8089464D02*
X20714182Y-7808020D01*
X20432738Y-7808020D01*
X20432738Y-8089464D01*
X20714182Y-8089464D01*
X20716722Y-11897722D02*
X20716722Y-11616278D01*
X20435278Y-11616278D01*
X20435278Y-11897722D01*
X20716722Y-11897722D01*
X20716722Y-13801722D02*
X20716722Y-13520278D01*
X20435278Y-13520278D01*
X20435278Y-13801722D01*
X20716722Y-13801722D01*
X20716722Y-15705722D02*
X20716722Y-15424278D01*
X20435278Y-15424278D01*
X20435278Y-15705722D01*
X20716722Y-15705722D01*
X22617482Y-10124326D02*
X22617482Y-9842882D01*
X22336038Y-9842882D01*
X22336038Y-10124326D01*
X22617482Y-10124326D01*
X22617497Y-6314086D02*
X22617497Y-6032642D01*
X22336053Y-6032642D01*
X22336053Y-6314086D01*
X22617497Y-6314086D01*
X22621722Y-8219074D02*
X22621722Y-7937630D01*
X22340278Y-7937630D01*
X22340278Y-8219074D01*
X22621722Y-8219074D01*
X22621722Y-12028806D02*
X22621722Y-11747362D01*
X22340278Y-11747362D01*
X22340278Y-12028806D01*
X22621722Y-12028806D01*
X22621722Y-13931722D02*
X22621722Y-13650278D01*
X22340278Y-13650278D01*
X22340278Y-13931722D01*
X22621722Y-13931722D01*
X23635966Y-17011563D02*
X23635966Y-16730119D01*
X23354522Y-16730119D01*
X23354522Y-17011563D01*
X23635966Y-17011563D01*
X24526722Y-6314286D02*
X24526722Y-6032842D01*
X24245278Y-6032842D01*
X24245278Y-6314286D01*
X24526722Y-6314286D01*
X24526722Y-8218316D02*
X24526722Y-7936872D01*
X24245278Y-7936872D01*
X24245278Y-8218316D01*
X24526722Y-8218316D01*
X24526722Y-10600286D02*
X24526722Y-10318842D01*
X24245278Y-10318842D01*
X24245278Y-10600286D01*
X24526722Y-10600286D01*
X24526722Y-13455722D02*
X24526722Y-13174278D01*
X24245278Y-13174278D01*
X24245278Y-13455722D01*
X24526722Y-13455722D01*
X25363030Y-17813381D02*
X25363030Y-17531937D01*
X25081586Y-17531937D01*
X25081586Y-17813381D01*
X25363030Y-17813381D01*
X26568211Y-15230362D02*
X26568211Y-14948918D01*
X26286767Y-14948918D01*
X26286767Y-15230362D01*
X26568211Y-15230362D01*
X26685817Y-19485841D02*
X26685817Y-19204397D01*
X26404373Y-19204397D01*
X26404373Y-19485841D01*
X26685817Y-19485841D01*
X27489102Y-17761878D02*
X27489102Y-17480434D01*
X27207658Y-17480434D01*
X27207658Y-17761878D01*
X27489102Y-17761878D01*
X28294190Y-16035361D02*
X28294190Y-15753917D01*
X28012746Y-15753917D01*
X28012746Y-16035361D01*
X28294190Y-16035361D01*
D16*
X22242565Y-17803310D02*
X22441955Y-17603920D01*
X22242565Y-17404530D01*
X22043175Y-17603920D01*
X22242565Y-17803310D01*
X23251608Y-15639409D02*
X23450998Y-15440019D01*
X23251608Y-15240629D01*
X23052218Y-15440019D01*
X23251608Y-15639409D01*
X25465943Y-19302870D02*
X25665333Y-19103480D01*
X25465943Y-18904090D01*
X25266553Y-19103480D01*
X25465943Y-19302870D01*
X26474987Y-17138970D02*
X26674377Y-16939580D01*
X26474987Y-16740190D01*
X26275597Y-16939580D01*
X26474987Y-17138970D01*
D17*
X11147997Y-15274708D02*
X11747997Y-15874708D01*
X11747997Y-15274708D02*
X11147997Y-15874708D01*
X11747997Y-15574708D02*
G75*
G03*
X11747997Y-15574708I-300000J0D01*
G01*
X11228298Y-3803624D02*
X11828298Y-4403624D01*
X11828298Y-3803624D02*
X11228298Y-4403624D01*
X11828298Y-4103624D02*
G75*
G03*
X11828298Y-4103624I-300000J0D01*
G01*
X17900238Y-3797688D02*
X18500238Y-4397688D01*
X18500238Y-3797688D02*
X17900238Y-4397688D01*
X18500238Y-4097688D02*
G75*
G03*
X18500238Y-4097688I-300000J0D01*
G01*
X20784275Y-17037567D02*
X21384275Y-17637567D01*
X21384275Y-17037567D02*
X20784275Y-17637567D01*
X21384275Y-17337567D02*
G75*
G03*
X21384275Y-17337567I-300000J0D01*
G01*
X24484558Y-3865092D02*
X25084558Y-4465092D01*
X25084558Y-3865092D02*
X24484558Y-4465092D01*
X25084558Y-4165092D02*
G75*
G03*
X25084558Y-4165092I-300000J0D01*
G01*
X25358012Y-13433216D02*
X25958012Y-14033216D01*
X25958012Y-13433216D02*
X25358012Y-14033216D01*
X25958012Y-13733216D02*
G75*
G03*
X25958012Y-13733216I-300000J0D01*
G01*
D11*
X11262469Y-20814418D02*
X11262469Y-20614418D01*
X11262469Y-20614418D02*
X11310088Y-20614418D01*
X11310088Y-20614418D02*
X11338659Y-20623942D01*
X11338659Y-20623942D02*
X11357707Y-20642990D01*
X11357707Y-20642990D02*
X11367231Y-20662037D01*
X11367231Y-20662037D02*
X11376755Y-20700132D01*
X11376755Y-20700132D02*
X11376755Y-20728704D01*
X11376755Y-20728704D02*
X11367231Y-20766799D01*
X11367231Y-20766799D02*
X11357707Y-20785847D01*
X11357707Y-20785847D02*
X11338659Y-20804894D01*
X11338659Y-20804894D02*
X11310088Y-20814418D01*
X11310088Y-20814418D02*
X11262469Y-20814418D01*
X11462469Y-20814418D02*
X11462469Y-20681085D01*
X11462469Y-20719180D02*
X11471993Y-20700132D01*
X11471993Y-20700132D02*
X11481517Y-20690609D01*
X11481517Y-20690609D02*
X11500564Y-20681085D01*
X11500564Y-20681085D02*
X11519612Y-20681085D01*
X11586278Y-20814418D02*
X11586278Y-20681085D01*
X11586278Y-20614418D02*
X11576755Y-20623942D01*
X11576755Y-20623942D02*
X11586278Y-20633466D01*
X11586278Y-20633466D02*
X11595802Y-20623942D01*
X11595802Y-20623942D02*
X11586278Y-20614418D01*
X11586278Y-20614418D02*
X11586278Y-20633466D01*
X11710088Y-20814418D02*
X11691040Y-20804894D01*
X11691040Y-20804894D02*
X11681517Y-20785847D01*
X11681517Y-20785847D02*
X11681517Y-20614418D01*
X11814850Y-20814418D02*
X11795802Y-20804894D01*
X11795802Y-20804894D02*
X11786278Y-20785847D01*
X11786278Y-20785847D02*
X11786278Y-20614418D01*
X12011040Y-20814418D02*
X12011040Y-20614418D01*
X12011040Y-20614418D02*
X12077707Y-20757275D01*
X12077707Y-20757275D02*
X12144374Y-20614418D01*
X12144374Y-20614418D02*
X12144374Y-20814418D01*
X12325326Y-20814418D02*
X12325326Y-20709656D01*
X12325326Y-20709656D02*
X12315802Y-20690609D01*
X12315802Y-20690609D02*
X12296755Y-20681085D01*
X12296755Y-20681085D02*
X12258659Y-20681085D01*
X12258659Y-20681085D02*
X12239612Y-20690609D01*
X12325326Y-20804894D02*
X12306278Y-20814418D01*
X12306278Y-20814418D02*
X12258659Y-20814418D01*
X12258659Y-20814418D02*
X12239612Y-20804894D01*
X12239612Y-20804894D02*
X12230088Y-20785847D01*
X12230088Y-20785847D02*
X12230088Y-20766799D01*
X12230088Y-20766799D02*
X12239612Y-20747752D01*
X12239612Y-20747752D02*
X12258659Y-20738228D01*
X12258659Y-20738228D02*
X12306278Y-20738228D01*
X12306278Y-20738228D02*
X12325326Y-20728704D01*
X12420564Y-20681085D02*
X12420564Y-20881085D01*
X12420564Y-20690609D02*
X12439612Y-20681085D01*
X12439612Y-20681085D02*
X12477707Y-20681085D01*
X12477707Y-20681085D02*
X12496755Y-20690609D01*
X12496755Y-20690609D02*
X12506278Y-20700132D01*
X12506278Y-20700132D02*
X12515802Y-20719180D01*
X12515802Y-20719180D02*
X12515802Y-20776323D01*
X12515802Y-20776323D02*
X12506278Y-20795371D01*
X12506278Y-20795371D02*
X12496755Y-20804894D01*
X12496755Y-20804894D02*
X12477707Y-20814418D01*
X12477707Y-20814418D02*
X12439612Y-20814418D01*
X12439612Y-20814418D02*
X12420564Y-20804894D01*
X12601517Y-20795371D02*
X12611040Y-20804894D01*
X12611040Y-20804894D02*
X12601517Y-20814418D01*
X12601517Y-20814418D02*
X12591993Y-20804894D01*
X12591993Y-20804894D02*
X12601517Y-20795371D01*
X12601517Y-20795371D02*
X12601517Y-20814418D01*
X12601517Y-20690609D02*
X12611040Y-20700132D01*
X12611040Y-20700132D02*
X12601517Y-20709656D01*
X12601517Y-20709656D02*
X12591993Y-20700132D01*
X12591993Y-20700132D02*
X12601517Y-20690609D01*
X12601517Y-20690609D02*
X12601517Y-20709656D01*
D12*
X10864850Y-21085942D02*
X11014850Y-21235942D01*
X11014850Y-21085942D02*
X10864850Y-21235942D01*
D11*
X11367231Y-21234418D02*
X11252945Y-21234418D01*
X11310088Y-21234418D02*
X11310088Y-21034418D01*
X11310088Y-21034418D02*
X11291040Y-21062990D01*
X11291040Y-21062990D02*
X11271993Y-21082037D01*
X11271993Y-21082037D02*
X11252945Y-21091561D01*
X11452945Y-21215371D02*
X11462469Y-21224894D01*
X11462469Y-21224894D02*
X11452945Y-21234418D01*
X11452945Y-21234418D02*
X11443421Y-21224894D01*
X11443421Y-21224894D02*
X11452945Y-21215371D01*
X11452945Y-21215371D02*
X11452945Y-21234418D01*
X11643421Y-21034418D02*
X11548183Y-21034418D01*
X11548183Y-21034418D02*
X11538659Y-21129656D01*
X11538659Y-21129656D02*
X11548183Y-21120132D01*
X11548183Y-21120132D02*
X11567231Y-21110609D01*
X11567231Y-21110609D02*
X11614850Y-21110609D01*
X11614850Y-21110609D02*
X11633898Y-21120132D01*
X11633898Y-21120132D02*
X11643421Y-21129656D01*
X11643421Y-21129656D02*
X11652945Y-21148704D01*
X11652945Y-21148704D02*
X11652945Y-21196323D01*
X11652945Y-21196323D02*
X11643421Y-21215371D01*
X11643421Y-21215371D02*
X11633898Y-21224894D01*
X11633898Y-21224894D02*
X11614850Y-21234418D01*
X11614850Y-21234418D02*
X11567231Y-21234418D01*
X11567231Y-21234418D02*
X11548183Y-21224894D01*
X11548183Y-21224894D02*
X11538659Y-21215371D01*
X11776755Y-21034418D02*
X11795802Y-21034418D01*
X11795802Y-21034418D02*
X11814850Y-21043942D01*
X11814850Y-21043942D02*
X11824374Y-21053466D01*
X11824374Y-21053466D02*
X11833898Y-21072513D01*
X11833898Y-21072513D02*
X11843421Y-21110609D01*
X11843421Y-21110609D02*
X11843421Y-21158228D01*
X11843421Y-21158228D02*
X11833898Y-21196323D01*
X11833898Y-21196323D02*
X11824374Y-21215371D01*
X11824374Y-21215371D02*
X11814850Y-21224894D01*
X11814850Y-21224894D02*
X11795802Y-21234418D01*
X11795802Y-21234418D02*
X11776755Y-21234418D01*
X11776755Y-21234418D02*
X11757707Y-21224894D01*
X11757707Y-21224894D02*
X11748183Y-21215371D01*
X11748183Y-21215371D02*
X11738659Y-21196323D01*
X11738659Y-21196323D02*
X11729136Y-21158228D01*
X11729136Y-21158228D02*
X11729136Y-21110609D01*
X11729136Y-21110609D02*
X11738659Y-21072513D01*
X11738659Y-21072513D02*
X11748183Y-21053466D01*
X11748183Y-21053466D02*
X11757707Y-21043942D01*
X11757707Y-21043942D02*
X11776755Y-21034418D01*
X11967231Y-21034418D02*
X11986279Y-21034418D01*
X11986279Y-21034418D02*
X12005326Y-21043942D01*
X12005326Y-21043942D02*
X12014850Y-21053466D01*
X12014850Y-21053466D02*
X12024374Y-21072513D01*
X12024374Y-21072513D02*
X12033898Y-21110609D01*
X12033898Y-21110609D02*
X12033898Y-21158228D01*
X12033898Y-21158228D02*
X12024374Y-21196323D01*
X12024374Y-21196323D02*
X12014850Y-21215371D01*
X12014850Y-21215371D02*
X12005326Y-21224894D01*
X12005326Y-21224894D02*
X11986279Y-21234418D01*
X11986279Y-21234418D02*
X11967231Y-21234418D01*
X11967231Y-21234418D02*
X11948183Y-21224894D01*
X11948183Y-21224894D02*
X11938659Y-21215371D01*
X11938659Y-21215371D02*
X11929136Y-21196323D01*
X11929136Y-21196323D02*
X11919612Y-21158228D01*
X11919612Y-21158228D02*
X11919612Y-21110609D01*
X11919612Y-21110609D02*
X11929136Y-21072513D01*
X11929136Y-21072513D02*
X11938659Y-21053466D01*
X11938659Y-21053466D02*
X11948183Y-21043942D01*
X11948183Y-21043942D02*
X11967231Y-21034418D01*
X12119612Y-21234418D02*
X12119612Y-21101085D01*
X12119612Y-21120132D02*
X12129136Y-21110609D01*
X12129136Y-21110609D02*
X12148183Y-21101085D01*
X12148183Y-21101085D02*
X12176755Y-21101085D01*
X12176755Y-21101085D02*
X12195802Y-21110609D01*
X12195802Y-21110609D02*
X12205326Y-21129656D01*
X12205326Y-21129656D02*
X12205326Y-21234418D01*
X12205326Y-21129656D02*
X12214850Y-21110609D01*
X12214850Y-21110609D02*
X12233898Y-21101085D01*
X12233898Y-21101085D02*
X12262469Y-21101085D01*
X12262469Y-21101085D02*
X12281517Y-21110609D01*
X12281517Y-21110609D02*
X12291040Y-21129656D01*
X12291040Y-21129656D02*
X12291040Y-21234418D01*
X12386279Y-21234418D02*
X12386279Y-21101085D01*
X12386279Y-21120132D02*
X12395802Y-21110609D01*
X12395802Y-21110609D02*
X12414850Y-21101085D01*
X12414850Y-21101085D02*
X12443421Y-21101085D01*
X12443421Y-21101085D02*
X12462469Y-21110609D01*
X12462469Y-21110609D02*
X12471993Y-21129656D01*
X12471993Y-21129656D02*
X12471993Y-21234418D01*
X12471993Y-21129656D02*
X12481517Y-21110609D01*
X12481517Y-21110609D02*
X12500564Y-21101085D01*
X12500564Y-21101085D02*
X12529136Y-21101085D01*
X12529136Y-21101085D02*
X12548183Y-21110609D01*
X12548183Y-21110609D02*
X12557707Y-21129656D01*
X12557707Y-21129656D02*
X12557707Y-21234418D01*
X12915802Y-21024894D02*
X12744374Y-21282037D01*
X13140564Y-21034418D02*
X13159612Y-21034418D01*
X13159612Y-21034418D02*
X13178660Y-21043942D01*
X13178660Y-21043942D02*
X13188183Y-21053466D01*
X13188183Y-21053466D02*
X13197707Y-21072513D01*
X13197707Y-21072513D02*
X13207231Y-21110609D01*
X13207231Y-21110609D02*
X13207231Y-21158228D01*
X13207231Y-21158228D02*
X13197707Y-21196323D01*
X13197707Y-21196323D02*
X13188183Y-21215371D01*
X13188183Y-21215371D02*
X13178660Y-21224894D01*
X13178660Y-21224894D02*
X13159612Y-21234418D01*
X13159612Y-21234418D02*
X13140564Y-21234418D01*
X13140564Y-21234418D02*
X13121517Y-21224894D01*
X13121517Y-21224894D02*
X13111993Y-21215371D01*
X13111993Y-21215371D02*
X13102469Y-21196323D01*
X13102469Y-21196323D02*
X13092945Y-21158228D01*
X13092945Y-21158228D02*
X13092945Y-21110609D01*
X13092945Y-21110609D02*
X13102469Y-21072513D01*
X13102469Y-21072513D02*
X13111993Y-21053466D01*
X13111993Y-21053466D02*
X13121517Y-21043942D01*
X13121517Y-21043942D02*
X13140564Y-21034418D01*
X13292945Y-21215371D02*
X13302469Y-21224894D01*
X13302469Y-21224894D02*
X13292945Y-21234418D01*
X13292945Y-21234418D02*
X13283421Y-21224894D01*
X13283421Y-21224894D02*
X13292945Y-21215371D01*
X13292945Y-21215371D02*
X13292945Y-21234418D01*
X13426279Y-21034418D02*
X13445326Y-21034418D01*
X13445326Y-21034418D02*
X13464374Y-21043942D01*
X13464374Y-21043942D02*
X13473898Y-21053466D01*
X13473898Y-21053466D02*
X13483421Y-21072513D01*
X13483421Y-21072513D02*
X13492945Y-21110609D01*
X13492945Y-21110609D02*
X13492945Y-21158228D01*
X13492945Y-21158228D02*
X13483421Y-21196323D01*
X13483421Y-21196323D02*
X13473898Y-21215371D01*
X13473898Y-21215371D02*
X13464374Y-21224894D01*
X13464374Y-21224894D02*
X13445326Y-21234418D01*
X13445326Y-21234418D02*
X13426279Y-21234418D01*
X13426279Y-21234418D02*
X13407231Y-21224894D01*
X13407231Y-21224894D02*
X13397707Y-21215371D01*
X13397707Y-21215371D02*
X13388183Y-21196323D01*
X13388183Y-21196323D02*
X13378660Y-21158228D01*
X13378660Y-21158228D02*
X13378660Y-21110609D01*
X13378660Y-21110609D02*
X13388183Y-21072513D01*
X13388183Y-21072513D02*
X13397707Y-21053466D01*
X13397707Y-21053466D02*
X13407231Y-21043942D01*
X13407231Y-21043942D02*
X13426279Y-21034418D01*
X13673898Y-21034418D02*
X13578660Y-21034418D01*
X13578660Y-21034418D02*
X13569136Y-21129656D01*
X13569136Y-21129656D02*
X13578660Y-21120132D01*
X13578660Y-21120132D02*
X13597707Y-21110609D01*
X13597707Y-21110609D02*
X13645326Y-21110609D01*
X13645326Y-21110609D02*
X13664374Y-21120132D01*
X13664374Y-21120132D02*
X13673898Y-21129656D01*
X13673898Y-21129656D02*
X13683421Y-21148704D01*
X13683421Y-21148704D02*
X13683421Y-21196323D01*
X13683421Y-21196323D02*
X13673898Y-21215371D01*
X13673898Y-21215371D02*
X13664374Y-21224894D01*
X13664374Y-21224894D02*
X13645326Y-21234418D01*
X13645326Y-21234418D02*
X13597707Y-21234418D01*
X13597707Y-21234418D02*
X13578660Y-21224894D01*
X13578660Y-21224894D02*
X13569136Y-21215371D01*
X13778660Y-21234418D02*
X13816755Y-21234418D01*
X13816755Y-21234418D02*
X13835802Y-21224894D01*
X13835802Y-21224894D02*
X13845326Y-21215371D01*
X13845326Y-21215371D02*
X13864374Y-21186799D01*
X13864374Y-21186799D02*
X13873898Y-21148704D01*
X13873898Y-21148704D02*
X13873898Y-21072513D01*
X13873898Y-21072513D02*
X13864374Y-21053466D01*
X13864374Y-21053466D02*
X13854850Y-21043942D01*
X13854850Y-21043942D02*
X13835802Y-21034418D01*
X13835802Y-21034418D02*
X13797707Y-21034418D01*
X13797707Y-21034418D02*
X13778660Y-21043942D01*
X13778660Y-21043942D02*
X13769136Y-21053466D01*
X13769136Y-21053466D02*
X13759612Y-21072513D01*
X13759612Y-21072513D02*
X13759612Y-21120132D01*
X13759612Y-21120132D02*
X13769136Y-21139180D01*
X13769136Y-21139180D02*
X13778660Y-21148704D01*
X13778660Y-21148704D02*
X13797707Y-21158228D01*
X13797707Y-21158228D02*
X13835802Y-21158228D01*
X13835802Y-21158228D02*
X13854850Y-21148704D01*
X13854850Y-21148704D02*
X13864374Y-21139180D01*
X13864374Y-21139180D02*
X13873898Y-21120132D01*
X14064374Y-21234418D02*
X13950088Y-21234418D01*
X14007231Y-21234418D02*
X14007231Y-21034418D01*
X14007231Y-21034418D02*
X13988183Y-21062990D01*
X13988183Y-21062990D02*
X13969136Y-21082037D01*
X13969136Y-21082037D02*
X13950088Y-21091561D01*
X14140564Y-21034418D02*
X14140564Y-21072513D01*
X14216755Y-21034418D02*
X14216755Y-21072513D01*
X14479612Y-21310609D02*
X14470088Y-21301085D01*
X14470088Y-21301085D02*
X14451041Y-21272513D01*
X14451041Y-21272513D02*
X14441517Y-21253466D01*
X14441517Y-21253466D02*
X14431993Y-21224894D01*
X14431993Y-21224894D02*
X14422469Y-21177275D01*
X14422469Y-21177275D02*
X14422469Y-21139180D01*
X14422469Y-21139180D02*
X14431993Y-21091561D01*
X14431993Y-21091561D02*
X14441517Y-21062990D01*
X14441517Y-21062990D02*
X14451041Y-21043942D01*
X14451041Y-21043942D02*
X14470088Y-21015371D01*
X14470088Y-21015371D02*
X14479612Y-21005847D01*
X14641517Y-21101085D02*
X14641517Y-21234418D01*
X14593898Y-21024894D02*
X14546279Y-21167752D01*
X14546279Y-21167752D02*
X14670088Y-21167752D01*
X14866279Y-21234418D02*
X14866279Y-21034418D01*
X14951993Y-21234418D02*
X14951993Y-21129656D01*
X14951993Y-21129656D02*
X14942469Y-21110609D01*
X14942469Y-21110609D02*
X14923422Y-21101085D01*
X14923422Y-21101085D02*
X14894850Y-21101085D01*
X14894850Y-21101085D02*
X14875802Y-21110609D01*
X14875802Y-21110609D02*
X14866279Y-21120132D01*
X15075802Y-21234418D02*
X15056755Y-21224894D01*
X15056755Y-21224894D02*
X15047231Y-21215371D01*
X15047231Y-21215371D02*
X15037707Y-21196323D01*
X15037707Y-21196323D02*
X15037707Y-21139180D01*
X15037707Y-21139180D02*
X15047231Y-21120132D01*
X15047231Y-21120132D02*
X15056755Y-21110609D01*
X15056755Y-21110609D02*
X15075802Y-21101085D01*
X15075802Y-21101085D02*
X15104374Y-21101085D01*
X15104374Y-21101085D02*
X15123422Y-21110609D01*
X15123422Y-21110609D02*
X15132945Y-21120132D01*
X15132945Y-21120132D02*
X15142469Y-21139180D01*
X15142469Y-21139180D02*
X15142469Y-21196323D01*
X15142469Y-21196323D02*
X15132945Y-21215371D01*
X15132945Y-21215371D02*
X15123422Y-21224894D01*
X15123422Y-21224894D02*
X15104374Y-21234418D01*
X15104374Y-21234418D02*
X15075802Y-21234418D01*
X15256755Y-21234418D02*
X15237707Y-21224894D01*
X15237707Y-21224894D02*
X15228183Y-21205847D01*
X15228183Y-21205847D02*
X15228183Y-21034418D01*
X15409136Y-21224894D02*
X15390088Y-21234418D01*
X15390088Y-21234418D02*
X15351993Y-21234418D01*
X15351993Y-21234418D02*
X15332945Y-21224894D01*
X15332945Y-21224894D02*
X15323422Y-21205847D01*
X15323422Y-21205847D02*
X15323422Y-21129656D01*
X15323422Y-21129656D02*
X15332945Y-21110609D01*
X15332945Y-21110609D02*
X15351993Y-21101085D01*
X15351993Y-21101085D02*
X15390088Y-21101085D01*
X15390088Y-21101085D02*
X15409136Y-21110609D01*
X15409136Y-21110609D02*
X15418660Y-21129656D01*
X15418660Y-21129656D02*
X15418660Y-21148704D01*
X15418660Y-21148704D02*
X15323422Y-21167752D01*
X15494850Y-21224894D02*
X15513898Y-21234418D01*
X15513898Y-21234418D02*
X15551993Y-21234418D01*
X15551993Y-21234418D02*
X15571041Y-21224894D01*
X15571041Y-21224894D02*
X15580564Y-21205847D01*
X15580564Y-21205847D02*
X15580564Y-21196323D01*
X15580564Y-21196323D02*
X15571041Y-21177275D01*
X15571041Y-21177275D02*
X15551993Y-21167752D01*
X15551993Y-21167752D02*
X15523422Y-21167752D01*
X15523422Y-21167752D02*
X15504374Y-21158228D01*
X15504374Y-21158228D02*
X15494850Y-21139180D01*
X15494850Y-21139180D02*
X15494850Y-21129656D01*
X15494850Y-21129656D02*
X15504374Y-21110609D01*
X15504374Y-21110609D02*
X15523422Y-21101085D01*
X15523422Y-21101085D02*
X15551993Y-21101085D01*
X15551993Y-21101085D02*
X15571041Y-21110609D01*
X15647231Y-21310609D02*
X15656755Y-21301085D01*
X15656755Y-21301085D02*
X15675803Y-21272513D01*
X15675803Y-21272513D02*
X15685326Y-21253466D01*
X15685326Y-21253466D02*
X15694850Y-21224894D01*
X15694850Y-21224894D02*
X15704374Y-21177275D01*
X15704374Y-21177275D02*
X15704374Y-21139180D01*
X15704374Y-21139180D02*
X15694850Y-21091561D01*
X15694850Y-21091561D02*
X15685326Y-21062990D01*
X15685326Y-21062990D02*
X15675803Y-21043942D01*
X15675803Y-21043942D02*
X15656755Y-21015371D01*
X15656755Y-21015371D02*
X15647231Y-21005847D01*
X15976755Y-21310609D02*
X15967231Y-21301085D01*
X15967231Y-21301085D02*
X15948183Y-21272513D01*
X15948183Y-21272513D02*
X15938660Y-21253466D01*
X15938660Y-21253466D02*
X15929136Y-21224894D01*
X15929136Y-21224894D02*
X15919612Y-21177275D01*
X15919612Y-21177275D02*
X15919612Y-21139180D01*
X15919612Y-21139180D02*
X15929136Y-21091561D01*
X15929136Y-21091561D02*
X15938660Y-21062990D01*
X15938660Y-21062990D02*
X15948183Y-21043942D01*
X15948183Y-21043942D02*
X15967231Y-21015371D01*
X15967231Y-21015371D02*
X15976755Y-21005847D01*
X16052945Y-21101085D02*
X16052945Y-21234418D01*
X16052945Y-21120132D02*
X16062469Y-21110609D01*
X16062469Y-21110609D02*
X16081517Y-21101085D01*
X16081517Y-21101085D02*
X16110088Y-21101085D01*
X16110088Y-21101085D02*
X16129136Y-21110609D01*
X16129136Y-21110609D02*
X16138660Y-21129656D01*
X16138660Y-21129656D02*
X16138660Y-21234418D01*
X16262469Y-21234418D02*
X16243422Y-21224894D01*
X16243422Y-21224894D02*
X16233898Y-21215371D01*
X16233898Y-21215371D02*
X16224374Y-21196323D01*
X16224374Y-21196323D02*
X16224374Y-21139180D01*
X16224374Y-21139180D02*
X16233898Y-21120132D01*
X16233898Y-21120132D02*
X16243422Y-21110609D01*
X16243422Y-21110609D02*
X16262469Y-21101085D01*
X16262469Y-21101085D02*
X16291041Y-21101085D01*
X16291041Y-21101085D02*
X16310088Y-21110609D01*
X16310088Y-21110609D02*
X16319612Y-21120132D01*
X16319612Y-21120132D02*
X16329136Y-21139180D01*
X16329136Y-21139180D02*
X16329136Y-21196323D01*
X16329136Y-21196323D02*
X16319612Y-21215371D01*
X16319612Y-21215371D02*
X16310088Y-21224894D01*
X16310088Y-21224894D02*
X16291041Y-21234418D01*
X16291041Y-21234418D02*
X16262469Y-21234418D01*
X16386279Y-21101085D02*
X16462469Y-21101085D01*
X16414850Y-21034418D02*
X16414850Y-21205847D01*
X16414850Y-21205847D02*
X16424374Y-21224894D01*
X16424374Y-21224894D02*
X16443422Y-21234418D01*
X16443422Y-21234418D02*
X16462469Y-21234418D01*
X16649136Y-21101085D02*
X16649136Y-21301085D01*
X16649136Y-21110609D02*
X16668183Y-21101085D01*
X16668183Y-21101085D02*
X16706279Y-21101085D01*
X16706279Y-21101085D02*
X16725326Y-21110609D01*
X16725326Y-21110609D02*
X16734850Y-21120132D01*
X16734850Y-21120132D02*
X16744374Y-21139180D01*
X16744374Y-21139180D02*
X16744374Y-21196323D01*
X16744374Y-21196323D02*
X16734850Y-21215371D01*
X16734850Y-21215371D02*
X16725326Y-21224894D01*
X16725326Y-21224894D02*
X16706279Y-21234418D01*
X16706279Y-21234418D02*
X16668183Y-21234418D01*
X16668183Y-21234418D02*
X16649136Y-21224894D01*
X16858660Y-21234418D02*
X16839612Y-21224894D01*
X16839612Y-21224894D02*
X16830088Y-21205847D01*
X16830088Y-21205847D02*
X16830088Y-21034418D01*
X17020565Y-21234418D02*
X17020565Y-21129656D01*
X17020565Y-21129656D02*
X17011041Y-21110609D01*
X17011041Y-21110609D02*
X16991993Y-21101085D01*
X16991993Y-21101085D02*
X16953898Y-21101085D01*
X16953898Y-21101085D02*
X16934850Y-21110609D01*
X17020565Y-21224894D02*
X17001517Y-21234418D01*
X17001517Y-21234418D02*
X16953898Y-21234418D01*
X16953898Y-21234418D02*
X16934850Y-21224894D01*
X16934850Y-21224894D02*
X16925326Y-21205847D01*
X16925326Y-21205847D02*
X16925326Y-21186799D01*
X16925326Y-21186799D02*
X16934850Y-21167752D01*
X16934850Y-21167752D02*
X16953898Y-21158228D01*
X16953898Y-21158228D02*
X17001517Y-21158228D01*
X17001517Y-21158228D02*
X17020565Y-21148704D01*
X17087231Y-21101085D02*
X17163422Y-21101085D01*
X17115803Y-21034418D02*
X17115803Y-21205847D01*
X17115803Y-21205847D02*
X17125326Y-21224894D01*
X17125326Y-21224894D02*
X17144374Y-21234418D01*
X17144374Y-21234418D02*
X17163422Y-21234418D01*
X17306279Y-21224894D02*
X17287231Y-21234418D01*
X17287231Y-21234418D02*
X17249136Y-21234418D01*
X17249136Y-21234418D02*
X17230088Y-21224894D01*
X17230088Y-21224894D02*
X17220565Y-21205847D01*
X17220565Y-21205847D02*
X17220565Y-21129656D01*
X17220565Y-21129656D02*
X17230088Y-21110609D01*
X17230088Y-21110609D02*
X17249136Y-21101085D01*
X17249136Y-21101085D02*
X17287231Y-21101085D01*
X17287231Y-21101085D02*
X17306279Y-21110609D01*
X17306279Y-21110609D02*
X17315803Y-21129656D01*
X17315803Y-21129656D02*
X17315803Y-21148704D01*
X17315803Y-21148704D02*
X17220565Y-21167752D01*
X17487231Y-21234418D02*
X17487231Y-21034418D01*
X17487231Y-21224894D02*
X17468184Y-21234418D01*
X17468184Y-21234418D02*
X17430088Y-21234418D01*
X17430088Y-21234418D02*
X17411041Y-21224894D01*
X17411041Y-21224894D02*
X17401517Y-21215371D01*
X17401517Y-21215371D02*
X17391993Y-21196323D01*
X17391993Y-21196323D02*
X17391993Y-21139180D01*
X17391993Y-21139180D02*
X17401517Y-21120132D01*
X17401517Y-21120132D02*
X17411041Y-21110609D01*
X17411041Y-21110609D02*
X17430088Y-21101085D01*
X17430088Y-21101085D02*
X17468184Y-21101085D01*
X17468184Y-21101085D02*
X17487231Y-21110609D01*
X17563422Y-21310609D02*
X17572946Y-21301085D01*
X17572946Y-21301085D02*
X17591993Y-21272513D01*
X17591993Y-21272513D02*
X17601517Y-21253466D01*
X17601517Y-21253466D02*
X17611041Y-21224894D01*
X17611041Y-21224894D02*
X17620565Y-21177275D01*
X17620565Y-21177275D02*
X17620565Y-21139180D01*
X17620565Y-21139180D02*
X17611041Y-21091561D01*
X17611041Y-21091561D02*
X17601517Y-21062990D01*
X17601517Y-21062990D02*
X17591993Y-21043942D01*
X17591993Y-21043942D02*
X17572946Y-21015371D01*
X17572946Y-21015371D02*
X17563422Y-21005847D01*
X11014850Y-21430942D02*
G75*
G03*
X11014850Y-21430942I-100000J0D01*
G01*
X11252945Y-21323466D02*
X11262469Y-21313942D01*
X11262469Y-21313942D02*
X11281517Y-21304418D01*
X11281517Y-21304418D02*
X11329136Y-21304418D01*
X11329136Y-21304418D02*
X11348183Y-21313942D01*
X11348183Y-21313942D02*
X11357707Y-21323466D01*
X11357707Y-21323466D02*
X11367231Y-21342513D01*
X11367231Y-21342513D02*
X11367231Y-21361561D01*
X11367231Y-21361561D02*
X11357707Y-21390132D01*
X11357707Y-21390132D02*
X11243421Y-21504418D01*
X11243421Y-21504418D02*
X11367231Y-21504418D01*
X11452945Y-21485371D02*
X11462469Y-21494894D01*
X11462469Y-21494894D02*
X11452945Y-21504418D01*
X11452945Y-21504418D02*
X11443421Y-21494894D01*
X11443421Y-21494894D02*
X11452945Y-21485371D01*
X11452945Y-21485371D02*
X11452945Y-21504418D01*
X11557707Y-21504418D02*
X11595802Y-21504418D01*
X11595802Y-21504418D02*
X11614850Y-21494894D01*
X11614850Y-21494894D02*
X11624374Y-21485371D01*
X11624374Y-21485371D02*
X11643421Y-21456799D01*
X11643421Y-21456799D02*
X11652945Y-21418704D01*
X11652945Y-21418704D02*
X11652945Y-21342513D01*
X11652945Y-21342513D02*
X11643421Y-21323466D01*
X11643421Y-21323466D02*
X11633898Y-21313942D01*
X11633898Y-21313942D02*
X11614850Y-21304418D01*
X11614850Y-21304418D02*
X11576755Y-21304418D01*
X11576755Y-21304418D02*
X11557707Y-21313942D01*
X11557707Y-21313942D02*
X11548183Y-21323466D01*
X11548183Y-21323466D02*
X11538659Y-21342513D01*
X11538659Y-21342513D02*
X11538659Y-21390132D01*
X11538659Y-21390132D02*
X11548183Y-21409180D01*
X11548183Y-21409180D02*
X11557707Y-21418704D01*
X11557707Y-21418704D02*
X11576755Y-21428228D01*
X11576755Y-21428228D02*
X11614850Y-21428228D01*
X11614850Y-21428228D02*
X11633898Y-21418704D01*
X11633898Y-21418704D02*
X11643421Y-21409180D01*
X11643421Y-21409180D02*
X11652945Y-21390132D01*
X11833898Y-21304418D02*
X11738659Y-21304418D01*
X11738659Y-21304418D02*
X11729136Y-21399656D01*
X11729136Y-21399656D02*
X11738659Y-21390132D01*
X11738659Y-21390132D02*
X11757707Y-21380609D01*
X11757707Y-21380609D02*
X11805326Y-21380609D01*
X11805326Y-21380609D02*
X11824374Y-21390132D01*
X11824374Y-21390132D02*
X11833898Y-21399656D01*
X11833898Y-21399656D02*
X11843421Y-21418704D01*
X11843421Y-21418704D02*
X11843421Y-21466323D01*
X11843421Y-21466323D02*
X11833898Y-21485371D01*
X11833898Y-21485371D02*
X11824374Y-21494894D01*
X11824374Y-21494894D02*
X11805326Y-21504418D01*
X11805326Y-21504418D02*
X11757707Y-21504418D01*
X11757707Y-21504418D02*
X11738659Y-21494894D01*
X11738659Y-21494894D02*
X11729136Y-21485371D01*
X11967231Y-21304418D02*
X11986279Y-21304418D01*
X11986279Y-21304418D02*
X12005326Y-21313942D01*
X12005326Y-21313942D02*
X12014850Y-21323466D01*
X12014850Y-21323466D02*
X12024374Y-21342513D01*
X12024374Y-21342513D02*
X12033898Y-21380609D01*
X12033898Y-21380609D02*
X12033898Y-21428228D01*
X12033898Y-21428228D02*
X12024374Y-21466323D01*
X12024374Y-21466323D02*
X12014850Y-21485371D01*
X12014850Y-21485371D02*
X12005326Y-21494894D01*
X12005326Y-21494894D02*
X11986279Y-21504418D01*
X11986279Y-21504418D02*
X11967231Y-21504418D01*
X11967231Y-21504418D02*
X11948183Y-21494894D01*
X11948183Y-21494894D02*
X11938659Y-21485371D01*
X11938659Y-21485371D02*
X11929136Y-21466323D01*
X11929136Y-21466323D02*
X11919612Y-21428228D01*
X11919612Y-21428228D02*
X11919612Y-21380609D01*
X11919612Y-21380609D02*
X11929136Y-21342513D01*
X11929136Y-21342513D02*
X11938659Y-21323466D01*
X11938659Y-21323466D02*
X11948183Y-21313942D01*
X11948183Y-21313942D02*
X11967231Y-21304418D01*
X12119612Y-21504418D02*
X12119612Y-21371085D01*
X12119612Y-21390132D02*
X12129136Y-21380609D01*
X12129136Y-21380609D02*
X12148183Y-21371085D01*
X12148183Y-21371085D02*
X12176755Y-21371085D01*
X12176755Y-21371085D02*
X12195802Y-21380609D01*
X12195802Y-21380609D02*
X12205326Y-21399656D01*
X12205326Y-21399656D02*
X12205326Y-21504418D01*
X12205326Y-21399656D02*
X12214850Y-21380609D01*
X12214850Y-21380609D02*
X12233898Y-21371085D01*
X12233898Y-21371085D02*
X12262469Y-21371085D01*
X12262469Y-21371085D02*
X12281517Y-21380609D01*
X12281517Y-21380609D02*
X12291040Y-21399656D01*
X12291040Y-21399656D02*
X12291040Y-21504418D01*
X12386279Y-21504418D02*
X12386279Y-21371085D01*
X12386279Y-21390132D02*
X12395802Y-21380609D01*
X12395802Y-21380609D02*
X12414850Y-21371085D01*
X12414850Y-21371085D02*
X12443421Y-21371085D01*
X12443421Y-21371085D02*
X12462469Y-21380609D01*
X12462469Y-21380609D02*
X12471993Y-21399656D01*
X12471993Y-21399656D02*
X12471993Y-21504418D01*
X12471993Y-21399656D02*
X12481517Y-21380609D01*
X12481517Y-21380609D02*
X12500564Y-21371085D01*
X12500564Y-21371085D02*
X12529136Y-21371085D01*
X12529136Y-21371085D02*
X12548183Y-21380609D01*
X12548183Y-21380609D02*
X12557707Y-21399656D01*
X12557707Y-21399656D02*
X12557707Y-21504418D01*
X12915802Y-21294894D02*
X12744374Y-21552037D01*
X13140564Y-21304418D02*
X13159612Y-21304418D01*
X13159612Y-21304418D02*
X13178660Y-21313942D01*
X13178660Y-21313942D02*
X13188183Y-21323466D01*
X13188183Y-21323466D02*
X13197707Y-21342513D01*
X13197707Y-21342513D02*
X13207231Y-21380609D01*
X13207231Y-21380609D02*
X13207231Y-21428228D01*
X13207231Y-21428228D02*
X13197707Y-21466323D01*
X13197707Y-21466323D02*
X13188183Y-21485371D01*
X13188183Y-21485371D02*
X13178660Y-21494894D01*
X13178660Y-21494894D02*
X13159612Y-21504418D01*
X13159612Y-21504418D02*
X13140564Y-21504418D01*
X13140564Y-21504418D02*
X13121517Y-21494894D01*
X13121517Y-21494894D02*
X13111993Y-21485371D01*
X13111993Y-21485371D02*
X13102469Y-21466323D01*
X13102469Y-21466323D02*
X13092945Y-21428228D01*
X13092945Y-21428228D02*
X13092945Y-21380609D01*
X13092945Y-21380609D02*
X13102469Y-21342513D01*
X13102469Y-21342513D02*
X13111993Y-21323466D01*
X13111993Y-21323466D02*
X13121517Y-21313942D01*
X13121517Y-21313942D02*
X13140564Y-21304418D01*
X13292945Y-21485371D02*
X13302469Y-21494894D01*
X13302469Y-21494894D02*
X13292945Y-21504418D01*
X13292945Y-21504418D02*
X13283421Y-21494894D01*
X13283421Y-21494894D02*
X13292945Y-21485371D01*
X13292945Y-21485371D02*
X13292945Y-21504418D01*
X13492945Y-21504418D02*
X13378660Y-21504418D01*
X13435802Y-21504418D02*
X13435802Y-21304418D01*
X13435802Y-21304418D02*
X13416755Y-21332990D01*
X13416755Y-21332990D02*
X13397707Y-21352037D01*
X13397707Y-21352037D02*
X13378660Y-21361561D01*
X13683421Y-21504418D02*
X13569136Y-21504418D01*
X13626279Y-21504418D02*
X13626279Y-21304418D01*
X13626279Y-21304418D02*
X13607231Y-21332990D01*
X13607231Y-21332990D02*
X13588183Y-21352037D01*
X13588183Y-21352037D02*
X13569136Y-21361561D01*
X13854850Y-21304418D02*
X13816755Y-21304418D01*
X13816755Y-21304418D02*
X13797707Y-21313942D01*
X13797707Y-21313942D02*
X13788183Y-21323466D01*
X13788183Y-21323466D02*
X13769136Y-21352037D01*
X13769136Y-21352037D02*
X13759612Y-21390132D01*
X13759612Y-21390132D02*
X13759612Y-21466323D01*
X13759612Y-21466323D02*
X13769136Y-21485371D01*
X13769136Y-21485371D02*
X13778660Y-21494894D01*
X13778660Y-21494894D02*
X13797707Y-21504418D01*
X13797707Y-21504418D02*
X13835802Y-21504418D01*
X13835802Y-21504418D02*
X13854850Y-21494894D01*
X13854850Y-21494894D02*
X13864374Y-21485371D01*
X13864374Y-21485371D02*
X13873898Y-21466323D01*
X13873898Y-21466323D02*
X13873898Y-21418704D01*
X13873898Y-21418704D02*
X13864374Y-21399656D01*
X13864374Y-21399656D02*
X13854850Y-21390132D01*
X13854850Y-21390132D02*
X13835802Y-21380609D01*
X13835802Y-21380609D02*
X13797707Y-21380609D01*
X13797707Y-21380609D02*
X13778660Y-21390132D01*
X13778660Y-21390132D02*
X13769136Y-21399656D01*
X13769136Y-21399656D02*
X13759612Y-21418704D01*
X14064374Y-21504418D02*
X13950088Y-21504418D01*
X14007231Y-21504418D02*
X14007231Y-21304418D01*
X14007231Y-21304418D02*
X13988183Y-21332990D01*
X13988183Y-21332990D02*
X13969136Y-21352037D01*
X13969136Y-21352037D02*
X13950088Y-21361561D01*
X14140564Y-21304418D02*
X14140564Y-21342513D01*
X14216755Y-21304418D02*
X14216755Y-21342513D01*
X14479612Y-21580609D02*
X14470088Y-21571085D01*
X14470088Y-21571085D02*
X14451041Y-21542513D01*
X14451041Y-21542513D02*
X14441517Y-21523466D01*
X14441517Y-21523466D02*
X14431993Y-21494894D01*
X14431993Y-21494894D02*
X14422469Y-21447275D01*
X14422469Y-21447275D02*
X14422469Y-21409180D01*
X14422469Y-21409180D02*
X14431993Y-21361561D01*
X14431993Y-21361561D02*
X14441517Y-21332990D01*
X14441517Y-21332990D02*
X14451041Y-21313942D01*
X14451041Y-21313942D02*
X14470088Y-21285371D01*
X14470088Y-21285371D02*
X14479612Y-21275847D01*
X14660564Y-21504418D02*
X14546279Y-21504418D01*
X14603421Y-21504418D02*
X14603421Y-21304418D01*
X14603421Y-21304418D02*
X14584374Y-21332990D01*
X14584374Y-21332990D02*
X14565326Y-21352037D01*
X14565326Y-21352037D02*
X14546279Y-21361561D01*
X14727231Y-21304418D02*
X14860564Y-21304418D01*
X14860564Y-21304418D02*
X14774850Y-21504418D01*
X15022469Y-21304418D02*
X14984374Y-21304418D01*
X14984374Y-21304418D02*
X14965326Y-21313942D01*
X14965326Y-21313942D02*
X14955802Y-21323466D01*
X14955802Y-21323466D02*
X14936755Y-21352037D01*
X14936755Y-21352037D02*
X14927231Y-21390132D01*
X14927231Y-21390132D02*
X14927231Y-21466323D01*
X14927231Y-21466323D02*
X14936755Y-21485371D01*
X14936755Y-21485371D02*
X14946279Y-21494894D01*
X14946279Y-21494894D02*
X14965326Y-21504418D01*
X14965326Y-21504418D02*
X15003422Y-21504418D01*
X15003422Y-21504418D02*
X15022469Y-21494894D01*
X15022469Y-21494894D02*
X15031993Y-21485371D01*
X15031993Y-21485371D02*
X15041517Y-21466323D01*
X15041517Y-21466323D02*
X15041517Y-21418704D01*
X15041517Y-21418704D02*
X15031993Y-21399656D01*
X15031993Y-21399656D02*
X15022469Y-21390132D01*
X15022469Y-21390132D02*
X15003422Y-21380609D01*
X15003422Y-21380609D02*
X14965326Y-21380609D01*
X14965326Y-21380609D02*
X14946279Y-21390132D01*
X14946279Y-21390132D02*
X14936755Y-21399656D01*
X14936755Y-21399656D02*
X14927231Y-21418704D01*
X15247231Y-21504418D02*
X15247231Y-21304418D01*
X15332945Y-21504418D02*
X15332945Y-21399656D01*
X15332945Y-21399656D02*
X15323422Y-21380609D01*
X15323422Y-21380609D02*
X15304374Y-21371085D01*
X15304374Y-21371085D02*
X15275802Y-21371085D01*
X15275802Y-21371085D02*
X15256755Y-21380609D01*
X15256755Y-21380609D02*
X15247231Y-21390132D01*
X15456755Y-21504418D02*
X15437707Y-21494894D01*
X15437707Y-21494894D02*
X15428183Y-21485371D01*
X15428183Y-21485371D02*
X15418660Y-21466323D01*
X15418660Y-21466323D02*
X15418660Y-21409180D01*
X15418660Y-21409180D02*
X15428183Y-21390132D01*
X15428183Y-21390132D02*
X15437707Y-21380609D01*
X15437707Y-21380609D02*
X15456755Y-21371085D01*
X15456755Y-21371085D02*
X15485326Y-21371085D01*
X15485326Y-21371085D02*
X15504374Y-21380609D01*
X15504374Y-21380609D02*
X15513898Y-21390132D01*
X15513898Y-21390132D02*
X15523422Y-21409180D01*
X15523422Y-21409180D02*
X15523422Y-21466323D01*
X15523422Y-21466323D02*
X15513898Y-21485371D01*
X15513898Y-21485371D02*
X15504374Y-21494894D01*
X15504374Y-21494894D02*
X15485326Y-21504418D01*
X15485326Y-21504418D02*
X15456755Y-21504418D01*
X15637707Y-21504418D02*
X15618660Y-21494894D01*
X15618660Y-21494894D02*
X15609136Y-21475847D01*
X15609136Y-21475847D02*
X15609136Y-21304418D01*
X15790088Y-21494894D02*
X15771041Y-21504418D01*
X15771041Y-21504418D02*
X15732945Y-21504418D01*
X15732945Y-21504418D02*
X15713898Y-21494894D01*
X15713898Y-21494894D02*
X15704374Y-21475847D01*
X15704374Y-21475847D02*
X15704374Y-21399656D01*
X15704374Y-21399656D02*
X15713898Y-21380609D01*
X15713898Y-21380609D02*
X15732945Y-21371085D01*
X15732945Y-21371085D02*
X15771041Y-21371085D01*
X15771041Y-21371085D02*
X15790088Y-21380609D01*
X15790088Y-21380609D02*
X15799612Y-21399656D01*
X15799612Y-21399656D02*
X15799612Y-21418704D01*
X15799612Y-21418704D02*
X15704374Y-21437752D01*
X15875803Y-21494894D02*
X15894850Y-21504418D01*
X15894850Y-21504418D02*
X15932945Y-21504418D01*
X15932945Y-21504418D02*
X15951993Y-21494894D01*
X15951993Y-21494894D02*
X15961517Y-21475847D01*
X15961517Y-21475847D02*
X15961517Y-21466323D01*
X15961517Y-21466323D02*
X15951993Y-21447275D01*
X15951993Y-21447275D02*
X15932945Y-21437752D01*
X15932945Y-21437752D02*
X15904374Y-21437752D01*
X15904374Y-21437752D02*
X15885326Y-21428228D01*
X15885326Y-21428228D02*
X15875803Y-21409180D01*
X15875803Y-21409180D02*
X15875803Y-21399656D01*
X15875803Y-21399656D02*
X15885326Y-21380609D01*
X15885326Y-21380609D02*
X15904374Y-21371085D01*
X15904374Y-21371085D02*
X15932945Y-21371085D01*
X15932945Y-21371085D02*
X15951993Y-21380609D01*
X16028184Y-21580609D02*
X16037707Y-21571085D01*
X16037707Y-21571085D02*
X16056755Y-21542513D01*
X16056755Y-21542513D02*
X16066279Y-21523466D01*
X16066279Y-21523466D02*
X16075803Y-21494894D01*
X16075803Y-21494894D02*
X16085326Y-21447275D01*
X16085326Y-21447275D02*
X16085326Y-21409180D01*
X16085326Y-21409180D02*
X16075803Y-21361561D01*
X16075803Y-21361561D02*
X16066279Y-21332990D01*
X16066279Y-21332990D02*
X16056755Y-21313942D01*
X16056755Y-21313942D02*
X16037707Y-21285371D01*
X16037707Y-21285371D02*
X16028184Y-21275847D01*
X16357707Y-21580609D02*
X16348183Y-21571085D01*
X16348183Y-21571085D02*
X16329136Y-21542513D01*
X16329136Y-21542513D02*
X16319612Y-21523466D01*
X16319612Y-21523466D02*
X16310088Y-21494894D01*
X16310088Y-21494894D02*
X16300564Y-21447275D01*
X16300564Y-21447275D02*
X16300564Y-21409180D01*
X16300564Y-21409180D02*
X16310088Y-21361561D01*
X16310088Y-21361561D02*
X16319612Y-21332990D01*
X16319612Y-21332990D02*
X16329136Y-21313942D01*
X16329136Y-21313942D02*
X16348183Y-21285371D01*
X16348183Y-21285371D02*
X16357707Y-21275847D01*
X16433898Y-21371085D02*
X16433898Y-21504418D01*
X16433898Y-21390132D02*
X16443422Y-21380609D01*
X16443422Y-21380609D02*
X16462469Y-21371085D01*
X16462469Y-21371085D02*
X16491041Y-21371085D01*
X16491041Y-21371085D02*
X16510088Y-21380609D01*
X16510088Y-21380609D02*
X16519612Y-21399656D01*
X16519612Y-21399656D02*
X16519612Y-21504418D01*
X16643422Y-21504418D02*
X16624374Y-21494894D01*
X16624374Y-21494894D02*
X16614850Y-21485371D01*
X16614850Y-21485371D02*
X16605326Y-21466323D01*
X16605326Y-21466323D02*
X16605326Y-21409180D01*
X16605326Y-21409180D02*
X16614850Y-21390132D01*
X16614850Y-21390132D02*
X16624374Y-21380609D01*
X16624374Y-21380609D02*
X16643422Y-21371085D01*
X16643422Y-21371085D02*
X16671993Y-21371085D01*
X16671993Y-21371085D02*
X16691041Y-21380609D01*
X16691041Y-21380609D02*
X16700564Y-21390132D01*
X16700564Y-21390132D02*
X16710088Y-21409180D01*
X16710088Y-21409180D02*
X16710088Y-21466323D01*
X16710088Y-21466323D02*
X16700564Y-21485371D01*
X16700564Y-21485371D02*
X16691041Y-21494894D01*
X16691041Y-21494894D02*
X16671993Y-21504418D01*
X16671993Y-21504418D02*
X16643422Y-21504418D01*
X16767231Y-21371085D02*
X16843422Y-21371085D01*
X16795803Y-21304418D02*
X16795803Y-21475847D01*
X16795803Y-21475847D02*
X16805326Y-21494894D01*
X16805326Y-21494894D02*
X16824374Y-21504418D01*
X16824374Y-21504418D02*
X16843422Y-21504418D01*
X17030088Y-21371085D02*
X17030088Y-21571085D01*
X17030088Y-21380609D02*
X17049136Y-21371085D01*
X17049136Y-21371085D02*
X17087231Y-21371085D01*
X17087231Y-21371085D02*
X17106279Y-21380609D01*
X17106279Y-21380609D02*
X17115803Y-21390132D01*
X17115803Y-21390132D02*
X17125326Y-21409180D01*
X17125326Y-21409180D02*
X17125326Y-21466323D01*
X17125326Y-21466323D02*
X17115803Y-21485371D01*
X17115803Y-21485371D02*
X17106279Y-21494894D01*
X17106279Y-21494894D02*
X17087231Y-21504418D01*
X17087231Y-21504418D02*
X17049136Y-21504418D01*
X17049136Y-21504418D02*
X17030088Y-21494894D01*
X17239612Y-21504418D02*
X17220565Y-21494894D01*
X17220565Y-21494894D02*
X17211041Y-21475847D01*
X17211041Y-21475847D02*
X17211041Y-21304418D01*
X17401517Y-21504418D02*
X17401517Y-21399656D01*
X17401517Y-21399656D02*
X17391993Y-21380609D01*
X17391993Y-21380609D02*
X17372946Y-21371085D01*
X17372946Y-21371085D02*
X17334850Y-21371085D01*
X17334850Y-21371085D02*
X17315803Y-21380609D01*
X17401517Y-21494894D02*
X17382469Y-21504418D01*
X17382469Y-21504418D02*
X17334850Y-21504418D01*
X17334850Y-21504418D02*
X17315803Y-21494894D01*
X17315803Y-21494894D02*
X17306279Y-21475847D01*
X17306279Y-21475847D02*
X17306279Y-21456799D01*
X17306279Y-21456799D02*
X17315803Y-21437752D01*
X17315803Y-21437752D02*
X17334850Y-21428228D01*
X17334850Y-21428228D02*
X17382469Y-21428228D01*
X17382469Y-21428228D02*
X17401517Y-21418704D01*
X17468184Y-21371085D02*
X17544374Y-21371085D01*
X17496755Y-21304418D02*
X17496755Y-21475847D01*
X17496755Y-21475847D02*
X17506279Y-21494894D01*
X17506279Y-21494894D02*
X17525326Y-21504418D01*
X17525326Y-21504418D02*
X17544374Y-21504418D01*
X17687231Y-21494894D02*
X17668184Y-21504418D01*
X17668184Y-21504418D02*
X17630088Y-21504418D01*
X17630088Y-21504418D02*
X17611041Y-21494894D01*
X17611041Y-21494894D02*
X17601517Y-21475847D01*
X17601517Y-21475847D02*
X17601517Y-21399656D01*
X17601517Y-21399656D02*
X17611041Y-21380609D01*
X17611041Y-21380609D02*
X17630088Y-21371085D01*
X17630088Y-21371085D02*
X17668184Y-21371085D01*
X17668184Y-21371085D02*
X17687231Y-21380609D01*
X17687231Y-21380609D02*
X17696755Y-21399656D01*
X17696755Y-21399656D02*
X17696755Y-21418704D01*
X17696755Y-21418704D02*
X17601517Y-21437752D01*
X17868184Y-21504418D02*
X17868184Y-21304418D01*
X17868184Y-21494894D02*
X17849136Y-21504418D01*
X17849136Y-21504418D02*
X17811041Y-21504418D01*
X17811041Y-21504418D02*
X17791993Y-21494894D01*
X17791993Y-21494894D02*
X17782469Y-21485371D01*
X17782469Y-21485371D02*
X17772946Y-21466323D01*
X17772946Y-21466323D02*
X17772946Y-21409180D01*
X17772946Y-21409180D02*
X17782469Y-21390132D01*
X17782469Y-21390132D02*
X17791993Y-21380609D01*
X17791993Y-21380609D02*
X17811041Y-21371085D01*
X17811041Y-21371085D02*
X17849136Y-21371085D01*
X17849136Y-21371085D02*
X17868184Y-21380609D01*
X17944374Y-21580609D02*
X17953898Y-21571085D01*
X17953898Y-21571085D02*
X17972946Y-21542513D01*
X17972946Y-21542513D02*
X17982469Y-21523466D01*
X17982469Y-21523466D02*
X17991993Y-21494894D01*
X17991993Y-21494894D02*
X18001517Y-21447275D01*
X18001517Y-21447275D02*
X18001517Y-21409180D01*
X18001517Y-21409180D02*
X17991993Y-21361561D01*
X17991993Y-21361561D02*
X17982469Y-21332990D01*
X17982469Y-21332990D02*
X17972946Y-21313942D01*
X17972946Y-21313942D02*
X17953898Y-21285371D01*
X17953898Y-21285371D02*
X17944374Y-21275847D01*
X10914850Y-21650942D02*
X10914850Y-21850942D01*
X10814850Y-21750942D02*
X11014850Y-21750942D01*
X11243421Y-21624418D02*
X11367231Y-21624418D01*
X11367231Y-21624418D02*
X11300564Y-21700609D01*
X11300564Y-21700609D02*
X11329136Y-21700609D01*
X11329136Y-21700609D02*
X11348183Y-21710132D01*
X11348183Y-21710132D02*
X11357707Y-21719656D01*
X11357707Y-21719656D02*
X11367231Y-21738704D01*
X11367231Y-21738704D02*
X11367231Y-21786323D01*
X11367231Y-21786323D02*
X11357707Y-21805371D01*
X11357707Y-21805371D02*
X11348183Y-21814894D01*
X11348183Y-21814894D02*
X11329136Y-21824418D01*
X11329136Y-21824418D02*
X11271993Y-21824418D01*
X11271993Y-21824418D02*
X11252945Y-21814894D01*
X11252945Y-21814894D02*
X11243421Y-21805371D01*
X11452945Y-21805371D02*
X11462469Y-21814894D01*
X11462469Y-21814894D02*
X11452945Y-21824418D01*
X11452945Y-21824418D02*
X11443421Y-21814894D01*
X11443421Y-21814894D02*
X11452945Y-21805371D01*
X11452945Y-21805371D02*
X11452945Y-21824418D01*
X11586278Y-21624418D02*
X11605326Y-21624418D01*
X11605326Y-21624418D02*
X11624374Y-21633942D01*
X11624374Y-21633942D02*
X11633898Y-21643466D01*
X11633898Y-21643466D02*
X11643421Y-21662513D01*
X11643421Y-21662513D02*
X11652945Y-21700609D01*
X11652945Y-21700609D02*
X11652945Y-21748228D01*
X11652945Y-21748228D02*
X11643421Y-21786323D01*
X11643421Y-21786323D02*
X11633898Y-21805371D01*
X11633898Y-21805371D02*
X11624374Y-21814894D01*
X11624374Y-21814894D02*
X11605326Y-21824418D01*
X11605326Y-21824418D02*
X11586278Y-21824418D01*
X11586278Y-21824418D02*
X11567231Y-21814894D01*
X11567231Y-21814894D02*
X11557707Y-21805371D01*
X11557707Y-21805371D02*
X11548183Y-21786323D01*
X11548183Y-21786323D02*
X11538659Y-21748228D01*
X11538659Y-21748228D02*
X11538659Y-21700609D01*
X11538659Y-21700609D02*
X11548183Y-21662513D01*
X11548183Y-21662513D02*
X11557707Y-21643466D01*
X11557707Y-21643466D02*
X11567231Y-21633942D01*
X11567231Y-21633942D02*
X11586278Y-21624418D01*
X11824374Y-21691085D02*
X11824374Y-21824418D01*
X11776755Y-21614894D02*
X11729136Y-21757752D01*
X11729136Y-21757752D02*
X11852945Y-21757752D01*
X11957707Y-21710132D02*
X11938659Y-21700609D01*
X11938659Y-21700609D02*
X11929136Y-21691085D01*
X11929136Y-21691085D02*
X11919612Y-21672037D01*
X11919612Y-21672037D02*
X11919612Y-21662513D01*
X11919612Y-21662513D02*
X11929136Y-21643466D01*
X11929136Y-21643466D02*
X11938659Y-21633942D01*
X11938659Y-21633942D02*
X11957707Y-21624418D01*
X11957707Y-21624418D02*
X11995802Y-21624418D01*
X11995802Y-21624418D02*
X12014850Y-21633942D01*
X12014850Y-21633942D02*
X12024374Y-21643466D01*
X12024374Y-21643466D02*
X12033898Y-21662513D01*
X12033898Y-21662513D02*
X12033898Y-21672037D01*
X12033898Y-21672037D02*
X12024374Y-21691085D01*
X12024374Y-21691085D02*
X12014850Y-21700609D01*
X12014850Y-21700609D02*
X11995802Y-21710132D01*
X11995802Y-21710132D02*
X11957707Y-21710132D01*
X11957707Y-21710132D02*
X11938659Y-21719656D01*
X11938659Y-21719656D02*
X11929136Y-21729180D01*
X11929136Y-21729180D02*
X11919612Y-21748228D01*
X11919612Y-21748228D02*
X11919612Y-21786323D01*
X11919612Y-21786323D02*
X11929136Y-21805371D01*
X11929136Y-21805371D02*
X11938659Y-21814894D01*
X11938659Y-21814894D02*
X11957707Y-21824418D01*
X11957707Y-21824418D02*
X11995802Y-21824418D01*
X11995802Y-21824418D02*
X12014850Y-21814894D01*
X12014850Y-21814894D02*
X12024374Y-21805371D01*
X12024374Y-21805371D02*
X12033898Y-21786323D01*
X12033898Y-21786323D02*
X12033898Y-21748228D01*
X12033898Y-21748228D02*
X12024374Y-21729180D01*
X12024374Y-21729180D02*
X12014850Y-21719656D01*
X12014850Y-21719656D02*
X11995802Y-21710132D01*
X12119612Y-21824418D02*
X12119612Y-21691085D01*
X12119612Y-21710132D02*
X12129136Y-21700609D01*
X12129136Y-21700609D02*
X12148183Y-21691085D01*
X12148183Y-21691085D02*
X12176755Y-21691085D01*
X12176755Y-21691085D02*
X12195802Y-21700609D01*
X12195802Y-21700609D02*
X12205326Y-21719656D01*
X12205326Y-21719656D02*
X12205326Y-21824418D01*
X12205326Y-21719656D02*
X12214850Y-21700609D01*
X12214850Y-21700609D02*
X12233898Y-21691085D01*
X12233898Y-21691085D02*
X12262469Y-21691085D01*
X12262469Y-21691085D02*
X12281517Y-21700609D01*
X12281517Y-21700609D02*
X12291040Y-21719656D01*
X12291040Y-21719656D02*
X12291040Y-21824418D01*
X12386279Y-21824418D02*
X12386279Y-21691085D01*
X12386279Y-21710132D02*
X12395802Y-21700609D01*
X12395802Y-21700609D02*
X12414850Y-21691085D01*
X12414850Y-21691085D02*
X12443421Y-21691085D01*
X12443421Y-21691085D02*
X12462469Y-21700609D01*
X12462469Y-21700609D02*
X12471993Y-21719656D01*
X12471993Y-21719656D02*
X12471993Y-21824418D01*
X12471993Y-21719656D02*
X12481517Y-21700609D01*
X12481517Y-21700609D02*
X12500564Y-21691085D01*
X12500564Y-21691085D02*
X12529136Y-21691085D01*
X12529136Y-21691085D02*
X12548183Y-21700609D01*
X12548183Y-21700609D02*
X12557707Y-21719656D01*
X12557707Y-21719656D02*
X12557707Y-21824418D01*
X12915802Y-21614894D02*
X12744374Y-21872037D01*
X13140564Y-21624418D02*
X13159612Y-21624418D01*
X13159612Y-21624418D02*
X13178660Y-21633942D01*
X13178660Y-21633942D02*
X13188183Y-21643466D01*
X13188183Y-21643466D02*
X13197707Y-21662513D01*
X13197707Y-21662513D02*
X13207231Y-21700609D01*
X13207231Y-21700609D02*
X13207231Y-21748228D01*
X13207231Y-21748228D02*
X13197707Y-21786323D01*
X13197707Y-21786323D02*
X13188183Y-21805371D01*
X13188183Y-21805371D02*
X13178660Y-21814894D01*
X13178660Y-21814894D02*
X13159612Y-21824418D01*
X13159612Y-21824418D02*
X13140564Y-21824418D01*
X13140564Y-21824418D02*
X13121517Y-21814894D01*
X13121517Y-21814894D02*
X13111993Y-21805371D01*
X13111993Y-21805371D02*
X13102469Y-21786323D01*
X13102469Y-21786323D02*
X13092945Y-21748228D01*
X13092945Y-21748228D02*
X13092945Y-21700609D01*
X13092945Y-21700609D02*
X13102469Y-21662513D01*
X13102469Y-21662513D02*
X13111993Y-21643466D01*
X13111993Y-21643466D02*
X13121517Y-21633942D01*
X13121517Y-21633942D02*
X13140564Y-21624418D01*
X13292945Y-21805371D02*
X13302469Y-21814894D01*
X13302469Y-21814894D02*
X13292945Y-21824418D01*
X13292945Y-21824418D02*
X13283421Y-21814894D01*
X13283421Y-21814894D02*
X13292945Y-21805371D01*
X13292945Y-21805371D02*
X13292945Y-21824418D01*
X13492945Y-21824418D02*
X13378660Y-21824418D01*
X13435802Y-21824418D02*
X13435802Y-21624418D01*
X13435802Y-21624418D02*
X13416755Y-21652990D01*
X13416755Y-21652990D02*
X13397707Y-21672037D01*
X13397707Y-21672037D02*
X13378660Y-21681561D01*
X13569136Y-21643466D02*
X13578660Y-21633942D01*
X13578660Y-21633942D02*
X13597707Y-21624418D01*
X13597707Y-21624418D02*
X13645326Y-21624418D01*
X13645326Y-21624418D02*
X13664374Y-21633942D01*
X13664374Y-21633942D02*
X13673898Y-21643466D01*
X13673898Y-21643466D02*
X13683421Y-21662513D01*
X13683421Y-21662513D02*
X13683421Y-21681561D01*
X13683421Y-21681561D02*
X13673898Y-21710132D01*
X13673898Y-21710132D02*
X13559612Y-21824418D01*
X13559612Y-21824418D02*
X13683421Y-21824418D01*
X13807231Y-21624418D02*
X13826279Y-21624418D01*
X13826279Y-21624418D02*
X13845326Y-21633942D01*
X13845326Y-21633942D02*
X13854850Y-21643466D01*
X13854850Y-21643466D02*
X13864374Y-21662513D01*
X13864374Y-21662513D02*
X13873898Y-21700609D01*
X13873898Y-21700609D02*
X13873898Y-21748228D01*
X13873898Y-21748228D02*
X13864374Y-21786323D01*
X13864374Y-21786323D02*
X13854850Y-21805371D01*
X13854850Y-21805371D02*
X13845326Y-21814894D01*
X13845326Y-21814894D02*
X13826279Y-21824418D01*
X13826279Y-21824418D02*
X13807231Y-21824418D01*
X13807231Y-21824418D02*
X13788183Y-21814894D01*
X13788183Y-21814894D02*
X13778660Y-21805371D01*
X13778660Y-21805371D02*
X13769136Y-21786323D01*
X13769136Y-21786323D02*
X13759612Y-21748228D01*
X13759612Y-21748228D02*
X13759612Y-21700609D01*
X13759612Y-21700609D02*
X13769136Y-21662513D01*
X13769136Y-21662513D02*
X13778660Y-21643466D01*
X13778660Y-21643466D02*
X13788183Y-21633942D01*
X13788183Y-21633942D02*
X13807231Y-21624418D01*
X13997707Y-21624418D02*
X14016755Y-21624418D01*
X14016755Y-21624418D02*
X14035802Y-21633942D01*
X14035802Y-21633942D02*
X14045326Y-21643466D01*
X14045326Y-21643466D02*
X14054850Y-21662513D01*
X14054850Y-21662513D02*
X14064374Y-21700609D01*
X14064374Y-21700609D02*
X14064374Y-21748228D01*
X14064374Y-21748228D02*
X14054850Y-21786323D01*
X14054850Y-21786323D02*
X14045326Y-21805371D01*
X14045326Y-21805371D02*
X14035802Y-21814894D01*
X14035802Y-21814894D02*
X14016755Y-21824418D01*
X14016755Y-21824418D02*
X13997707Y-21824418D01*
X13997707Y-21824418D02*
X13978660Y-21814894D01*
X13978660Y-21814894D02*
X13969136Y-21805371D01*
X13969136Y-21805371D02*
X13959612Y-21786323D01*
X13959612Y-21786323D02*
X13950088Y-21748228D01*
X13950088Y-21748228D02*
X13950088Y-21700609D01*
X13950088Y-21700609D02*
X13959612Y-21662513D01*
X13959612Y-21662513D02*
X13969136Y-21643466D01*
X13969136Y-21643466D02*
X13978660Y-21633942D01*
X13978660Y-21633942D02*
X13997707Y-21624418D01*
X14140564Y-21624418D02*
X14140564Y-21662513D01*
X14216755Y-21624418D02*
X14216755Y-21662513D01*
X14479612Y-21900609D02*
X14470088Y-21891085D01*
X14470088Y-21891085D02*
X14451041Y-21862513D01*
X14451041Y-21862513D02*
X14441517Y-21843466D01*
X14441517Y-21843466D02*
X14431993Y-21814894D01*
X14431993Y-21814894D02*
X14422469Y-21767275D01*
X14422469Y-21767275D02*
X14422469Y-21729180D01*
X14422469Y-21729180D02*
X14431993Y-21681561D01*
X14431993Y-21681561D02*
X14441517Y-21652990D01*
X14441517Y-21652990D02*
X14451041Y-21633942D01*
X14451041Y-21633942D02*
X14470088Y-21605371D01*
X14470088Y-21605371D02*
X14479612Y-21595847D01*
X14641517Y-21691085D02*
X14641517Y-21824418D01*
X14593898Y-21614894D02*
X14546279Y-21757752D01*
X14546279Y-21757752D02*
X14670088Y-21757752D01*
X14866279Y-21824418D02*
X14866279Y-21624418D01*
X14951993Y-21824418D02*
X14951993Y-21719656D01*
X14951993Y-21719656D02*
X14942469Y-21700609D01*
X14942469Y-21700609D02*
X14923422Y-21691085D01*
X14923422Y-21691085D02*
X14894850Y-21691085D01*
X14894850Y-21691085D02*
X14875802Y-21700609D01*
X14875802Y-21700609D02*
X14866279Y-21710132D01*
X15075802Y-21824418D02*
X15056755Y-21814894D01*
X15056755Y-21814894D02*
X15047231Y-21805371D01*
X15047231Y-21805371D02*
X15037707Y-21786323D01*
X15037707Y-21786323D02*
X15037707Y-21729180D01*
X15037707Y-21729180D02*
X15047231Y-21710132D01*
X15047231Y-21710132D02*
X15056755Y-21700609D01*
X15056755Y-21700609D02*
X15075802Y-21691085D01*
X15075802Y-21691085D02*
X15104374Y-21691085D01*
X15104374Y-21691085D02*
X15123422Y-21700609D01*
X15123422Y-21700609D02*
X15132945Y-21710132D01*
X15132945Y-21710132D02*
X15142469Y-21729180D01*
X15142469Y-21729180D02*
X15142469Y-21786323D01*
X15142469Y-21786323D02*
X15132945Y-21805371D01*
X15132945Y-21805371D02*
X15123422Y-21814894D01*
X15123422Y-21814894D02*
X15104374Y-21824418D01*
X15104374Y-21824418D02*
X15075802Y-21824418D01*
X15256755Y-21824418D02*
X15237707Y-21814894D01*
X15237707Y-21814894D02*
X15228183Y-21795847D01*
X15228183Y-21795847D02*
X15228183Y-21624418D01*
X15409136Y-21814894D02*
X15390088Y-21824418D01*
X15390088Y-21824418D02*
X15351993Y-21824418D01*
X15351993Y-21824418D02*
X15332945Y-21814894D01*
X15332945Y-21814894D02*
X15323422Y-21795847D01*
X15323422Y-21795847D02*
X15323422Y-21719656D01*
X15323422Y-21719656D02*
X15332945Y-21700609D01*
X15332945Y-21700609D02*
X15351993Y-21691085D01*
X15351993Y-21691085D02*
X15390088Y-21691085D01*
X15390088Y-21691085D02*
X15409136Y-21700609D01*
X15409136Y-21700609D02*
X15418660Y-21719656D01*
X15418660Y-21719656D02*
X15418660Y-21738704D01*
X15418660Y-21738704D02*
X15323422Y-21757752D01*
X15494850Y-21814894D02*
X15513898Y-21824418D01*
X15513898Y-21824418D02*
X15551993Y-21824418D01*
X15551993Y-21824418D02*
X15571041Y-21814894D01*
X15571041Y-21814894D02*
X15580564Y-21795847D01*
X15580564Y-21795847D02*
X15580564Y-21786323D01*
X15580564Y-21786323D02*
X15571041Y-21767275D01*
X15571041Y-21767275D02*
X15551993Y-21757752D01*
X15551993Y-21757752D02*
X15523422Y-21757752D01*
X15523422Y-21757752D02*
X15504374Y-21748228D01*
X15504374Y-21748228D02*
X15494850Y-21729180D01*
X15494850Y-21729180D02*
X15494850Y-21719656D01*
X15494850Y-21719656D02*
X15504374Y-21700609D01*
X15504374Y-21700609D02*
X15523422Y-21691085D01*
X15523422Y-21691085D02*
X15551993Y-21691085D01*
X15551993Y-21691085D02*
X15571041Y-21700609D01*
X15647231Y-21900609D02*
X15656755Y-21891085D01*
X15656755Y-21891085D02*
X15675803Y-21862513D01*
X15675803Y-21862513D02*
X15685326Y-21843466D01*
X15685326Y-21843466D02*
X15694850Y-21814894D01*
X15694850Y-21814894D02*
X15704374Y-21767275D01*
X15704374Y-21767275D02*
X15704374Y-21729180D01*
X15704374Y-21729180D02*
X15694850Y-21681561D01*
X15694850Y-21681561D02*
X15685326Y-21652990D01*
X15685326Y-21652990D02*
X15675803Y-21633942D01*
X15675803Y-21633942D02*
X15656755Y-21605371D01*
X15656755Y-21605371D02*
X15647231Y-21595847D01*
X15976755Y-21900609D02*
X15967231Y-21891085D01*
X15967231Y-21891085D02*
X15948183Y-21862513D01*
X15948183Y-21862513D02*
X15938660Y-21843466D01*
X15938660Y-21843466D02*
X15929136Y-21814894D01*
X15929136Y-21814894D02*
X15919612Y-21767275D01*
X15919612Y-21767275D02*
X15919612Y-21729180D01*
X15919612Y-21729180D02*
X15929136Y-21681561D01*
X15929136Y-21681561D02*
X15938660Y-21652990D01*
X15938660Y-21652990D02*
X15948183Y-21633942D01*
X15948183Y-21633942D02*
X15967231Y-21605371D01*
X15967231Y-21605371D02*
X15976755Y-21595847D01*
X16052945Y-21691085D02*
X16052945Y-21824418D01*
X16052945Y-21710132D02*
X16062469Y-21700609D01*
X16062469Y-21700609D02*
X16081517Y-21691085D01*
X16081517Y-21691085D02*
X16110088Y-21691085D01*
X16110088Y-21691085D02*
X16129136Y-21700609D01*
X16129136Y-21700609D02*
X16138660Y-21719656D01*
X16138660Y-21719656D02*
X16138660Y-21824418D01*
X16262469Y-21824418D02*
X16243422Y-21814894D01*
X16243422Y-21814894D02*
X16233898Y-21805371D01*
X16233898Y-21805371D02*
X16224374Y-21786323D01*
X16224374Y-21786323D02*
X16224374Y-21729180D01*
X16224374Y-21729180D02*
X16233898Y-21710132D01*
X16233898Y-21710132D02*
X16243422Y-21700609D01*
X16243422Y-21700609D02*
X16262469Y-21691085D01*
X16262469Y-21691085D02*
X16291041Y-21691085D01*
X16291041Y-21691085D02*
X16310088Y-21700609D01*
X16310088Y-21700609D02*
X16319612Y-21710132D01*
X16319612Y-21710132D02*
X16329136Y-21729180D01*
X16329136Y-21729180D02*
X16329136Y-21786323D01*
X16329136Y-21786323D02*
X16319612Y-21805371D01*
X16319612Y-21805371D02*
X16310088Y-21814894D01*
X16310088Y-21814894D02*
X16291041Y-21824418D01*
X16291041Y-21824418D02*
X16262469Y-21824418D01*
X16386279Y-21691085D02*
X16462469Y-21691085D01*
X16414850Y-21624418D02*
X16414850Y-21795847D01*
X16414850Y-21795847D02*
X16424374Y-21814894D01*
X16424374Y-21814894D02*
X16443422Y-21824418D01*
X16443422Y-21824418D02*
X16462469Y-21824418D01*
X16649136Y-21691085D02*
X16649136Y-21891085D01*
X16649136Y-21700609D02*
X16668183Y-21691085D01*
X16668183Y-21691085D02*
X16706279Y-21691085D01*
X16706279Y-21691085D02*
X16725326Y-21700609D01*
X16725326Y-21700609D02*
X16734850Y-21710132D01*
X16734850Y-21710132D02*
X16744374Y-21729180D01*
X16744374Y-21729180D02*
X16744374Y-21786323D01*
X16744374Y-21786323D02*
X16734850Y-21805371D01*
X16734850Y-21805371D02*
X16725326Y-21814894D01*
X16725326Y-21814894D02*
X16706279Y-21824418D01*
X16706279Y-21824418D02*
X16668183Y-21824418D01*
X16668183Y-21824418D02*
X16649136Y-21814894D01*
X16858660Y-21824418D02*
X16839612Y-21814894D01*
X16839612Y-21814894D02*
X16830088Y-21795847D01*
X16830088Y-21795847D02*
X16830088Y-21624418D01*
X17020565Y-21824418D02*
X17020565Y-21719656D01*
X17020565Y-21719656D02*
X17011041Y-21700609D01*
X17011041Y-21700609D02*
X16991993Y-21691085D01*
X16991993Y-21691085D02*
X16953898Y-21691085D01*
X16953898Y-21691085D02*
X16934850Y-21700609D01*
X17020565Y-21814894D02*
X17001517Y-21824418D01*
X17001517Y-21824418D02*
X16953898Y-21824418D01*
X16953898Y-21824418D02*
X16934850Y-21814894D01*
X16934850Y-21814894D02*
X16925326Y-21795847D01*
X16925326Y-21795847D02*
X16925326Y-21776799D01*
X16925326Y-21776799D02*
X16934850Y-21757752D01*
X16934850Y-21757752D02*
X16953898Y-21748228D01*
X16953898Y-21748228D02*
X17001517Y-21748228D01*
X17001517Y-21748228D02*
X17020565Y-21738704D01*
X17087231Y-21691085D02*
X17163422Y-21691085D01*
X17115803Y-21624418D02*
X17115803Y-21795847D01*
X17115803Y-21795847D02*
X17125326Y-21814894D01*
X17125326Y-21814894D02*
X17144374Y-21824418D01*
X17144374Y-21824418D02*
X17163422Y-21824418D01*
X17306279Y-21814894D02*
X17287231Y-21824418D01*
X17287231Y-21824418D02*
X17249136Y-21824418D01*
X17249136Y-21824418D02*
X17230088Y-21814894D01*
X17230088Y-21814894D02*
X17220565Y-21795847D01*
X17220565Y-21795847D02*
X17220565Y-21719656D01*
X17220565Y-21719656D02*
X17230088Y-21700609D01*
X17230088Y-21700609D02*
X17249136Y-21691085D01*
X17249136Y-21691085D02*
X17287231Y-21691085D01*
X17287231Y-21691085D02*
X17306279Y-21700609D01*
X17306279Y-21700609D02*
X17315803Y-21719656D01*
X17315803Y-21719656D02*
X17315803Y-21738704D01*
X17315803Y-21738704D02*
X17220565Y-21757752D01*
X17487231Y-21824418D02*
X17487231Y-21624418D01*
X17487231Y-21814894D02*
X17468184Y-21824418D01*
X17468184Y-21824418D02*
X17430088Y-21824418D01*
X17430088Y-21824418D02*
X17411041Y-21814894D01*
X17411041Y-21814894D02*
X17401517Y-21805371D01*
X17401517Y-21805371D02*
X17391993Y-21786323D01*
X17391993Y-21786323D02*
X17391993Y-21729180D01*
X17391993Y-21729180D02*
X17401517Y-21710132D01*
X17401517Y-21710132D02*
X17411041Y-21700609D01*
X17411041Y-21700609D02*
X17430088Y-21691085D01*
X17430088Y-21691085D02*
X17468184Y-21691085D01*
X17468184Y-21691085D02*
X17487231Y-21700609D01*
X17563422Y-21900609D02*
X17572946Y-21891085D01*
X17572946Y-21891085D02*
X17591993Y-21862513D01*
X17591993Y-21862513D02*
X17601517Y-21843466D01*
X17601517Y-21843466D02*
X17611041Y-21814894D01*
X17611041Y-21814894D02*
X17620565Y-21767275D01*
X17620565Y-21767275D02*
X17620565Y-21729180D01*
X17620565Y-21729180D02*
X17611041Y-21681561D01*
X17611041Y-21681561D02*
X17601517Y-21652990D01*
X17601517Y-21652990D02*
X17591993Y-21633942D01*
X17591993Y-21633942D02*
X17572946Y-21605371D01*
X17572946Y-21605371D02*
X17563422Y-21595847D01*
X10985561Y-22141653D02*
X10985561Y-22000231D01*
X10844139Y-22000231D01*
X10844139Y-22141653D01*
X10985561Y-22141653D01*
X11243421Y-21944418D02*
X11367231Y-21944418D01*
X11367231Y-21944418D02*
X11300564Y-22020609D01*
X11300564Y-22020609D02*
X11329136Y-22020609D01*
X11329136Y-22020609D02*
X11348183Y-22030132D01*
X11348183Y-22030132D02*
X11357707Y-22039656D01*
X11357707Y-22039656D02*
X11367231Y-22058704D01*
X11367231Y-22058704D02*
X11367231Y-22106323D01*
X11367231Y-22106323D02*
X11357707Y-22125371D01*
X11357707Y-22125371D02*
X11348183Y-22134894D01*
X11348183Y-22134894D02*
X11329136Y-22144418D01*
X11329136Y-22144418D02*
X11271993Y-22144418D01*
X11271993Y-22144418D02*
X11252945Y-22134894D01*
X11252945Y-22134894D02*
X11243421Y-22125371D01*
X11452945Y-22125371D02*
X11462469Y-22134894D01*
X11462469Y-22134894D02*
X11452945Y-22144418D01*
X11452945Y-22144418D02*
X11443421Y-22134894D01*
X11443421Y-22134894D02*
X11452945Y-22125371D01*
X11452945Y-22125371D02*
X11452945Y-22144418D01*
X11557707Y-22144418D02*
X11595802Y-22144418D01*
X11595802Y-22144418D02*
X11614850Y-22134894D01*
X11614850Y-22134894D02*
X11624374Y-22125371D01*
X11624374Y-22125371D02*
X11643421Y-22096799D01*
X11643421Y-22096799D02*
X11652945Y-22058704D01*
X11652945Y-22058704D02*
X11652945Y-21982513D01*
X11652945Y-21982513D02*
X11643421Y-21963466D01*
X11643421Y-21963466D02*
X11633898Y-21953942D01*
X11633898Y-21953942D02*
X11614850Y-21944418D01*
X11614850Y-21944418D02*
X11576755Y-21944418D01*
X11576755Y-21944418D02*
X11557707Y-21953942D01*
X11557707Y-21953942D02*
X11548183Y-21963466D01*
X11548183Y-21963466D02*
X11538659Y-21982513D01*
X11538659Y-21982513D02*
X11538659Y-22030132D01*
X11538659Y-22030132D02*
X11548183Y-22049180D01*
X11548183Y-22049180D02*
X11557707Y-22058704D01*
X11557707Y-22058704D02*
X11576755Y-22068228D01*
X11576755Y-22068228D02*
X11614850Y-22068228D01*
X11614850Y-22068228D02*
X11633898Y-22058704D01*
X11633898Y-22058704D02*
X11643421Y-22049180D01*
X11643421Y-22049180D02*
X11652945Y-22030132D01*
X11767231Y-22030132D02*
X11748183Y-22020609D01*
X11748183Y-22020609D02*
X11738659Y-22011085D01*
X11738659Y-22011085D02*
X11729136Y-21992037D01*
X11729136Y-21992037D02*
X11729136Y-21982513D01*
X11729136Y-21982513D02*
X11738659Y-21963466D01*
X11738659Y-21963466D02*
X11748183Y-21953942D01*
X11748183Y-21953942D02*
X11767231Y-21944418D01*
X11767231Y-21944418D02*
X11805326Y-21944418D01*
X11805326Y-21944418D02*
X11824374Y-21953942D01*
X11824374Y-21953942D02*
X11833898Y-21963466D01*
X11833898Y-21963466D02*
X11843421Y-21982513D01*
X11843421Y-21982513D02*
X11843421Y-21992037D01*
X11843421Y-21992037D02*
X11833898Y-22011085D01*
X11833898Y-22011085D02*
X11824374Y-22020609D01*
X11824374Y-22020609D02*
X11805326Y-22030132D01*
X11805326Y-22030132D02*
X11767231Y-22030132D01*
X11767231Y-22030132D02*
X11748183Y-22039656D01*
X11748183Y-22039656D02*
X11738659Y-22049180D01*
X11738659Y-22049180D02*
X11729136Y-22068228D01*
X11729136Y-22068228D02*
X11729136Y-22106323D01*
X11729136Y-22106323D02*
X11738659Y-22125371D01*
X11738659Y-22125371D02*
X11748183Y-22134894D01*
X11748183Y-22134894D02*
X11767231Y-22144418D01*
X11767231Y-22144418D02*
X11805326Y-22144418D01*
X11805326Y-22144418D02*
X11824374Y-22134894D01*
X11824374Y-22134894D02*
X11833898Y-22125371D01*
X11833898Y-22125371D02*
X11843421Y-22106323D01*
X11843421Y-22106323D02*
X11843421Y-22068228D01*
X11843421Y-22068228D02*
X11833898Y-22049180D01*
X11833898Y-22049180D02*
X11824374Y-22039656D01*
X11824374Y-22039656D02*
X11805326Y-22030132D01*
X11967231Y-21944418D02*
X11986279Y-21944418D01*
X11986279Y-21944418D02*
X12005326Y-21953942D01*
X12005326Y-21953942D02*
X12014850Y-21963466D01*
X12014850Y-21963466D02*
X12024374Y-21982513D01*
X12024374Y-21982513D02*
X12033898Y-22020609D01*
X12033898Y-22020609D02*
X12033898Y-22068228D01*
X12033898Y-22068228D02*
X12024374Y-22106323D01*
X12024374Y-22106323D02*
X12014850Y-22125371D01*
X12014850Y-22125371D02*
X12005326Y-22134894D01*
X12005326Y-22134894D02*
X11986279Y-22144418D01*
X11986279Y-22144418D02*
X11967231Y-22144418D01*
X11967231Y-22144418D02*
X11948183Y-22134894D01*
X11948183Y-22134894D02*
X11938659Y-22125371D01*
X11938659Y-22125371D02*
X11929136Y-22106323D01*
X11929136Y-22106323D02*
X11919612Y-22068228D01*
X11919612Y-22068228D02*
X11919612Y-22020609D01*
X11919612Y-22020609D02*
X11929136Y-21982513D01*
X11929136Y-21982513D02*
X11938659Y-21963466D01*
X11938659Y-21963466D02*
X11948183Y-21953942D01*
X11948183Y-21953942D02*
X11967231Y-21944418D01*
X12119612Y-22144418D02*
X12119612Y-22011085D01*
X12119612Y-22030132D02*
X12129136Y-22020609D01*
X12129136Y-22020609D02*
X12148183Y-22011085D01*
X12148183Y-22011085D02*
X12176755Y-22011085D01*
X12176755Y-22011085D02*
X12195802Y-22020609D01*
X12195802Y-22020609D02*
X12205326Y-22039656D01*
X12205326Y-22039656D02*
X12205326Y-22144418D01*
X12205326Y-22039656D02*
X12214850Y-22020609D01*
X12214850Y-22020609D02*
X12233898Y-22011085D01*
X12233898Y-22011085D02*
X12262469Y-22011085D01*
X12262469Y-22011085D02*
X12281517Y-22020609D01*
X12281517Y-22020609D02*
X12291040Y-22039656D01*
X12291040Y-22039656D02*
X12291040Y-22144418D01*
X12386279Y-22144418D02*
X12386279Y-22011085D01*
X12386279Y-22030132D02*
X12395802Y-22020609D01*
X12395802Y-22020609D02*
X12414850Y-22011085D01*
X12414850Y-22011085D02*
X12443421Y-22011085D01*
X12443421Y-22011085D02*
X12462469Y-22020609D01*
X12462469Y-22020609D02*
X12471993Y-22039656D01*
X12471993Y-22039656D02*
X12471993Y-22144418D01*
X12471993Y-22039656D02*
X12481517Y-22020609D01*
X12481517Y-22020609D02*
X12500564Y-22011085D01*
X12500564Y-22011085D02*
X12529136Y-22011085D01*
X12529136Y-22011085D02*
X12548183Y-22020609D01*
X12548183Y-22020609D02*
X12557707Y-22039656D01*
X12557707Y-22039656D02*
X12557707Y-22144418D01*
X12915802Y-21934894D02*
X12744374Y-22192037D01*
X13140564Y-21944418D02*
X13159612Y-21944418D01*
X13159612Y-21944418D02*
X13178660Y-21953942D01*
X13178660Y-21953942D02*
X13188183Y-21963466D01*
X13188183Y-21963466D02*
X13197707Y-21982513D01*
X13197707Y-21982513D02*
X13207231Y-22020609D01*
X13207231Y-22020609D02*
X13207231Y-22068228D01*
X13207231Y-22068228D02*
X13197707Y-22106323D01*
X13197707Y-22106323D02*
X13188183Y-22125371D01*
X13188183Y-22125371D02*
X13178660Y-22134894D01*
X13178660Y-22134894D02*
X13159612Y-22144418D01*
X13159612Y-22144418D02*
X13140564Y-22144418D01*
X13140564Y-22144418D02*
X13121517Y-22134894D01*
X13121517Y-22134894D02*
X13111993Y-22125371D01*
X13111993Y-22125371D02*
X13102469Y-22106323D01*
X13102469Y-22106323D02*
X13092945Y-22068228D01*
X13092945Y-22068228D02*
X13092945Y-22020609D01*
X13092945Y-22020609D02*
X13102469Y-21982513D01*
X13102469Y-21982513D02*
X13111993Y-21963466D01*
X13111993Y-21963466D02*
X13121517Y-21953942D01*
X13121517Y-21953942D02*
X13140564Y-21944418D01*
X13292945Y-22125371D02*
X13302469Y-22134894D01*
X13302469Y-22134894D02*
X13292945Y-22144418D01*
X13292945Y-22144418D02*
X13283421Y-22134894D01*
X13283421Y-22134894D02*
X13292945Y-22125371D01*
X13292945Y-22125371D02*
X13292945Y-22144418D01*
X13492945Y-22144418D02*
X13378660Y-22144418D01*
X13435802Y-22144418D02*
X13435802Y-21944418D01*
X13435802Y-21944418D02*
X13416755Y-21972990D01*
X13416755Y-21972990D02*
X13397707Y-21992037D01*
X13397707Y-21992037D02*
X13378660Y-22001561D01*
X13673898Y-21944418D02*
X13578660Y-21944418D01*
X13578660Y-21944418D02*
X13569136Y-22039656D01*
X13569136Y-22039656D02*
X13578660Y-22030132D01*
X13578660Y-22030132D02*
X13597707Y-22020609D01*
X13597707Y-22020609D02*
X13645326Y-22020609D01*
X13645326Y-22020609D02*
X13664374Y-22030132D01*
X13664374Y-22030132D02*
X13673898Y-22039656D01*
X13673898Y-22039656D02*
X13683421Y-22058704D01*
X13683421Y-22058704D02*
X13683421Y-22106323D01*
X13683421Y-22106323D02*
X13673898Y-22125371D01*
X13673898Y-22125371D02*
X13664374Y-22134894D01*
X13664374Y-22134894D02*
X13645326Y-22144418D01*
X13645326Y-22144418D02*
X13597707Y-22144418D01*
X13597707Y-22144418D02*
X13578660Y-22134894D01*
X13578660Y-22134894D02*
X13569136Y-22125371D01*
X13854850Y-21944418D02*
X13816755Y-21944418D01*
X13816755Y-21944418D02*
X13797707Y-21953942D01*
X13797707Y-21953942D02*
X13788183Y-21963466D01*
X13788183Y-21963466D02*
X13769136Y-21992037D01*
X13769136Y-21992037D02*
X13759612Y-22030132D01*
X13759612Y-22030132D02*
X13759612Y-22106323D01*
X13759612Y-22106323D02*
X13769136Y-22125371D01*
X13769136Y-22125371D02*
X13778660Y-22134894D01*
X13778660Y-22134894D02*
X13797707Y-22144418D01*
X13797707Y-22144418D02*
X13835802Y-22144418D01*
X13835802Y-22144418D02*
X13854850Y-22134894D01*
X13854850Y-22134894D02*
X13864374Y-22125371D01*
X13864374Y-22125371D02*
X13873898Y-22106323D01*
X13873898Y-22106323D02*
X13873898Y-22058704D01*
X13873898Y-22058704D02*
X13864374Y-22039656D01*
X13864374Y-22039656D02*
X13854850Y-22030132D01*
X13854850Y-22030132D02*
X13835802Y-22020609D01*
X13835802Y-22020609D02*
X13797707Y-22020609D01*
X13797707Y-22020609D02*
X13778660Y-22030132D01*
X13778660Y-22030132D02*
X13769136Y-22039656D01*
X13769136Y-22039656D02*
X13759612Y-22058704D01*
X13940564Y-21944418D02*
X14073898Y-21944418D01*
X14073898Y-21944418D02*
X13988183Y-22144418D01*
X14140564Y-21944418D02*
X14140564Y-21982513D01*
X14216755Y-21944418D02*
X14216755Y-21982513D01*
X14479612Y-22220609D02*
X14470088Y-22211085D01*
X14470088Y-22211085D02*
X14451041Y-22182513D01*
X14451041Y-22182513D02*
X14441517Y-22163466D01*
X14441517Y-22163466D02*
X14431993Y-22134894D01*
X14431993Y-22134894D02*
X14422469Y-22087275D01*
X14422469Y-22087275D02*
X14422469Y-22049180D01*
X14422469Y-22049180D02*
X14431993Y-22001561D01*
X14431993Y-22001561D02*
X14441517Y-21972990D01*
X14441517Y-21972990D02*
X14451041Y-21953942D01*
X14451041Y-21953942D02*
X14470088Y-21925371D01*
X14470088Y-21925371D02*
X14479612Y-21915847D01*
X14641517Y-22011085D02*
X14641517Y-22144418D01*
X14593898Y-21934894D02*
X14546279Y-22077752D01*
X14546279Y-22077752D02*
X14670088Y-22077752D01*
X14831993Y-22011085D02*
X14831993Y-22144418D01*
X14784374Y-21934894D02*
X14736755Y-22077752D01*
X14736755Y-22077752D02*
X14860564Y-22077752D01*
X15056755Y-22144418D02*
X15056755Y-21944418D01*
X15142469Y-22144418D02*
X15142469Y-22039656D01*
X15142469Y-22039656D02*
X15132945Y-22020609D01*
X15132945Y-22020609D02*
X15113898Y-22011085D01*
X15113898Y-22011085D02*
X15085326Y-22011085D01*
X15085326Y-22011085D02*
X15066279Y-22020609D01*
X15066279Y-22020609D02*
X15056755Y-22030132D01*
X15266279Y-22144418D02*
X15247231Y-22134894D01*
X15247231Y-22134894D02*
X15237707Y-22125371D01*
X15237707Y-22125371D02*
X15228183Y-22106323D01*
X15228183Y-22106323D02*
X15228183Y-22049180D01*
X15228183Y-22049180D02*
X15237707Y-22030132D01*
X15237707Y-22030132D02*
X15247231Y-22020609D01*
X15247231Y-22020609D02*
X15266279Y-22011085D01*
X15266279Y-22011085D02*
X15294850Y-22011085D01*
X15294850Y-22011085D02*
X15313898Y-22020609D01*
X15313898Y-22020609D02*
X15323422Y-22030132D01*
X15323422Y-22030132D02*
X15332945Y-22049180D01*
X15332945Y-22049180D02*
X15332945Y-22106323D01*
X15332945Y-22106323D02*
X15323422Y-22125371D01*
X15323422Y-22125371D02*
X15313898Y-22134894D01*
X15313898Y-22134894D02*
X15294850Y-22144418D01*
X15294850Y-22144418D02*
X15266279Y-22144418D01*
X15447231Y-22144418D02*
X15428183Y-22134894D01*
X15428183Y-22134894D02*
X15418660Y-22115847D01*
X15418660Y-22115847D02*
X15418660Y-21944418D01*
X15599612Y-22134894D02*
X15580564Y-22144418D01*
X15580564Y-22144418D02*
X15542469Y-22144418D01*
X15542469Y-22144418D02*
X15523422Y-22134894D01*
X15523422Y-22134894D02*
X15513898Y-22115847D01*
X15513898Y-22115847D02*
X15513898Y-22039656D01*
X15513898Y-22039656D02*
X15523422Y-22020609D01*
X15523422Y-22020609D02*
X15542469Y-22011085D01*
X15542469Y-22011085D02*
X15580564Y-22011085D01*
X15580564Y-22011085D02*
X15599612Y-22020609D01*
X15599612Y-22020609D02*
X15609136Y-22039656D01*
X15609136Y-22039656D02*
X15609136Y-22058704D01*
X15609136Y-22058704D02*
X15513898Y-22077752D01*
X15685326Y-22134894D02*
X15704374Y-22144418D01*
X15704374Y-22144418D02*
X15742469Y-22144418D01*
X15742469Y-22144418D02*
X15761517Y-22134894D01*
X15761517Y-22134894D02*
X15771041Y-22115847D01*
X15771041Y-22115847D02*
X15771041Y-22106323D01*
X15771041Y-22106323D02*
X15761517Y-22087275D01*
X15761517Y-22087275D02*
X15742469Y-22077752D01*
X15742469Y-22077752D02*
X15713898Y-22077752D01*
X15713898Y-22077752D02*
X15694850Y-22068228D01*
X15694850Y-22068228D02*
X15685326Y-22049180D01*
X15685326Y-22049180D02*
X15685326Y-22039656D01*
X15685326Y-22039656D02*
X15694850Y-22020609D01*
X15694850Y-22020609D02*
X15713898Y-22011085D01*
X15713898Y-22011085D02*
X15742469Y-22011085D01*
X15742469Y-22011085D02*
X15761517Y-22020609D01*
X15837707Y-22220609D02*
X15847231Y-22211085D01*
X15847231Y-22211085D02*
X15866279Y-22182513D01*
X15866279Y-22182513D02*
X15875803Y-22163466D01*
X15875803Y-22163466D02*
X15885326Y-22134894D01*
X15885326Y-22134894D02*
X15894850Y-22087275D01*
X15894850Y-22087275D02*
X15894850Y-22049180D01*
X15894850Y-22049180D02*
X15885326Y-22001561D01*
X15885326Y-22001561D02*
X15875803Y-21972990D01*
X15875803Y-21972990D02*
X15866279Y-21953942D01*
X15866279Y-21953942D02*
X15847231Y-21925371D01*
X15847231Y-21925371D02*
X15837707Y-21915847D01*
X16167231Y-22220609D02*
X16157707Y-22211085D01*
X16157707Y-22211085D02*
X16138660Y-22182513D01*
X16138660Y-22182513D02*
X16129136Y-22163466D01*
X16129136Y-22163466D02*
X16119612Y-22134894D01*
X16119612Y-22134894D02*
X16110088Y-22087275D01*
X16110088Y-22087275D02*
X16110088Y-22049180D01*
X16110088Y-22049180D02*
X16119612Y-22001561D01*
X16119612Y-22001561D02*
X16129136Y-21972990D01*
X16129136Y-21972990D02*
X16138660Y-21953942D01*
X16138660Y-21953942D02*
X16157707Y-21925371D01*
X16157707Y-21925371D02*
X16167231Y-21915847D01*
X16243422Y-22011085D02*
X16243422Y-22144418D01*
X16243422Y-22030132D02*
X16252945Y-22020609D01*
X16252945Y-22020609D02*
X16271993Y-22011085D01*
X16271993Y-22011085D02*
X16300564Y-22011085D01*
X16300564Y-22011085D02*
X16319612Y-22020609D01*
X16319612Y-22020609D02*
X16329136Y-22039656D01*
X16329136Y-22039656D02*
X16329136Y-22144418D01*
X16452945Y-22144418D02*
X16433898Y-22134894D01*
X16433898Y-22134894D02*
X16424374Y-22125371D01*
X16424374Y-22125371D02*
X16414850Y-22106323D01*
X16414850Y-22106323D02*
X16414850Y-22049180D01*
X16414850Y-22049180D02*
X16424374Y-22030132D01*
X16424374Y-22030132D02*
X16433898Y-22020609D01*
X16433898Y-22020609D02*
X16452945Y-22011085D01*
X16452945Y-22011085D02*
X16481517Y-22011085D01*
X16481517Y-22011085D02*
X16500564Y-22020609D01*
X16500564Y-22020609D02*
X16510088Y-22030132D01*
X16510088Y-22030132D02*
X16519612Y-22049180D01*
X16519612Y-22049180D02*
X16519612Y-22106323D01*
X16519612Y-22106323D02*
X16510088Y-22125371D01*
X16510088Y-22125371D02*
X16500564Y-22134894D01*
X16500564Y-22134894D02*
X16481517Y-22144418D01*
X16481517Y-22144418D02*
X16452945Y-22144418D01*
X16576755Y-22011085D02*
X16652945Y-22011085D01*
X16605326Y-21944418D02*
X16605326Y-22115847D01*
X16605326Y-22115847D02*
X16614850Y-22134894D01*
X16614850Y-22134894D02*
X16633898Y-22144418D01*
X16633898Y-22144418D02*
X16652945Y-22144418D01*
X16839612Y-22011085D02*
X16839612Y-22211085D01*
X16839612Y-22020609D02*
X16858660Y-22011085D01*
X16858660Y-22011085D02*
X16896755Y-22011085D01*
X16896755Y-22011085D02*
X16915803Y-22020609D01*
X16915803Y-22020609D02*
X16925326Y-22030132D01*
X16925326Y-22030132D02*
X16934850Y-22049180D01*
X16934850Y-22049180D02*
X16934850Y-22106323D01*
X16934850Y-22106323D02*
X16925326Y-22125371D01*
X16925326Y-22125371D02*
X16915803Y-22134894D01*
X16915803Y-22134894D02*
X16896755Y-22144418D01*
X16896755Y-22144418D02*
X16858660Y-22144418D01*
X16858660Y-22144418D02*
X16839612Y-22134894D01*
X17049136Y-22144418D02*
X17030088Y-22134894D01*
X17030088Y-22134894D02*
X17020565Y-22115847D01*
X17020565Y-22115847D02*
X17020565Y-21944418D01*
X17211041Y-22144418D02*
X17211041Y-22039656D01*
X17211041Y-22039656D02*
X17201517Y-22020609D01*
X17201517Y-22020609D02*
X17182469Y-22011085D01*
X17182469Y-22011085D02*
X17144374Y-22011085D01*
X17144374Y-22011085D02*
X17125326Y-22020609D01*
X17211041Y-22134894D02*
X17191993Y-22144418D01*
X17191993Y-22144418D02*
X17144374Y-22144418D01*
X17144374Y-22144418D02*
X17125326Y-22134894D01*
X17125326Y-22134894D02*
X17115803Y-22115847D01*
X17115803Y-22115847D02*
X17115803Y-22096799D01*
X17115803Y-22096799D02*
X17125326Y-22077752D01*
X17125326Y-22077752D02*
X17144374Y-22068228D01*
X17144374Y-22068228D02*
X17191993Y-22068228D01*
X17191993Y-22068228D02*
X17211041Y-22058704D01*
X17277707Y-22011085D02*
X17353898Y-22011085D01*
X17306279Y-21944418D02*
X17306279Y-22115847D01*
X17306279Y-22115847D02*
X17315803Y-22134894D01*
X17315803Y-22134894D02*
X17334850Y-22144418D01*
X17334850Y-22144418D02*
X17353898Y-22144418D01*
X17496755Y-22134894D02*
X17477707Y-22144418D01*
X17477707Y-22144418D02*
X17439612Y-22144418D01*
X17439612Y-22144418D02*
X17420565Y-22134894D01*
X17420565Y-22134894D02*
X17411041Y-22115847D01*
X17411041Y-22115847D02*
X17411041Y-22039656D01*
X17411041Y-22039656D02*
X17420565Y-22020609D01*
X17420565Y-22020609D02*
X17439612Y-22011085D01*
X17439612Y-22011085D02*
X17477707Y-22011085D01*
X17477707Y-22011085D02*
X17496755Y-22020609D01*
X17496755Y-22020609D02*
X17506279Y-22039656D01*
X17506279Y-22039656D02*
X17506279Y-22058704D01*
X17506279Y-22058704D02*
X17411041Y-22077752D01*
X17677707Y-22144418D02*
X17677707Y-21944418D01*
X17677707Y-22134894D02*
X17658660Y-22144418D01*
X17658660Y-22144418D02*
X17620565Y-22144418D01*
X17620565Y-22144418D02*
X17601517Y-22134894D01*
X17601517Y-22134894D02*
X17591993Y-22125371D01*
X17591993Y-22125371D02*
X17582469Y-22106323D01*
X17582469Y-22106323D02*
X17582469Y-22049180D01*
X17582469Y-22049180D02*
X17591993Y-22030132D01*
X17591993Y-22030132D02*
X17601517Y-22020609D01*
X17601517Y-22020609D02*
X17620565Y-22011085D01*
X17620565Y-22011085D02*
X17658660Y-22011085D01*
X17658660Y-22011085D02*
X17677707Y-22020609D01*
X17753898Y-22220609D02*
X17763422Y-22211085D01*
X17763422Y-22211085D02*
X17782469Y-22182513D01*
X17782469Y-22182513D02*
X17791993Y-22163466D01*
X17791993Y-22163466D02*
X17801517Y-22134894D01*
X17801517Y-22134894D02*
X17811041Y-22087275D01*
X17811041Y-22087275D02*
X17811041Y-22049180D01*
X17811041Y-22049180D02*
X17801517Y-22001561D01*
X17801517Y-22001561D02*
X17791993Y-21972990D01*
X17791993Y-21972990D02*
X17782469Y-21953942D01*
X17782469Y-21953942D02*
X17763422Y-21925371D01*
X17763422Y-21925371D02*
X17753898Y-21915847D01*
X10914850Y-22490942D02*
X11014850Y-22390942D01*
X10914850Y-22290942D01*
X10814850Y-22390942D01*
X10914850Y-22490942D01*
X11243421Y-22264418D02*
X11367231Y-22264418D01*
X11367231Y-22264418D02*
X11300564Y-22340609D01*
X11300564Y-22340609D02*
X11329136Y-22340609D01*
X11329136Y-22340609D02*
X11348183Y-22350132D01*
X11348183Y-22350132D02*
X11357707Y-22359656D01*
X11357707Y-22359656D02*
X11367231Y-22378704D01*
X11367231Y-22378704D02*
X11367231Y-22426323D01*
X11367231Y-22426323D02*
X11357707Y-22445370D01*
X11357707Y-22445370D02*
X11348183Y-22454894D01*
X11348183Y-22454894D02*
X11329136Y-22464418D01*
X11329136Y-22464418D02*
X11271993Y-22464418D01*
X11271993Y-22464418D02*
X11252945Y-22454894D01*
X11252945Y-22454894D02*
X11243421Y-22445370D01*
X11452945Y-22445370D02*
X11462469Y-22454894D01*
X11462469Y-22454894D02*
X11452945Y-22464418D01*
X11452945Y-22464418D02*
X11443421Y-22454894D01*
X11443421Y-22454894D02*
X11452945Y-22445370D01*
X11452945Y-22445370D02*
X11452945Y-22464418D01*
X11557707Y-22464418D02*
X11595802Y-22464418D01*
X11595802Y-22464418D02*
X11614850Y-22454894D01*
X11614850Y-22454894D02*
X11624374Y-22445370D01*
X11624374Y-22445370D02*
X11643421Y-22416799D01*
X11643421Y-22416799D02*
X11652945Y-22378704D01*
X11652945Y-22378704D02*
X11652945Y-22302513D01*
X11652945Y-22302513D02*
X11643421Y-22283466D01*
X11643421Y-22283466D02*
X11633898Y-22273942D01*
X11633898Y-22273942D02*
X11614850Y-22264418D01*
X11614850Y-22264418D02*
X11576755Y-22264418D01*
X11576755Y-22264418D02*
X11557707Y-22273942D01*
X11557707Y-22273942D02*
X11548183Y-22283466D01*
X11548183Y-22283466D02*
X11538659Y-22302513D01*
X11538659Y-22302513D02*
X11538659Y-22350132D01*
X11538659Y-22350132D02*
X11548183Y-22369180D01*
X11548183Y-22369180D02*
X11557707Y-22378704D01*
X11557707Y-22378704D02*
X11576755Y-22388228D01*
X11576755Y-22388228D02*
X11614850Y-22388228D01*
X11614850Y-22388228D02*
X11633898Y-22378704D01*
X11633898Y-22378704D02*
X11643421Y-22369180D01*
X11643421Y-22369180D02*
X11652945Y-22350132D01*
X11767231Y-22350132D02*
X11748183Y-22340609D01*
X11748183Y-22340609D02*
X11738659Y-22331085D01*
X11738659Y-22331085D02*
X11729136Y-22312037D01*
X11729136Y-22312037D02*
X11729136Y-22302513D01*
X11729136Y-22302513D02*
X11738659Y-22283466D01*
X11738659Y-22283466D02*
X11748183Y-22273942D01*
X11748183Y-22273942D02*
X11767231Y-22264418D01*
X11767231Y-22264418D02*
X11805326Y-22264418D01*
X11805326Y-22264418D02*
X11824374Y-22273942D01*
X11824374Y-22273942D02*
X11833898Y-22283466D01*
X11833898Y-22283466D02*
X11843421Y-22302513D01*
X11843421Y-22302513D02*
X11843421Y-22312037D01*
X11843421Y-22312037D02*
X11833898Y-22331085D01*
X11833898Y-22331085D02*
X11824374Y-22340609D01*
X11824374Y-22340609D02*
X11805326Y-22350132D01*
X11805326Y-22350132D02*
X11767231Y-22350132D01*
X11767231Y-22350132D02*
X11748183Y-22359656D01*
X11748183Y-22359656D02*
X11738659Y-22369180D01*
X11738659Y-22369180D02*
X11729136Y-22388228D01*
X11729136Y-22388228D02*
X11729136Y-22426323D01*
X11729136Y-22426323D02*
X11738659Y-22445370D01*
X11738659Y-22445370D02*
X11748183Y-22454894D01*
X11748183Y-22454894D02*
X11767231Y-22464418D01*
X11767231Y-22464418D02*
X11805326Y-22464418D01*
X11805326Y-22464418D02*
X11824374Y-22454894D01*
X11824374Y-22454894D02*
X11833898Y-22445370D01*
X11833898Y-22445370D02*
X11843421Y-22426323D01*
X11843421Y-22426323D02*
X11843421Y-22388228D01*
X11843421Y-22388228D02*
X11833898Y-22369180D01*
X11833898Y-22369180D02*
X11824374Y-22359656D01*
X11824374Y-22359656D02*
X11805326Y-22350132D01*
X11957707Y-22350132D02*
X11938659Y-22340609D01*
X11938659Y-22340609D02*
X11929136Y-22331085D01*
X11929136Y-22331085D02*
X11919612Y-22312037D01*
X11919612Y-22312037D02*
X11919612Y-22302513D01*
X11919612Y-22302513D02*
X11929136Y-22283466D01*
X11929136Y-22283466D02*
X11938659Y-22273942D01*
X11938659Y-22273942D02*
X11957707Y-22264418D01*
X11957707Y-22264418D02*
X11995802Y-22264418D01*
X11995802Y-22264418D02*
X12014850Y-22273942D01*
X12014850Y-22273942D02*
X12024374Y-22283466D01*
X12024374Y-22283466D02*
X12033898Y-22302513D01*
X12033898Y-22302513D02*
X12033898Y-22312037D01*
X12033898Y-22312037D02*
X12024374Y-22331085D01*
X12024374Y-22331085D02*
X12014850Y-22340609D01*
X12014850Y-22340609D02*
X11995802Y-22350132D01*
X11995802Y-22350132D02*
X11957707Y-22350132D01*
X11957707Y-22350132D02*
X11938659Y-22359656D01*
X11938659Y-22359656D02*
X11929136Y-22369180D01*
X11929136Y-22369180D02*
X11919612Y-22388228D01*
X11919612Y-22388228D02*
X11919612Y-22426323D01*
X11919612Y-22426323D02*
X11929136Y-22445370D01*
X11929136Y-22445370D02*
X11938659Y-22454894D01*
X11938659Y-22454894D02*
X11957707Y-22464418D01*
X11957707Y-22464418D02*
X11995802Y-22464418D01*
X11995802Y-22464418D02*
X12014850Y-22454894D01*
X12014850Y-22454894D02*
X12024374Y-22445370D01*
X12024374Y-22445370D02*
X12033898Y-22426323D01*
X12033898Y-22426323D02*
X12033898Y-22388228D01*
X12033898Y-22388228D02*
X12024374Y-22369180D01*
X12024374Y-22369180D02*
X12014850Y-22359656D01*
X12014850Y-22359656D02*
X11995802Y-22350132D01*
X12119612Y-22464418D02*
X12119612Y-22331085D01*
X12119612Y-22350132D02*
X12129136Y-22340609D01*
X12129136Y-22340609D02*
X12148183Y-22331085D01*
X12148183Y-22331085D02*
X12176755Y-22331085D01*
X12176755Y-22331085D02*
X12195802Y-22340609D01*
X12195802Y-22340609D02*
X12205326Y-22359656D01*
X12205326Y-22359656D02*
X12205326Y-22464418D01*
X12205326Y-22359656D02*
X12214850Y-22340609D01*
X12214850Y-22340609D02*
X12233898Y-22331085D01*
X12233898Y-22331085D02*
X12262469Y-22331085D01*
X12262469Y-22331085D02*
X12281517Y-22340609D01*
X12281517Y-22340609D02*
X12291040Y-22359656D01*
X12291040Y-22359656D02*
X12291040Y-22464418D01*
X12386279Y-22464418D02*
X12386279Y-22331085D01*
X12386279Y-22350132D02*
X12395802Y-22340609D01*
X12395802Y-22340609D02*
X12414850Y-22331085D01*
X12414850Y-22331085D02*
X12443421Y-22331085D01*
X12443421Y-22331085D02*
X12462469Y-22340609D01*
X12462469Y-22340609D02*
X12471993Y-22359656D01*
X12471993Y-22359656D02*
X12471993Y-22464418D01*
X12471993Y-22359656D02*
X12481517Y-22340609D01*
X12481517Y-22340609D02*
X12500564Y-22331085D01*
X12500564Y-22331085D02*
X12529136Y-22331085D01*
X12529136Y-22331085D02*
X12548183Y-22340609D01*
X12548183Y-22340609D02*
X12557707Y-22359656D01*
X12557707Y-22359656D02*
X12557707Y-22464418D01*
X12915802Y-22254894D02*
X12744374Y-22512037D01*
X13140564Y-22264418D02*
X13159612Y-22264418D01*
X13159612Y-22264418D02*
X13178660Y-22273942D01*
X13178660Y-22273942D02*
X13188183Y-22283466D01*
X13188183Y-22283466D02*
X13197707Y-22302513D01*
X13197707Y-22302513D02*
X13207231Y-22340609D01*
X13207231Y-22340609D02*
X13207231Y-22388228D01*
X13207231Y-22388228D02*
X13197707Y-22426323D01*
X13197707Y-22426323D02*
X13188183Y-22445370D01*
X13188183Y-22445370D02*
X13178660Y-22454894D01*
X13178660Y-22454894D02*
X13159612Y-22464418D01*
X13159612Y-22464418D02*
X13140564Y-22464418D01*
X13140564Y-22464418D02*
X13121517Y-22454894D01*
X13121517Y-22454894D02*
X13111993Y-22445370D01*
X13111993Y-22445370D02*
X13102469Y-22426323D01*
X13102469Y-22426323D02*
X13092945Y-22388228D01*
X13092945Y-22388228D02*
X13092945Y-22340609D01*
X13092945Y-22340609D02*
X13102469Y-22302513D01*
X13102469Y-22302513D02*
X13111993Y-22283466D01*
X13111993Y-22283466D02*
X13121517Y-22273942D01*
X13121517Y-22273942D02*
X13140564Y-22264418D01*
X13292945Y-22445370D02*
X13302469Y-22454894D01*
X13302469Y-22454894D02*
X13292945Y-22464418D01*
X13292945Y-22464418D02*
X13283421Y-22454894D01*
X13283421Y-22454894D02*
X13292945Y-22445370D01*
X13292945Y-22445370D02*
X13292945Y-22464418D01*
X13492945Y-22464418D02*
X13378660Y-22464418D01*
X13435802Y-22464418D02*
X13435802Y-22264418D01*
X13435802Y-22264418D02*
X13416755Y-22292990D01*
X13416755Y-22292990D02*
X13397707Y-22312037D01*
X13397707Y-22312037D02*
X13378660Y-22321561D01*
X13673898Y-22264418D02*
X13578660Y-22264418D01*
X13578660Y-22264418D02*
X13569136Y-22359656D01*
X13569136Y-22359656D02*
X13578660Y-22350132D01*
X13578660Y-22350132D02*
X13597707Y-22340609D01*
X13597707Y-22340609D02*
X13645326Y-22340609D01*
X13645326Y-22340609D02*
X13664374Y-22350132D01*
X13664374Y-22350132D02*
X13673898Y-22359656D01*
X13673898Y-22359656D02*
X13683421Y-22378704D01*
X13683421Y-22378704D02*
X13683421Y-22426323D01*
X13683421Y-22426323D02*
X13673898Y-22445370D01*
X13673898Y-22445370D02*
X13664374Y-22454894D01*
X13664374Y-22454894D02*
X13645326Y-22464418D01*
X13645326Y-22464418D02*
X13597707Y-22464418D01*
X13597707Y-22464418D02*
X13578660Y-22454894D01*
X13578660Y-22454894D02*
X13569136Y-22445370D01*
X13750088Y-22264418D02*
X13883421Y-22264418D01*
X13883421Y-22264418D02*
X13797707Y-22464418D01*
X13997707Y-22264418D02*
X14016755Y-22264418D01*
X14016755Y-22264418D02*
X14035802Y-22273942D01*
X14035802Y-22273942D02*
X14045326Y-22283466D01*
X14045326Y-22283466D02*
X14054850Y-22302513D01*
X14054850Y-22302513D02*
X14064374Y-22340609D01*
X14064374Y-22340609D02*
X14064374Y-22388228D01*
X14064374Y-22388228D02*
X14054850Y-22426323D01*
X14054850Y-22426323D02*
X14045326Y-22445370D01*
X14045326Y-22445370D02*
X14035802Y-22454894D01*
X14035802Y-22454894D02*
X14016755Y-22464418D01*
X14016755Y-22464418D02*
X13997707Y-22464418D01*
X13997707Y-22464418D02*
X13978660Y-22454894D01*
X13978660Y-22454894D02*
X13969136Y-22445370D01*
X13969136Y-22445370D02*
X13959612Y-22426323D01*
X13959612Y-22426323D02*
X13950088Y-22388228D01*
X13950088Y-22388228D02*
X13950088Y-22340609D01*
X13950088Y-22340609D02*
X13959612Y-22302513D01*
X13959612Y-22302513D02*
X13969136Y-22283466D01*
X13969136Y-22283466D02*
X13978660Y-22273942D01*
X13978660Y-22273942D02*
X13997707Y-22264418D01*
X14140564Y-22264418D02*
X14140564Y-22302513D01*
X14216755Y-22264418D02*
X14216755Y-22302513D01*
X14479612Y-22540609D02*
X14470088Y-22531085D01*
X14470088Y-22531085D02*
X14451041Y-22502513D01*
X14451041Y-22502513D02*
X14441517Y-22483466D01*
X14441517Y-22483466D02*
X14431993Y-22454894D01*
X14431993Y-22454894D02*
X14422469Y-22407275D01*
X14422469Y-22407275D02*
X14422469Y-22369180D01*
X14422469Y-22369180D02*
X14431993Y-22321561D01*
X14431993Y-22321561D02*
X14441517Y-22292990D01*
X14441517Y-22292990D02*
X14451041Y-22273942D01*
X14451041Y-22273942D02*
X14470088Y-22245371D01*
X14470088Y-22245371D02*
X14479612Y-22235847D01*
X14641517Y-22331085D02*
X14641517Y-22464418D01*
X14593898Y-22254894D02*
X14546279Y-22397751D01*
X14546279Y-22397751D02*
X14670088Y-22397751D01*
X14866279Y-22464418D02*
X14866279Y-22264418D01*
X14951993Y-22464418D02*
X14951993Y-22359656D01*
X14951993Y-22359656D02*
X14942469Y-22340609D01*
X14942469Y-22340609D02*
X14923422Y-22331085D01*
X14923422Y-22331085D02*
X14894850Y-22331085D01*
X14894850Y-22331085D02*
X14875802Y-22340609D01*
X14875802Y-22340609D02*
X14866279Y-22350132D01*
X15075802Y-22464418D02*
X15056755Y-22454894D01*
X15056755Y-22454894D02*
X15047231Y-22445370D01*
X15047231Y-22445370D02*
X15037707Y-22426323D01*
X15037707Y-22426323D02*
X15037707Y-22369180D01*
X15037707Y-22369180D02*
X15047231Y-22350132D01*
X15047231Y-22350132D02*
X15056755Y-22340609D01*
X15056755Y-22340609D02*
X15075802Y-22331085D01*
X15075802Y-22331085D02*
X15104374Y-22331085D01*
X15104374Y-22331085D02*
X15123422Y-22340609D01*
X15123422Y-22340609D02*
X15132945Y-22350132D01*
X15132945Y-22350132D02*
X15142469Y-22369180D01*
X15142469Y-22369180D02*
X15142469Y-22426323D01*
X15142469Y-22426323D02*
X15132945Y-22445370D01*
X15132945Y-22445370D02*
X15123422Y-22454894D01*
X15123422Y-22454894D02*
X15104374Y-22464418D01*
X15104374Y-22464418D02*
X15075802Y-22464418D01*
X15256755Y-22464418D02*
X15237707Y-22454894D01*
X15237707Y-22454894D02*
X15228183Y-22435847D01*
X15228183Y-22435847D02*
X15228183Y-22264418D01*
X15409136Y-22454894D02*
X15390088Y-22464418D01*
X15390088Y-22464418D02*
X15351993Y-22464418D01*
X15351993Y-22464418D02*
X15332945Y-22454894D01*
X15332945Y-22454894D02*
X15323422Y-22435847D01*
X15323422Y-22435847D02*
X15323422Y-22359656D01*
X15323422Y-22359656D02*
X15332945Y-22340609D01*
X15332945Y-22340609D02*
X15351993Y-22331085D01*
X15351993Y-22331085D02*
X15390088Y-22331085D01*
X15390088Y-22331085D02*
X15409136Y-22340609D01*
X15409136Y-22340609D02*
X15418660Y-22359656D01*
X15418660Y-22359656D02*
X15418660Y-22378704D01*
X15418660Y-22378704D02*
X15323422Y-22397751D01*
X15494850Y-22454894D02*
X15513898Y-22464418D01*
X15513898Y-22464418D02*
X15551993Y-22464418D01*
X15551993Y-22464418D02*
X15571041Y-22454894D01*
X15571041Y-22454894D02*
X15580564Y-22435847D01*
X15580564Y-22435847D02*
X15580564Y-22426323D01*
X15580564Y-22426323D02*
X15571041Y-22407275D01*
X15571041Y-22407275D02*
X15551993Y-22397751D01*
X15551993Y-22397751D02*
X15523422Y-22397751D01*
X15523422Y-22397751D02*
X15504374Y-22388228D01*
X15504374Y-22388228D02*
X15494850Y-22369180D01*
X15494850Y-22369180D02*
X15494850Y-22359656D01*
X15494850Y-22359656D02*
X15504374Y-22340609D01*
X15504374Y-22340609D02*
X15523422Y-22331085D01*
X15523422Y-22331085D02*
X15551993Y-22331085D01*
X15551993Y-22331085D02*
X15571041Y-22340609D01*
X15647231Y-22540609D02*
X15656755Y-22531085D01*
X15656755Y-22531085D02*
X15675803Y-22502513D01*
X15675803Y-22502513D02*
X15685326Y-22483466D01*
X15685326Y-22483466D02*
X15694850Y-22454894D01*
X15694850Y-22454894D02*
X15704374Y-22407275D01*
X15704374Y-22407275D02*
X15704374Y-22369180D01*
X15704374Y-22369180D02*
X15694850Y-22321561D01*
X15694850Y-22321561D02*
X15685326Y-22292990D01*
X15685326Y-22292990D02*
X15675803Y-22273942D01*
X15675803Y-22273942D02*
X15656755Y-22245371D01*
X15656755Y-22245371D02*
X15647231Y-22235847D01*
X15976755Y-22540609D02*
X15967231Y-22531085D01*
X15967231Y-22531085D02*
X15948183Y-22502513D01*
X15948183Y-22502513D02*
X15938660Y-22483466D01*
X15938660Y-22483466D02*
X15929136Y-22454894D01*
X15929136Y-22454894D02*
X15919612Y-22407275D01*
X15919612Y-22407275D02*
X15919612Y-22369180D01*
X15919612Y-22369180D02*
X15929136Y-22321561D01*
X15929136Y-22321561D02*
X15938660Y-22292990D01*
X15938660Y-22292990D02*
X15948183Y-22273942D01*
X15948183Y-22273942D02*
X15967231Y-22245371D01*
X15967231Y-22245371D02*
X15976755Y-22235847D01*
X16052945Y-22331085D02*
X16052945Y-22464418D01*
X16052945Y-22350132D02*
X16062469Y-22340609D01*
X16062469Y-22340609D02*
X16081517Y-22331085D01*
X16081517Y-22331085D02*
X16110088Y-22331085D01*
X16110088Y-22331085D02*
X16129136Y-22340609D01*
X16129136Y-22340609D02*
X16138660Y-22359656D01*
X16138660Y-22359656D02*
X16138660Y-22464418D01*
X16262469Y-22464418D02*
X16243422Y-22454894D01*
X16243422Y-22454894D02*
X16233898Y-22445370D01*
X16233898Y-22445370D02*
X16224374Y-22426323D01*
X16224374Y-22426323D02*
X16224374Y-22369180D01*
X16224374Y-22369180D02*
X16233898Y-22350132D01*
X16233898Y-22350132D02*
X16243422Y-22340609D01*
X16243422Y-22340609D02*
X16262469Y-22331085D01*
X16262469Y-22331085D02*
X16291041Y-22331085D01*
X16291041Y-22331085D02*
X16310088Y-22340609D01*
X16310088Y-22340609D02*
X16319612Y-22350132D01*
X16319612Y-22350132D02*
X16329136Y-22369180D01*
X16329136Y-22369180D02*
X16329136Y-22426323D01*
X16329136Y-22426323D02*
X16319612Y-22445370D01*
X16319612Y-22445370D02*
X16310088Y-22454894D01*
X16310088Y-22454894D02*
X16291041Y-22464418D01*
X16291041Y-22464418D02*
X16262469Y-22464418D01*
X16386279Y-22331085D02*
X16462469Y-22331085D01*
X16414850Y-22264418D02*
X16414850Y-22435847D01*
X16414850Y-22435847D02*
X16424374Y-22454894D01*
X16424374Y-22454894D02*
X16443422Y-22464418D01*
X16443422Y-22464418D02*
X16462469Y-22464418D01*
X16649136Y-22331085D02*
X16649136Y-22531085D01*
X16649136Y-22340609D02*
X16668183Y-22331085D01*
X16668183Y-22331085D02*
X16706279Y-22331085D01*
X16706279Y-22331085D02*
X16725326Y-22340609D01*
X16725326Y-22340609D02*
X16734850Y-22350132D01*
X16734850Y-22350132D02*
X16744374Y-22369180D01*
X16744374Y-22369180D02*
X16744374Y-22426323D01*
X16744374Y-22426323D02*
X16734850Y-22445370D01*
X16734850Y-22445370D02*
X16725326Y-22454894D01*
X16725326Y-22454894D02*
X16706279Y-22464418D01*
X16706279Y-22464418D02*
X16668183Y-22464418D01*
X16668183Y-22464418D02*
X16649136Y-22454894D01*
X16858660Y-22464418D02*
X16839612Y-22454894D01*
X16839612Y-22454894D02*
X16830088Y-22435847D01*
X16830088Y-22435847D02*
X16830088Y-22264418D01*
X17020565Y-22464418D02*
X17020565Y-22359656D01*
X17020565Y-22359656D02*
X17011041Y-22340609D01*
X17011041Y-22340609D02*
X16991993Y-22331085D01*
X16991993Y-22331085D02*
X16953898Y-22331085D01*
X16953898Y-22331085D02*
X16934850Y-22340609D01*
X17020565Y-22454894D02*
X17001517Y-22464418D01*
X17001517Y-22464418D02*
X16953898Y-22464418D01*
X16953898Y-22464418D02*
X16934850Y-22454894D01*
X16934850Y-22454894D02*
X16925326Y-22435847D01*
X16925326Y-22435847D02*
X16925326Y-22416799D01*
X16925326Y-22416799D02*
X16934850Y-22397751D01*
X16934850Y-22397751D02*
X16953898Y-22388228D01*
X16953898Y-22388228D02*
X17001517Y-22388228D01*
X17001517Y-22388228D02*
X17020565Y-22378704D01*
X17087231Y-22331085D02*
X17163422Y-22331085D01*
X17115803Y-22264418D02*
X17115803Y-22435847D01*
X17115803Y-22435847D02*
X17125326Y-22454894D01*
X17125326Y-22454894D02*
X17144374Y-22464418D01*
X17144374Y-22464418D02*
X17163422Y-22464418D01*
X17306279Y-22454894D02*
X17287231Y-22464418D01*
X17287231Y-22464418D02*
X17249136Y-22464418D01*
X17249136Y-22464418D02*
X17230088Y-22454894D01*
X17230088Y-22454894D02*
X17220565Y-22435847D01*
X17220565Y-22435847D02*
X17220565Y-22359656D01*
X17220565Y-22359656D02*
X17230088Y-22340609D01*
X17230088Y-22340609D02*
X17249136Y-22331085D01*
X17249136Y-22331085D02*
X17287231Y-22331085D01*
X17287231Y-22331085D02*
X17306279Y-22340609D01*
X17306279Y-22340609D02*
X17315803Y-22359656D01*
X17315803Y-22359656D02*
X17315803Y-22378704D01*
X17315803Y-22378704D02*
X17220565Y-22397751D01*
X17487231Y-22464418D02*
X17487231Y-22264418D01*
X17487231Y-22454894D02*
X17468184Y-22464418D01*
X17468184Y-22464418D02*
X17430088Y-22464418D01*
X17430088Y-22464418D02*
X17411041Y-22454894D01*
X17411041Y-22454894D02*
X17401517Y-22445370D01*
X17401517Y-22445370D02*
X17391993Y-22426323D01*
X17391993Y-22426323D02*
X17391993Y-22369180D01*
X17391993Y-22369180D02*
X17401517Y-22350132D01*
X17401517Y-22350132D02*
X17411041Y-22340609D01*
X17411041Y-22340609D02*
X17430088Y-22331085D01*
X17430088Y-22331085D02*
X17468184Y-22331085D01*
X17468184Y-22331085D02*
X17487231Y-22340609D01*
X17563422Y-22540609D02*
X17572946Y-22531085D01*
X17572946Y-22531085D02*
X17591993Y-22502513D01*
X17591993Y-22502513D02*
X17601517Y-22483466D01*
X17601517Y-22483466D02*
X17611041Y-22454894D01*
X17611041Y-22454894D02*
X17620565Y-22407275D01*
X17620565Y-22407275D02*
X17620565Y-22369180D01*
X17620565Y-22369180D02*
X17611041Y-22321561D01*
X17611041Y-22321561D02*
X17601517Y-22292990D01*
X17601517Y-22292990D02*
X17591993Y-22273942D01*
X17591993Y-22273942D02*
X17572946Y-22245371D01*
X17572946Y-22245371D02*
X17563422Y-22235847D01*
X10814850Y-22610942D02*
X11014850Y-22810942D01*
X11014850Y-22610942D02*
X10814850Y-22810942D01*
X11014850Y-22710942D02*
G75*
G03*
X11014850Y-22710942I-100000J0D01*
G01*
X11348183Y-22584418D02*
X11310088Y-22584418D01*
X11310088Y-22584418D02*
X11291040Y-22593942D01*
X11291040Y-22593942D02*
X11281517Y-22603466D01*
X11281517Y-22603466D02*
X11262469Y-22632037D01*
X11262469Y-22632037D02*
X11252945Y-22670132D01*
X11252945Y-22670132D02*
X11252945Y-22746323D01*
X11252945Y-22746323D02*
X11262469Y-22765370D01*
X11262469Y-22765370D02*
X11271993Y-22774894D01*
X11271993Y-22774894D02*
X11291040Y-22784418D01*
X11291040Y-22784418D02*
X11329136Y-22784418D01*
X11329136Y-22784418D02*
X11348183Y-22774894D01*
X11348183Y-22774894D02*
X11357707Y-22765370D01*
X11357707Y-22765370D02*
X11367231Y-22746323D01*
X11367231Y-22746323D02*
X11367231Y-22698704D01*
X11367231Y-22698704D02*
X11357707Y-22679656D01*
X11357707Y-22679656D02*
X11348183Y-22670132D01*
X11348183Y-22670132D02*
X11329136Y-22660609D01*
X11329136Y-22660609D02*
X11291040Y-22660609D01*
X11291040Y-22660609D02*
X11271993Y-22670132D01*
X11271993Y-22670132D02*
X11262469Y-22679656D01*
X11262469Y-22679656D02*
X11252945Y-22698704D01*
X11452945Y-22765370D02*
X11462469Y-22774894D01*
X11462469Y-22774894D02*
X11452945Y-22784418D01*
X11452945Y-22784418D02*
X11443421Y-22774894D01*
X11443421Y-22774894D02*
X11452945Y-22765370D01*
X11452945Y-22765370D02*
X11452945Y-22784418D01*
X11586278Y-22584418D02*
X11605326Y-22584418D01*
X11605326Y-22584418D02*
X11624374Y-22593942D01*
X11624374Y-22593942D02*
X11633898Y-22603466D01*
X11633898Y-22603466D02*
X11643421Y-22622513D01*
X11643421Y-22622513D02*
X11652945Y-22660609D01*
X11652945Y-22660609D02*
X11652945Y-22708228D01*
X11652945Y-22708228D02*
X11643421Y-22746323D01*
X11643421Y-22746323D02*
X11633898Y-22765370D01*
X11633898Y-22765370D02*
X11624374Y-22774894D01*
X11624374Y-22774894D02*
X11605326Y-22784418D01*
X11605326Y-22784418D02*
X11586278Y-22784418D01*
X11586278Y-22784418D02*
X11567231Y-22774894D01*
X11567231Y-22774894D02*
X11557707Y-22765370D01*
X11557707Y-22765370D02*
X11548183Y-22746323D01*
X11548183Y-22746323D02*
X11538659Y-22708228D01*
X11538659Y-22708228D02*
X11538659Y-22660609D01*
X11538659Y-22660609D02*
X11548183Y-22622513D01*
X11548183Y-22622513D02*
X11557707Y-22603466D01*
X11557707Y-22603466D02*
X11567231Y-22593942D01*
X11567231Y-22593942D02*
X11586278Y-22584418D01*
X11776755Y-22584418D02*
X11795802Y-22584418D01*
X11795802Y-22584418D02*
X11814850Y-22593942D01*
X11814850Y-22593942D02*
X11824374Y-22603466D01*
X11824374Y-22603466D02*
X11833898Y-22622513D01*
X11833898Y-22622513D02*
X11843421Y-22660609D01*
X11843421Y-22660609D02*
X11843421Y-22708228D01*
X11843421Y-22708228D02*
X11833898Y-22746323D01*
X11833898Y-22746323D02*
X11824374Y-22765370D01*
X11824374Y-22765370D02*
X11814850Y-22774894D01*
X11814850Y-22774894D02*
X11795802Y-22784418D01*
X11795802Y-22784418D02*
X11776755Y-22784418D01*
X11776755Y-22784418D02*
X11757707Y-22774894D01*
X11757707Y-22774894D02*
X11748183Y-22765370D01*
X11748183Y-22765370D02*
X11738659Y-22746323D01*
X11738659Y-22746323D02*
X11729136Y-22708228D01*
X11729136Y-22708228D02*
X11729136Y-22660609D01*
X11729136Y-22660609D02*
X11738659Y-22622513D01*
X11738659Y-22622513D02*
X11748183Y-22603466D01*
X11748183Y-22603466D02*
X11757707Y-22593942D01*
X11757707Y-22593942D02*
X11776755Y-22584418D01*
X11967231Y-22584418D02*
X11986279Y-22584418D01*
X11986279Y-22584418D02*
X12005326Y-22593942D01*
X12005326Y-22593942D02*
X12014850Y-22603466D01*
X12014850Y-22603466D02*
X12024374Y-22622513D01*
X12024374Y-22622513D02*
X12033898Y-22660609D01*
X12033898Y-22660609D02*
X12033898Y-22708228D01*
X12033898Y-22708228D02*
X12024374Y-22746323D01*
X12024374Y-22746323D02*
X12014850Y-22765370D01*
X12014850Y-22765370D02*
X12005326Y-22774894D01*
X12005326Y-22774894D02*
X11986279Y-22784418D01*
X11986279Y-22784418D02*
X11967231Y-22784418D01*
X11967231Y-22784418D02*
X11948183Y-22774894D01*
X11948183Y-22774894D02*
X11938659Y-22765370D01*
X11938659Y-22765370D02*
X11929136Y-22746323D01*
X11929136Y-22746323D02*
X11919612Y-22708228D01*
X11919612Y-22708228D02*
X11919612Y-22660609D01*
X11919612Y-22660609D02*
X11929136Y-22622513D01*
X11929136Y-22622513D02*
X11938659Y-22603466D01*
X11938659Y-22603466D02*
X11948183Y-22593942D01*
X11948183Y-22593942D02*
X11967231Y-22584418D01*
X12119612Y-22784418D02*
X12119612Y-22651085D01*
X12119612Y-22670132D02*
X12129136Y-22660609D01*
X12129136Y-22660609D02*
X12148183Y-22651085D01*
X12148183Y-22651085D02*
X12176755Y-22651085D01*
X12176755Y-22651085D02*
X12195802Y-22660609D01*
X12195802Y-22660609D02*
X12205326Y-22679656D01*
X12205326Y-22679656D02*
X12205326Y-22784418D01*
X12205326Y-22679656D02*
X12214850Y-22660609D01*
X12214850Y-22660609D02*
X12233898Y-22651085D01*
X12233898Y-22651085D02*
X12262469Y-22651085D01*
X12262469Y-22651085D02*
X12281517Y-22660609D01*
X12281517Y-22660609D02*
X12291040Y-22679656D01*
X12291040Y-22679656D02*
X12291040Y-22784418D01*
X12386279Y-22784418D02*
X12386279Y-22651085D01*
X12386279Y-22670132D02*
X12395802Y-22660609D01*
X12395802Y-22660609D02*
X12414850Y-22651085D01*
X12414850Y-22651085D02*
X12443421Y-22651085D01*
X12443421Y-22651085D02*
X12462469Y-22660609D01*
X12462469Y-22660609D02*
X12471993Y-22679656D01*
X12471993Y-22679656D02*
X12471993Y-22784418D01*
X12471993Y-22679656D02*
X12481517Y-22660609D01*
X12481517Y-22660609D02*
X12500564Y-22651085D01*
X12500564Y-22651085D02*
X12529136Y-22651085D01*
X12529136Y-22651085D02*
X12548183Y-22660609D01*
X12548183Y-22660609D02*
X12557707Y-22679656D01*
X12557707Y-22679656D02*
X12557707Y-22784418D01*
X12915802Y-22574894D02*
X12744374Y-22832037D01*
X13140564Y-22584418D02*
X13159612Y-22584418D01*
X13159612Y-22584418D02*
X13178660Y-22593942D01*
X13178660Y-22593942D02*
X13188183Y-22603466D01*
X13188183Y-22603466D02*
X13197707Y-22622513D01*
X13197707Y-22622513D02*
X13207231Y-22660609D01*
X13207231Y-22660609D02*
X13207231Y-22708228D01*
X13207231Y-22708228D02*
X13197707Y-22746323D01*
X13197707Y-22746323D02*
X13188183Y-22765370D01*
X13188183Y-22765370D02*
X13178660Y-22774894D01*
X13178660Y-22774894D02*
X13159612Y-22784418D01*
X13159612Y-22784418D02*
X13140564Y-22784418D01*
X13140564Y-22784418D02*
X13121517Y-22774894D01*
X13121517Y-22774894D02*
X13111993Y-22765370D01*
X13111993Y-22765370D02*
X13102469Y-22746323D01*
X13102469Y-22746323D02*
X13092945Y-22708228D01*
X13092945Y-22708228D02*
X13092945Y-22660609D01*
X13092945Y-22660609D02*
X13102469Y-22622513D01*
X13102469Y-22622513D02*
X13111993Y-22603466D01*
X13111993Y-22603466D02*
X13121517Y-22593942D01*
X13121517Y-22593942D02*
X13140564Y-22584418D01*
X13292945Y-22765370D02*
X13302469Y-22774894D01*
X13302469Y-22774894D02*
X13292945Y-22784418D01*
X13292945Y-22784418D02*
X13283421Y-22774894D01*
X13283421Y-22774894D02*
X13292945Y-22765370D01*
X13292945Y-22765370D02*
X13292945Y-22784418D01*
X13378660Y-22603466D02*
X13388183Y-22593942D01*
X13388183Y-22593942D02*
X13407231Y-22584418D01*
X13407231Y-22584418D02*
X13454850Y-22584418D01*
X13454850Y-22584418D02*
X13473898Y-22593942D01*
X13473898Y-22593942D02*
X13483421Y-22603466D01*
X13483421Y-22603466D02*
X13492945Y-22622513D01*
X13492945Y-22622513D02*
X13492945Y-22641561D01*
X13492945Y-22641561D02*
X13483421Y-22670132D01*
X13483421Y-22670132D02*
X13369136Y-22784418D01*
X13369136Y-22784418D02*
X13492945Y-22784418D01*
X13559612Y-22584418D02*
X13683421Y-22584418D01*
X13683421Y-22584418D02*
X13616755Y-22660609D01*
X13616755Y-22660609D02*
X13645326Y-22660609D01*
X13645326Y-22660609D02*
X13664374Y-22670132D01*
X13664374Y-22670132D02*
X13673898Y-22679656D01*
X13673898Y-22679656D02*
X13683421Y-22698704D01*
X13683421Y-22698704D02*
X13683421Y-22746323D01*
X13683421Y-22746323D02*
X13673898Y-22765370D01*
X13673898Y-22765370D02*
X13664374Y-22774894D01*
X13664374Y-22774894D02*
X13645326Y-22784418D01*
X13645326Y-22784418D02*
X13588183Y-22784418D01*
X13588183Y-22784418D02*
X13569136Y-22774894D01*
X13569136Y-22774894D02*
X13559612Y-22765370D01*
X13854850Y-22584418D02*
X13816755Y-22584418D01*
X13816755Y-22584418D02*
X13797707Y-22593942D01*
X13797707Y-22593942D02*
X13788183Y-22603466D01*
X13788183Y-22603466D02*
X13769136Y-22632037D01*
X13769136Y-22632037D02*
X13759612Y-22670132D01*
X13759612Y-22670132D02*
X13759612Y-22746323D01*
X13759612Y-22746323D02*
X13769136Y-22765370D01*
X13769136Y-22765370D02*
X13778660Y-22774894D01*
X13778660Y-22774894D02*
X13797707Y-22784418D01*
X13797707Y-22784418D02*
X13835802Y-22784418D01*
X13835802Y-22784418D02*
X13854850Y-22774894D01*
X13854850Y-22774894D02*
X13864374Y-22765370D01*
X13864374Y-22765370D02*
X13873898Y-22746323D01*
X13873898Y-22746323D02*
X13873898Y-22698704D01*
X13873898Y-22698704D02*
X13864374Y-22679656D01*
X13864374Y-22679656D02*
X13854850Y-22670132D01*
X13854850Y-22670132D02*
X13835802Y-22660609D01*
X13835802Y-22660609D02*
X13797707Y-22660609D01*
X13797707Y-22660609D02*
X13778660Y-22670132D01*
X13778660Y-22670132D02*
X13769136Y-22679656D01*
X13769136Y-22679656D02*
X13759612Y-22698704D01*
X13950088Y-22603466D02*
X13959612Y-22593942D01*
X13959612Y-22593942D02*
X13978660Y-22584418D01*
X13978660Y-22584418D02*
X14026279Y-22584418D01*
X14026279Y-22584418D02*
X14045326Y-22593942D01*
X14045326Y-22593942D02*
X14054850Y-22603466D01*
X14054850Y-22603466D02*
X14064374Y-22622513D01*
X14064374Y-22622513D02*
X14064374Y-22641561D01*
X14064374Y-22641561D02*
X14054850Y-22670132D01*
X14054850Y-22670132D02*
X13940564Y-22784418D01*
X13940564Y-22784418D02*
X14064374Y-22784418D01*
X14140564Y-22584418D02*
X14140564Y-22622513D01*
X14216755Y-22584418D02*
X14216755Y-22622513D01*
X14479612Y-22860609D02*
X14470088Y-22851085D01*
X14470088Y-22851085D02*
X14451041Y-22822513D01*
X14451041Y-22822513D02*
X14441517Y-22803466D01*
X14441517Y-22803466D02*
X14431993Y-22774894D01*
X14431993Y-22774894D02*
X14422469Y-22727275D01*
X14422469Y-22727275D02*
X14422469Y-22689180D01*
X14422469Y-22689180D02*
X14431993Y-22641561D01*
X14431993Y-22641561D02*
X14441517Y-22612990D01*
X14441517Y-22612990D02*
X14451041Y-22593942D01*
X14451041Y-22593942D02*
X14470088Y-22565370D01*
X14470088Y-22565370D02*
X14479612Y-22555847D01*
X14641517Y-22584418D02*
X14603421Y-22584418D01*
X14603421Y-22584418D02*
X14584374Y-22593942D01*
X14584374Y-22593942D02*
X14574850Y-22603466D01*
X14574850Y-22603466D02*
X14555802Y-22632037D01*
X14555802Y-22632037D02*
X14546279Y-22670132D01*
X14546279Y-22670132D02*
X14546279Y-22746323D01*
X14546279Y-22746323D02*
X14555802Y-22765370D01*
X14555802Y-22765370D02*
X14565326Y-22774894D01*
X14565326Y-22774894D02*
X14584374Y-22784418D01*
X14584374Y-22784418D02*
X14622469Y-22784418D01*
X14622469Y-22784418D02*
X14641517Y-22774894D01*
X14641517Y-22774894D02*
X14651041Y-22765370D01*
X14651041Y-22765370D02*
X14660564Y-22746323D01*
X14660564Y-22746323D02*
X14660564Y-22698704D01*
X14660564Y-22698704D02*
X14651041Y-22679656D01*
X14651041Y-22679656D02*
X14641517Y-22670132D01*
X14641517Y-22670132D02*
X14622469Y-22660609D01*
X14622469Y-22660609D02*
X14584374Y-22660609D01*
X14584374Y-22660609D02*
X14565326Y-22670132D01*
X14565326Y-22670132D02*
X14555802Y-22679656D01*
X14555802Y-22679656D02*
X14546279Y-22698704D01*
X14866279Y-22784418D02*
X14866279Y-22584418D01*
X14951993Y-22784418D02*
X14951993Y-22679656D01*
X14951993Y-22679656D02*
X14942469Y-22660609D01*
X14942469Y-22660609D02*
X14923422Y-22651085D01*
X14923422Y-22651085D02*
X14894850Y-22651085D01*
X14894850Y-22651085D02*
X14875802Y-22660609D01*
X14875802Y-22660609D02*
X14866279Y-22670132D01*
X15075802Y-22784418D02*
X15056755Y-22774894D01*
X15056755Y-22774894D02*
X15047231Y-22765370D01*
X15047231Y-22765370D02*
X15037707Y-22746323D01*
X15037707Y-22746323D02*
X15037707Y-22689180D01*
X15037707Y-22689180D02*
X15047231Y-22670132D01*
X15047231Y-22670132D02*
X15056755Y-22660609D01*
X15056755Y-22660609D02*
X15075802Y-22651085D01*
X15075802Y-22651085D02*
X15104374Y-22651085D01*
X15104374Y-22651085D02*
X15123422Y-22660609D01*
X15123422Y-22660609D02*
X15132945Y-22670132D01*
X15132945Y-22670132D02*
X15142469Y-22689180D01*
X15142469Y-22689180D02*
X15142469Y-22746323D01*
X15142469Y-22746323D02*
X15132945Y-22765370D01*
X15132945Y-22765370D02*
X15123422Y-22774894D01*
X15123422Y-22774894D02*
X15104374Y-22784418D01*
X15104374Y-22784418D02*
X15075802Y-22784418D01*
X15256755Y-22784418D02*
X15237707Y-22774894D01*
X15237707Y-22774894D02*
X15228183Y-22755847D01*
X15228183Y-22755847D02*
X15228183Y-22584418D01*
X15409136Y-22774894D02*
X15390088Y-22784418D01*
X15390088Y-22784418D02*
X15351993Y-22784418D01*
X15351993Y-22784418D02*
X15332945Y-22774894D01*
X15332945Y-22774894D02*
X15323422Y-22755847D01*
X15323422Y-22755847D02*
X15323422Y-22679656D01*
X15323422Y-22679656D02*
X15332945Y-22660609D01*
X15332945Y-22660609D02*
X15351993Y-22651085D01*
X15351993Y-22651085D02*
X15390088Y-22651085D01*
X15390088Y-22651085D02*
X15409136Y-22660609D01*
X15409136Y-22660609D02*
X15418660Y-22679656D01*
X15418660Y-22679656D02*
X15418660Y-22698704D01*
X15418660Y-22698704D02*
X15323422Y-22717751D01*
X15494850Y-22774894D02*
X15513898Y-22784418D01*
X15513898Y-22784418D02*
X15551993Y-22784418D01*
X15551993Y-22784418D02*
X15571041Y-22774894D01*
X15571041Y-22774894D02*
X15580564Y-22755847D01*
X15580564Y-22755847D02*
X15580564Y-22746323D01*
X15580564Y-22746323D02*
X15571041Y-22727275D01*
X15571041Y-22727275D02*
X15551993Y-22717751D01*
X15551993Y-22717751D02*
X15523422Y-22717751D01*
X15523422Y-22717751D02*
X15504374Y-22708228D01*
X15504374Y-22708228D02*
X15494850Y-22689180D01*
X15494850Y-22689180D02*
X15494850Y-22679656D01*
X15494850Y-22679656D02*
X15504374Y-22660609D01*
X15504374Y-22660609D02*
X15523422Y-22651085D01*
X15523422Y-22651085D02*
X15551993Y-22651085D01*
X15551993Y-22651085D02*
X15571041Y-22660609D01*
X15647231Y-22860609D02*
X15656755Y-22851085D01*
X15656755Y-22851085D02*
X15675803Y-22822513D01*
X15675803Y-22822513D02*
X15685326Y-22803466D01*
X15685326Y-22803466D02*
X15694850Y-22774894D01*
X15694850Y-22774894D02*
X15704374Y-22727275D01*
X15704374Y-22727275D02*
X15704374Y-22689180D01*
X15704374Y-22689180D02*
X15694850Y-22641561D01*
X15694850Y-22641561D02*
X15685326Y-22612990D01*
X15685326Y-22612990D02*
X15675803Y-22593942D01*
X15675803Y-22593942D02*
X15656755Y-22565370D01*
X15656755Y-22565370D02*
X15647231Y-22555847D01*
X15976755Y-22860609D02*
X15967231Y-22851085D01*
X15967231Y-22851085D02*
X15948183Y-22822513D01*
X15948183Y-22822513D02*
X15938660Y-22803466D01*
X15938660Y-22803466D02*
X15929136Y-22774894D01*
X15929136Y-22774894D02*
X15919612Y-22727275D01*
X15919612Y-22727275D02*
X15919612Y-22689180D01*
X15919612Y-22689180D02*
X15929136Y-22641561D01*
X15929136Y-22641561D02*
X15938660Y-22612990D01*
X15938660Y-22612990D02*
X15948183Y-22593942D01*
X15948183Y-22593942D02*
X15967231Y-22565370D01*
X15967231Y-22565370D02*
X15976755Y-22555847D01*
X16052945Y-22651085D02*
X16052945Y-22784418D01*
X16052945Y-22670132D02*
X16062469Y-22660609D01*
X16062469Y-22660609D02*
X16081517Y-22651085D01*
X16081517Y-22651085D02*
X16110088Y-22651085D01*
X16110088Y-22651085D02*
X16129136Y-22660609D01*
X16129136Y-22660609D02*
X16138660Y-22679656D01*
X16138660Y-22679656D02*
X16138660Y-22784418D01*
X16262469Y-22784418D02*
X16243422Y-22774894D01*
X16243422Y-22774894D02*
X16233898Y-22765370D01*
X16233898Y-22765370D02*
X16224374Y-22746323D01*
X16224374Y-22746323D02*
X16224374Y-22689180D01*
X16224374Y-22689180D02*
X16233898Y-22670132D01*
X16233898Y-22670132D02*
X16243422Y-22660609D01*
X16243422Y-22660609D02*
X16262469Y-22651085D01*
X16262469Y-22651085D02*
X16291041Y-22651085D01*
X16291041Y-22651085D02*
X16310088Y-22660609D01*
X16310088Y-22660609D02*
X16319612Y-22670132D01*
X16319612Y-22670132D02*
X16329136Y-22689180D01*
X16329136Y-22689180D02*
X16329136Y-22746323D01*
X16329136Y-22746323D02*
X16319612Y-22765370D01*
X16319612Y-22765370D02*
X16310088Y-22774894D01*
X16310088Y-22774894D02*
X16291041Y-22784418D01*
X16291041Y-22784418D02*
X16262469Y-22784418D01*
X16386279Y-22651085D02*
X16462469Y-22651085D01*
X16414850Y-22584418D02*
X16414850Y-22755847D01*
X16414850Y-22755847D02*
X16424374Y-22774894D01*
X16424374Y-22774894D02*
X16443422Y-22784418D01*
X16443422Y-22784418D02*
X16462469Y-22784418D01*
X16649136Y-22651085D02*
X16649136Y-22851085D01*
X16649136Y-22660609D02*
X16668183Y-22651085D01*
X16668183Y-22651085D02*
X16706279Y-22651085D01*
X16706279Y-22651085D02*
X16725326Y-22660609D01*
X16725326Y-22660609D02*
X16734850Y-22670132D01*
X16734850Y-22670132D02*
X16744374Y-22689180D01*
X16744374Y-22689180D02*
X16744374Y-22746323D01*
X16744374Y-22746323D02*
X16734850Y-22765370D01*
X16734850Y-22765370D02*
X16725326Y-22774894D01*
X16725326Y-22774894D02*
X16706279Y-22784418D01*
X16706279Y-22784418D02*
X16668183Y-22784418D01*
X16668183Y-22784418D02*
X16649136Y-22774894D01*
X16858660Y-22784418D02*
X16839612Y-22774894D01*
X16839612Y-22774894D02*
X16830088Y-22755847D01*
X16830088Y-22755847D02*
X16830088Y-22584418D01*
X17020565Y-22784418D02*
X17020565Y-22679656D01*
X17020565Y-22679656D02*
X17011041Y-22660609D01*
X17011041Y-22660609D02*
X16991993Y-22651085D01*
X16991993Y-22651085D02*
X16953898Y-22651085D01*
X16953898Y-22651085D02*
X16934850Y-22660609D01*
X17020565Y-22774894D02*
X17001517Y-22784418D01*
X17001517Y-22784418D02*
X16953898Y-22784418D01*
X16953898Y-22784418D02*
X16934850Y-22774894D01*
X16934850Y-22774894D02*
X16925326Y-22755847D01*
X16925326Y-22755847D02*
X16925326Y-22736799D01*
X16925326Y-22736799D02*
X16934850Y-22717751D01*
X16934850Y-22717751D02*
X16953898Y-22708228D01*
X16953898Y-22708228D02*
X17001517Y-22708228D01*
X17001517Y-22708228D02*
X17020565Y-22698704D01*
X17087231Y-22651085D02*
X17163422Y-22651085D01*
X17115803Y-22584418D02*
X17115803Y-22755847D01*
X17115803Y-22755847D02*
X17125326Y-22774894D01*
X17125326Y-22774894D02*
X17144374Y-22784418D01*
X17144374Y-22784418D02*
X17163422Y-22784418D01*
X17306279Y-22774894D02*
X17287231Y-22784418D01*
X17287231Y-22784418D02*
X17249136Y-22784418D01*
X17249136Y-22784418D02*
X17230088Y-22774894D01*
X17230088Y-22774894D02*
X17220565Y-22755847D01*
X17220565Y-22755847D02*
X17220565Y-22679656D01*
X17220565Y-22679656D02*
X17230088Y-22660609D01*
X17230088Y-22660609D02*
X17249136Y-22651085D01*
X17249136Y-22651085D02*
X17287231Y-22651085D01*
X17287231Y-22651085D02*
X17306279Y-22660609D01*
X17306279Y-22660609D02*
X17315803Y-22679656D01*
X17315803Y-22679656D02*
X17315803Y-22698704D01*
X17315803Y-22698704D02*
X17220565Y-22717751D01*
X17487231Y-22784418D02*
X17487231Y-22584418D01*
X17487231Y-22774894D02*
X17468184Y-22784418D01*
X17468184Y-22784418D02*
X17430088Y-22784418D01*
X17430088Y-22784418D02*
X17411041Y-22774894D01*
X17411041Y-22774894D02*
X17401517Y-22765370D01*
X17401517Y-22765370D02*
X17391993Y-22746323D01*
X17391993Y-22746323D02*
X17391993Y-22689180D01*
X17391993Y-22689180D02*
X17401517Y-22670132D01*
X17401517Y-22670132D02*
X17411041Y-22660609D01*
X17411041Y-22660609D02*
X17430088Y-22651085D01*
X17430088Y-22651085D02*
X17468184Y-22651085D01*
X17468184Y-22651085D02*
X17487231Y-22660609D01*
X17563422Y-22860609D02*
X17572946Y-22851085D01*
X17572946Y-22851085D02*
X17591993Y-22822513D01*
X17591993Y-22822513D02*
X17601517Y-22803466D01*
X17601517Y-22803466D02*
X17611041Y-22774894D01*
X17611041Y-22774894D02*
X17620565Y-22727275D01*
X17620565Y-22727275D02*
X17620565Y-22689180D01*
X17620565Y-22689180D02*
X17611041Y-22641561D01*
X17611041Y-22641561D02*
X17601517Y-22612990D01*
X17601517Y-22612990D02*
X17591993Y-22593942D01*
X17591993Y-22593942D02*
X17572946Y-22565370D01*
X17572946Y-22565370D02*
X17563422Y-22555847D01*
M02*
