G04 #@! TF.GenerationSoftware,KiCad,Pcbnew,7.0.0*
G04 #@! TF.CreationDate,2023-03-24T12:17:37+00:00*
G04 #@! TF.ProjectId,ErgoMaxReversible,4572676f-4d61-4785-9265-766572736962,rev?*
G04 #@! TF.SameCoordinates,Original*
G04 #@! TF.FileFunction,Soldermask,Bot*
G04 #@! TF.FilePolarity,Negative*
%FSLAX46Y46*%
G04 Gerber Fmt 4.6, Leading zero omitted, Abs format (unit mm)*
G04 Created by KiCad (PCBNEW 7.0.0) date 2023-03-24 12:17:37*
%MOMM*%
%LPD*%
G01*
G04 APERTURE LIST*
G04 Aperture macros list*
%AMRoundRect*
0 Rectangle with rounded corners*
0 $1 Rounding radius*
0 $2 $3 $4 $5 $6 $7 $8 $9 X,Y pos of 4 corners*
0 Add a 4 corners polygon primitive as box body*
4,1,4,$2,$3,$4,$5,$6,$7,$8,$9,$2,$3,0*
0 Add four circle primitives for the rounded corners*
1,1,$1+$1,$2,$3*
1,1,$1+$1,$4,$5*
1,1,$1+$1,$6,$7*
1,1,$1+$1,$8,$9*
0 Add four rect primitives between the rounded corners*
20,1,$1+$1,$2,$3,$4,$5,0*
20,1,$1+$1,$4,$5,$6,$7,0*
20,1,$1+$1,$6,$7,$8,$9,0*
20,1,$1+$1,$8,$9,$2,$3,0*%
G04 Aperture macros list end*
%ADD10C,6.102000*%
%ADD11C,1.602000*%
%ADD12O,1.702000X2.302000*%
%ADD13RoundRect,0.051000X-0.800000X0.800000X-0.800000X-0.800000X0.800000X-0.800000X0.800000X0.800000X0*%
%ADD14C,1.702000*%
%ADD15RoundRect,0.051000X-0.600000X0.800000X-0.600000X-0.800000X0.600000X-0.800000X0.600000X0.800000X0*%
%ADD16RoundRect,0.051000X-0.978617X-0.205690X0.471475X-0.881879X0.978617X0.205690X-0.471475X0.881879X0*%
%ADD17RoundRect,0.051000X-1.063141X-0.386952X0.386952X-1.063141X1.063141X0.386952X-0.386952X1.063141X0*%
%ADD18RoundRect,0.051000X0.978617X0.205690X-0.471475X0.881879X-0.978617X-0.205690X0.471475X-0.881879X0*%
%ADD19RoundRect,0.051000X1.063141X0.386952X-0.386952X1.063141X-1.063141X-0.386952X0.386952X-1.063141X0*%
%ADD20RoundRect,0.051000X0.205690X-0.978617X0.881879X0.471475X-0.205690X0.978617X-0.881879X-0.471475X0*%
%ADD21RoundRect,0.051000X0.386952X-1.063141X1.063141X0.386952X-0.386952X1.063141X-1.063141X-0.386952X0*%
%ADD22RoundRect,0.051000X-0.205690X0.978617X-0.881879X-0.471475X0.205690X-0.978617X0.881879X0.471475X0*%
%ADD23RoundRect,0.051000X-0.386952X1.063141X-1.063141X-0.386952X0.386952X-1.063141X1.063141X0.386952X0*%
%ADD24RoundRect,0.051000X-0.750000X-0.600000X0.750000X-0.600000X0.750000X0.600000X-0.750000X0.600000X0*%
%ADD25C,3.052000*%
%ADD26C,4.082180*%
%ADD27RoundRect,0.051000X-1.275000X-1.250000X1.275000X-1.250000X1.275000X1.250000X-1.275000X1.250000X0*%
%ADD28RoundRect,0.051000X0.594046X-1.683815X1.671723X0.627270X-0.594046X1.683815X-1.671723X-0.627270X0*%
%ADD29RoundRect,0.051000X-0.594046X1.683815X-1.671723X-0.627270X0.594046X-1.683815X1.671723X0.627270X0*%
%ADD30C,3.150000*%
%ADD31C,4.089800*%
G04 APERTURE END LIST*
D10*
X210842752Y-173375665D03*
X114479969Y-155747076D03*
X247845580Y-41650920D03*
X115282980Y-41036240D03*
X182002380Y-40976880D03*
X256580125Y-137332164D03*
D11*
X231329200Y-37744200D03*
X231329200Y-44744200D03*
X235929200Y-37744200D03*
X235929200Y-44744200D03*
D12*
X229029199Y-47444199D03*
X238229199Y-47444199D03*
X233629199Y-46344199D03*
X233629199Y-42344199D03*
X233629199Y-39344199D03*
D13*
X120729660Y-37378640D03*
D14*
X120729660Y-39918640D03*
X120729660Y-42458640D03*
X120729660Y-44998640D03*
X120729660Y-47538640D03*
X120729660Y-50078640D03*
X120729660Y-52618640D03*
X120729660Y-55158640D03*
X120729660Y-57698640D03*
X120729660Y-60238640D03*
X120729660Y-62778640D03*
X120729660Y-65318640D03*
X135969660Y-65318640D03*
X135969660Y-62778640D03*
X135969660Y-60238640D03*
X135969660Y-57698640D03*
X135969660Y-55158640D03*
X135969660Y-52618640D03*
X135969660Y-50078640D03*
X135969660Y-47538640D03*
X135969660Y-44998640D03*
X135969660Y-42458640D03*
X135969660Y-39918640D03*
X135969660Y-37378640D03*
D15*
X251513340Y-86779560D03*
D13*
X251513340Y-89279560D03*
D14*
X251513340Y-81479560D03*
D15*
X251513340Y-83979560D03*
X133939241Y-107653066D03*
D13*
X133939241Y-110153066D03*
D14*
X133939241Y-102353066D03*
D15*
X133939241Y-104853066D03*
X157740021Y-107662666D03*
D13*
X157740021Y-110162666D03*
D14*
X157740021Y-102362666D03*
D15*
X157740021Y-104862666D03*
X176788761Y-104461946D03*
D13*
X176788761Y-106961946D03*
D14*
X176788761Y-99161946D03*
D15*
X176788761Y-101661946D03*
X195564760Y-103497840D03*
D13*
X195564760Y-105997840D03*
D14*
X195564760Y-98197840D03*
D15*
X195564760Y-100697840D03*
X214635080Y-104821180D03*
D13*
X214635080Y-107321180D03*
D14*
X214635080Y-99521180D03*
D15*
X214635080Y-102021180D03*
X251472700Y-110901940D03*
D13*
X251472700Y-113401940D03*
D14*
X251472700Y-105601940D03*
D15*
X251472700Y-108101940D03*
X176225200Y-66622120D03*
D13*
X176225200Y-69122120D03*
D14*
X176225200Y-61322120D03*
D15*
X176225200Y-63822120D03*
X233453940Y-105903220D03*
D13*
X233453940Y-108403220D03*
D14*
X233453940Y-100603220D03*
D15*
X233453940Y-103103220D03*
X157350460Y-69581220D03*
D13*
X157350460Y-72081220D03*
D14*
X157350460Y-64281220D03*
D15*
X157350460Y-66781220D03*
X214767160Y-86208060D03*
D13*
X214767160Y-88708060D03*
D14*
X214767160Y-80908060D03*
D15*
X214767160Y-83408060D03*
X233954161Y-86702846D03*
D13*
X233954161Y-89202846D03*
D14*
X233954161Y-81402846D03*
D15*
X233954161Y-83902846D03*
D16*
X274207071Y-186969246D03*
D17*
X276472840Y-188025791D03*
D14*
X269403640Y-184729369D03*
D16*
X271669409Y-185785914D03*
D15*
X195191380Y-84508800D03*
D13*
X195191380Y-87008800D03*
D14*
X195191380Y-79208800D03*
D15*
X195191380Y-81708800D03*
X176791261Y-85419966D03*
D13*
X176791261Y-87919966D03*
D14*
X176791261Y-80119966D03*
D15*
X176791261Y-82619966D03*
X157741261Y-88609966D03*
D13*
X157741261Y-91109966D03*
D14*
X157741261Y-83309966D03*
D15*
X157741261Y-85809966D03*
X133935841Y-88609966D03*
D13*
X133935841Y-91109966D03*
D14*
X133935841Y-83309966D03*
D15*
X133935841Y-85809966D03*
X251559060Y-67635580D03*
D13*
X251559060Y-70135580D03*
D14*
X251559060Y-62335580D03*
D15*
X251559060Y-64835580D03*
X233911912Y-67652966D03*
D13*
X233911912Y-70152966D03*
D14*
X233911912Y-62352966D03*
D15*
X233911912Y-64852966D03*
X214495380Y-66904060D03*
D13*
X214495380Y-69404060D03*
D14*
X214495380Y-61604060D03*
D15*
X214495380Y-64104060D03*
X195252340Y-65448640D03*
D13*
X195252340Y-67948640D03*
D14*
X195252340Y-60148640D03*
D15*
X195252340Y-62648640D03*
X214523320Y-142844980D03*
D13*
X214523320Y-145344980D03*
D14*
X214523320Y-137544980D03*
D15*
X214523320Y-140044980D03*
D18*
X248971969Y-155897734D03*
D19*
X246706200Y-154841189D03*
D14*
X253775400Y-158137611D03*
D18*
X251509631Y-157081066D03*
D15*
X233954161Y-143829326D03*
D13*
X233954161Y-146329326D03*
D14*
X233954161Y-138529326D03*
D15*
X233954161Y-141029326D03*
X251475240Y-140254180D03*
D13*
X251475240Y-142754180D03*
D14*
X251475240Y-134954180D03*
D15*
X251475240Y-137454180D03*
D18*
X264618369Y-163052914D03*
D19*
X262352600Y-161996369D03*
D14*
X269421800Y-165292791D03*
D18*
X267156031Y-164236246D03*
D15*
X138811000Y-164249560D03*
D13*
X138811000Y-166749560D03*
D14*
X138811000Y-158949560D03*
D15*
X138811000Y-161449560D03*
X158122620Y-164137800D03*
D13*
X158122620Y-166637800D03*
D14*
X158122620Y-158837800D03*
D15*
X158122620Y-161337800D03*
X176804161Y-161589326D03*
D13*
X176804161Y-164089326D03*
D14*
X176804161Y-156289326D03*
D15*
X176804161Y-158789326D03*
X195559680Y-160947560D03*
D13*
X195559680Y-163447560D03*
D14*
X195559680Y-155647560D03*
D15*
X195559680Y-158147560D03*
X214904161Y-161569326D03*
D13*
X214904161Y-164069326D03*
D14*
X214904161Y-156269326D03*
D15*
X214904161Y-158769326D03*
D20*
X225699166Y-159800189D03*
D21*
X226755711Y-157534420D03*
D14*
X223459289Y-164603620D03*
D20*
X224515834Y-162337851D03*
D15*
X157745761Y-126701366D03*
D13*
X157745761Y-129201366D03*
D14*
X157745761Y-121401366D03*
D15*
X157745761Y-123901366D03*
X176804161Y-123509566D03*
D13*
X176804161Y-126009566D03*
D14*
X176804161Y-118209566D03*
D15*
X176804161Y-120709566D03*
X133949561Y-126693166D03*
D13*
X133949561Y-129193166D03*
D14*
X133949561Y-121393166D03*
D15*
X133949561Y-123893166D03*
X195513960Y-141320980D03*
D13*
X195513960Y-143820980D03*
D14*
X195513960Y-136020980D03*
D15*
X195513960Y-138520980D03*
X176804161Y-142559326D03*
D13*
X176804161Y-145059326D03*
D14*
X176804161Y-137259326D03*
D15*
X176804161Y-139759326D03*
X157754161Y-145739326D03*
D13*
X157754161Y-148239326D03*
D14*
X157754161Y-140439326D03*
D15*
X157754161Y-142939326D03*
X133944161Y-145739326D03*
D13*
X133944161Y-148239326D03*
D14*
X133944161Y-140439326D03*
D15*
X133944161Y-142939326D03*
D22*
X271325494Y-158314491D03*
D23*
X270268949Y-160580260D03*
D14*
X273565371Y-153511060D03*
D22*
X272508826Y-155776829D03*
X255259994Y-147684591D03*
D23*
X254203449Y-149950360D03*
D14*
X257499871Y-142881160D03*
D22*
X256443326Y-145146929D03*
D15*
X233954161Y-124800166D03*
D13*
X233954161Y-127300166D03*
D14*
X233954161Y-119500166D03*
D15*
X233954161Y-122000166D03*
X214703660Y-124132800D03*
D13*
X214703660Y-126632800D03*
D14*
X214703660Y-118832800D03*
D15*
X214703660Y-121332800D03*
X195493640Y-122433540D03*
D13*
X195493640Y-124933540D03*
D14*
X195493640Y-117133540D03*
D15*
X195493640Y-119633540D03*
D24*
X214195920Y-39875460D03*
D14*
X216745920Y-39875460D03*
X208945920Y-39875460D03*
D24*
X211495920Y-39875460D03*
X195257680Y-39875460D03*
D14*
X197807680Y-39875460D03*
X190007680Y-39875460D03*
D24*
X192557680Y-39875460D03*
D25*
X144787100Y-80150640D03*
X146057100Y-77610640D03*
D26*
X148597100Y-82690640D03*
D25*
X151137100Y-77610640D03*
X152407100Y-80150640D03*
D27*
X141237100Y-80150640D03*
X154687100Y-77610640D03*
D25*
X201950000Y-153110000D03*
X203220000Y-150570000D03*
D26*
X205760000Y-155650000D03*
D25*
X208300000Y-150570000D03*
X209570000Y-153110000D03*
D27*
X198400000Y-153110000D03*
X211850000Y-150570000D03*
D25*
X182882700Y-75355080D03*
X184152700Y-72815080D03*
D26*
X186692700Y-77895080D03*
D25*
X189232700Y-72815080D03*
X190502700Y-75355080D03*
D27*
X179332700Y-75355080D03*
X192782700Y-72815080D03*
D25*
X240050000Y-102055640D03*
X241320000Y-99515640D03*
D26*
X243860000Y-104595640D03*
D25*
X246400000Y-99515640D03*
X247670000Y-102055640D03*
D27*
X236500000Y-102055640D03*
X249950000Y-99515640D03*
D25*
X220957600Y-97296040D03*
X222227600Y-94756040D03*
D26*
X224767600Y-99836040D03*
D25*
X227307600Y-94756040D03*
X228577600Y-97296040D03*
D27*
X217407600Y-97296040D03*
X230857600Y-94756040D03*
D25*
X201924600Y-76947420D03*
X203194600Y-74407420D03*
D26*
X205734600Y-79487420D03*
D25*
X208274600Y-74407420D03*
X209544600Y-76947420D03*
D27*
X198374600Y-76947420D03*
X211824600Y-74407420D03*
D25*
X201924440Y-95985260D03*
X203194440Y-93445260D03*
D26*
X205734440Y-98525260D03*
D25*
X208274440Y-93445260D03*
X209544440Y-95985260D03*
D27*
X198374440Y-95985260D03*
X211824440Y-93445260D03*
D25*
X182879040Y-94399540D03*
X184149040Y-91859540D03*
D26*
X186689040Y-96939540D03*
D25*
X189229040Y-91859540D03*
X190499040Y-94399540D03*
D27*
X179329040Y-94399540D03*
X192779040Y-91859540D03*
D25*
X163834600Y-96002620D03*
X165104600Y-93462620D03*
D26*
X167644600Y-98542620D03*
D25*
X170184600Y-93462620D03*
X171454600Y-96002620D03*
D27*
X160284600Y-96002620D03*
X173734600Y-93462620D03*
D25*
X144785860Y-99203340D03*
X146055860Y-96663340D03*
D26*
X148595860Y-101743340D03*
D25*
X151135860Y-96663340D03*
X152405860Y-99203340D03*
D27*
X141235860Y-99203340D03*
X154685860Y-96663340D03*
D25*
X120985080Y-99193740D03*
X122255080Y-96653740D03*
D26*
X124795080Y-101733740D03*
D25*
X127335080Y-96653740D03*
X128605080Y-99193740D03*
D27*
X117435080Y-99193740D03*
X130885080Y-96653740D03*
D25*
X240050000Y-78235940D03*
X241320000Y-75695940D03*
D26*
X243860000Y-80775940D03*
D25*
X246400000Y-75695940D03*
X247670000Y-78235940D03*
D27*
X236500000Y-78235940D03*
X249950000Y-75695940D03*
D25*
X221000000Y-78243520D03*
X222270000Y-75703520D03*
D26*
X224810000Y-80783520D03*
D25*
X227350000Y-75703520D03*
X228620000Y-78243520D03*
D27*
X217450000Y-78243520D03*
X230900000Y-75703520D03*
D25*
X240050000Y-59195640D03*
X241320000Y-56655640D03*
D26*
X243860000Y-61735640D03*
D25*
X246400000Y-56655640D03*
X247670000Y-59195640D03*
D27*
X236500000Y-59195640D03*
X249950000Y-56655640D03*
D25*
X163837100Y-76960640D03*
X165107100Y-74420640D03*
D26*
X167647100Y-79500640D03*
D25*
X170187100Y-74420640D03*
X171457100Y-76960640D03*
D27*
X160287100Y-76960640D03*
X173737100Y-74420640D03*
D25*
X220957751Y-59193640D03*
X222227751Y-56653640D03*
D26*
X224767751Y-61733640D03*
D25*
X227307751Y-56653640D03*
X228577751Y-59193640D03*
D27*
X217407751Y-59193640D03*
X230857751Y-56653640D03*
D25*
X163840000Y-57907040D03*
X165110000Y-55367040D03*
D26*
X167650000Y-60447040D03*
D25*
X170190000Y-55367040D03*
X171460000Y-57907040D03*
D27*
X160290000Y-57907040D03*
X173740000Y-55367040D03*
D25*
X120981680Y-80150640D03*
X122251680Y-77610640D03*
D26*
X124791680Y-82690640D03*
D25*
X127331680Y-77610640D03*
X128601680Y-80150640D03*
D27*
X117431680Y-80150640D03*
X130881680Y-77610640D03*
D25*
X201950000Y-134070000D03*
X203220000Y-131530000D03*
D26*
X205760000Y-136610000D03*
D25*
X208300000Y-131530000D03*
X209570000Y-134070000D03*
D27*
X198400000Y-134070000D03*
X211850000Y-131530000D03*
D25*
X261538754Y-195830770D03*
X259773457Y-193606309D03*
D26*
X265450951Y-193451188D03*
D25*
X261920358Y-189002265D03*
X264759105Y-188924705D03*
D28*
X260038459Y-199048163D03*
X263420653Y-185784873D03*
D25*
X248310883Y-179106170D03*
X246545586Y-176881709D03*
D26*
X252223080Y-176726588D03*
D25*
X248692487Y-172277665D03*
X251531234Y-172200105D03*
D28*
X246810588Y-182323563D03*
X250192782Y-169060273D03*
D25*
X231040239Y-171087990D03*
X229274942Y-168863529D03*
D26*
X234952436Y-168708408D03*
D25*
X231421843Y-164259485D03*
X234260590Y-164181925D03*
D28*
X229539944Y-174305383D03*
X232922138Y-161042093D03*
D25*
X163850000Y-134100000D03*
X165120000Y-131560000D03*
D26*
X167660000Y-136640000D03*
D25*
X170200000Y-131560000D03*
X171470000Y-134100000D03*
D27*
X160300000Y-134100000D03*
X173750000Y-131560000D03*
D25*
X144790000Y-61113640D03*
X146060000Y-58573640D03*
D26*
X148600000Y-63653640D03*
D25*
X151140000Y-58573640D03*
X152410000Y-61113640D03*
D27*
X141240000Y-61113640D03*
X154690000Y-58573640D03*
D25*
X182900000Y-113447240D03*
X184170000Y-110907240D03*
D26*
X186710000Y-115987240D03*
D25*
X189250000Y-110907240D03*
X190520000Y-113447240D03*
D27*
X179350000Y-113447240D03*
X192800000Y-110907240D03*
D25*
X163850000Y-153130000D03*
X165120000Y-150590000D03*
D26*
X167660000Y-155670000D03*
D25*
X170200000Y-150590000D03*
X171470000Y-153130000D03*
D27*
X160300000Y-153130000D03*
X173750000Y-150590000D03*
D25*
X144800000Y-156330000D03*
X146070000Y-153790000D03*
D26*
X148610000Y-158870000D03*
D25*
X151150000Y-153790000D03*
X152420000Y-156330000D03*
D27*
X141250000Y-156330000D03*
X154700000Y-153790000D03*
D25*
X125750000Y-156330000D03*
X127020000Y-153790000D03*
D26*
X129560000Y-158870000D03*
D25*
X132100000Y-153790000D03*
X133370000Y-156330000D03*
D27*
X122200000Y-156330000D03*
X135650000Y-153790000D03*
D25*
X269571608Y-178591138D03*
X267806311Y-176366677D03*
D26*
X273483805Y-176211556D03*
D25*
X269953212Y-171762633D03*
X272791959Y-171685073D03*
D28*
X268071313Y-181808531D03*
X271453507Y-168545241D03*
D25*
X182900000Y-151530000D03*
X184170000Y-148990000D03*
D26*
X186710000Y-154070000D03*
D25*
X189250000Y-148990000D03*
X190520000Y-151530000D03*
D27*
X179350000Y-151530000D03*
X192800000Y-148990000D03*
D25*
X240050000Y-130610000D03*
X241320000Y-128070000D03*
D26*
X243860000Y-133150000D03*
D25*
X246400000Y-128070000D03*
X247670000Y-130610000D03*
D27*
X236500000Y-130610000D03*
X249950000Y-128070000D03*
D25*
X221000000Y-135370000D03*
X222270000Y-132830000D03*
D26*
X224810000Y-137910000D03*
D25*
X227350000Y-132830000D03*
X228620000Y-135370000D03*
D27*
X217450000Y-135370000D03*
X230900000Y-132830000D03*
D25*
X120995400Y-118233840D03*
X122265400Y-115693840D03*
D26*
X124805400Y-120773840D03*
D25*
X127345400Y-115693840D03*
X128615400Y-118233840D03*
D27*
X117445400Y-118233840D03*
X130895400Y-115693840D03*
D25*
X182900000Y-132490000D03*
X184170000Y-129950000D03*
D26*
X186710000Y-135030000D03*
D25*
X189250000Y-129950000D03*
X190520000Y-132490000D03*
D27*
X179350000Y-132490000D03*
X192800000Y-129950000D03*
D25*
X144800000Y-137280000D03*
X146070000Y-134740000D03*
D26*
X148610000Y-139820000D03*
D25*
X151150000Y-134740000D03*
X152420000Y-137280000D03*
D27*
X141250000Y-137280000D03*
X154700000Y-134740000D03*
D25*
X120990000Y-137280000D03*
X122260000Y-134740000D03*
D26*
X124800000Y-139820000D03*
D25*
X127340000Y-134740000D03*
X128610000Y-137280000D03*
D27*
X117440000Y-137280000D03*
X130890000Y-134740000D03*
D25*
X285446879Y-156566811D03*
X287212176Y-158791272D03*
D26*
X281534682Y-158946393D03*
D25*
X285065275Y-163395316D03*
X282226528Y-163472876D03*
D29*
X286947174Y-153349418D03*
X283564980Y-166612708D03*
D25*
X260362697Y-153275978D03*
X258597400Y-151051517D03*
D26*
X264274894Y-150896396D03*
D25*
X260744301Y-146447473D03*
X263583048Y-146369913D03*
D28*
X258862402Y-156493371D03*
X262244596Y-143230081D03*
D25*
X221000000Y-116340840D03*
X222270000Y-113800840D03*
D26*
X224810000Y-118880840D03*
D25*
X227350000Y-113800840D03*
X228620000Y-116340840D03*
D27*
X217450000Y-116340840D03*
X230900000Y-113800840D03*
D25*
X201950000Y-115030000D03*
X203220000Y-112490000D03*
D26*
X205760000Y-117570000D03*
D25*
X208300000Y-112490000D03*
X209570000Y-115030000D03*
D27*
X198400000Y-115030000D03*
X211850000Y-112490000D03*
D25*
X163850000Y-115050240D03*
X165120000Y-112510240D03*
D26*
X167660000Y-117590240D03*
D25*
X170200000Y-112510240D03*
X171470000Y-115050240D03*
D27*
X160300000Y-115050240D03*
X173750000Y-112510240D03*
D25*
X144791600Y-118242040D03*
X146061600Y-115702040D03*
D26*
X148601600Y-120782040D03*
D25*
X151141600Y-115702040D03*
X152411600Y-118242040D03*
D27*
X141241600Y-118242040D03*
X154691600Y-115702040D03*
D25*
X182880000Y-56309640D03*
X184150000Y-53769640D03*
D26*
X186690000Y-58849640D03*
D25*
X189230000Y-53769640D03*
X190500000Y-56309640D03*
D27*
X179330000Y-56309640D03*
X192780000Y-53769640D03*
D25*
X201920000Y-57893640D03*
X203190000Y-55353640D03*
D26*
X205730000Y-60433640D03*
D25*
X208270000Y-55353640D03*
X209540000Y-57893640D03*
D27*
X198370000Y-57893640D03*
X211820000Y-55353640D03*
D30*
X246328213Y-160840894D03*
D31*
X232516082Y-154400192D03*
D30*
X236237779Y-182479899D03*
D31*
X222425648Y-176039197D03*
D30*
X240847303Y-184594102D03*
D31*
X254659434Y-191034804D03*
D30*
X250937737Y-162955097D03*
D31*
X264749868Y-169395799D03*
M02*
